<svg width="173" height="167" viewBox="0 0 173 167" fill="none" xmlns="http://www.w3.org/2000/svg">
<circle cx="86.5" cy="83.5" r="83.5" fill="#B7442D"/>
<path d="M170 77.4232C170 120.183 132.616 142.905 86.5 142.905C40.3842 142.905 3 120.183 3 77.4232C3 34.6635 40.3842 0 86.5 0C132.616 0 170 34.6635 170 77.4232Z" fill="#D45735"/>
<path d="M79.4304 93.8856C39.9726 88.4851 91.0696 7.89307 91.0696 7.89307C97.3449 32.2284 108.102 89.7314 79.4304 93.8856Z" fill="#1B5500"/>
<path d="M72.0864 87.841C119.204 62.5901 165.761 88.6521 165.761 88.6521C136.52 94.4887 72.1368 117.359 72.0864 87.841Z" fill="#1B5500"/>
<circle cx="81.5149" cy="80.1766" r="9.55473" fill="#738D5E"/>
<circle cx="22.9403" cy="94.7165" r="4.98507" fill="#E1876E"/>
<path opacity="0.3" d="M47.8656 29.9104C41.6842 29.9104 12.6313 46.7773 18.8128 81.4228" stroke="#FCF7F4" stroke-width="10" stroke-linecap="round"/>
</svg>
