<svg width="206" height="300" viewBox="0 0 206 300" fill="none" xmlns="http://www.w3.org/2000/svg">
<path fill-rule="evenodd" clip-rule="evenodd" d="M198.394 260.42C197.336 254.545 196.367 248.654 195.486 242.751C195.068 239.948 194.661 237.143 194.294 234.333C194.037 232.364 193.646 230.112 195.007 228.654C196.923 226.602 198.663 224.845 198.897 221.906C199.118 219.14 198.167 216.124 197.573 213.439C196.327 207.809 194.775 202.248 193.06 196.74C191.318 191.144 189.408 185.6 187.471 180.067C185.659 174.894 183.918 169.674 181.559 164.711C177.081 155.291 169.506 148.316 160.145 143.658C157.816 142.5 153.067 138.365 150.635 137.439C148.399 136.588 148.407 139.074 146.206 138.137C144.446 137.389 142.808 136.391 141.823 134.719C140.753 132.904 138.071 130.366 137.662 128.253C136.797 123.775 137.735 119.963 134.486 116.592C131.603 113.599 127.727 111.549 123.716 110.448C114.894 108.027 103.128 109.72 97.8052 117.786C95.2628 121.639 94.3745 126.295 90.944 129.439C87.9483 132.184 88.6187 134.061 84.7389 135.476C84.5191 135.556 78.5632 134.299 78.3434 134.379C74.099 133.486 70.0423 135.987 66.1483 137.439C60.3431 139.603 54.8161 142.42 49.6235 145.768C39.1531 152.518 30.1854 161.284 22.7922 171.203C15.3379 181.204 9.55414 192.414 5.43592 204.129C4.4358 206.975 3.53746 209.855 2.74508 212.764C2.30154 214.391 1.82759 216.08 2.36764 217.746C2.80934 219.11 3.79188 220.125 4.9457 220.943C6.50974 222.052 9.64699 222.772 9.58588 225.003C9.53919 226.699 8.95455 228.483 8.66917 230.159C8.32951 232.155 8.05043 234.162 7.77135 236.166C6.50187 245.29 5.51382 254.465 5.07684 263.666C4.64669 272.725 4.28971 281.97 4.92839 291.027C4.97061 291.624 5.15159 292.172 5.44352 292.636C5.171 292.738 5.15002 293.238 5.48916 293.309C5.7268 293.359 5.96391 293.408 6.20154 293.458C6.69518 293.825 7.31077 294.05 8.01922 294.072C8.49947 294.087 8.97946 294.109 9.45919 294.133C14.5217 295.174 19.5834 296.158 24.7119 296.903C30.946 297.808 37.1985 298.546 43.4704 299.146C56.3581 300.379 69.1442 299.97 82.0489 299.306C94.9337 298.642 107.811 298.487 120.709 298.817C133.618 299.147 146.523 299.7 159.435 299.926C173.861 300.178 188.265 299.791 202.649 298.662C204.621 298.508 205.841 296.964 205.452 295.036C203.122 283.489 200.481 272.018 198.394 260.42Z" fill="white"/>
<path fill-rule="evenodd" clip-rule="evenodd" d="M74.3183 134.095C75.6523 134.038 77.0126 134.25 78.3434 134.379C78.4594 134.39 78.5034 134.566 78.3728 134.593C75.991 135.083 73.6353 135.753 71.2961 136.433L70.2945 136.724C67.6567 137.492 65.0962 138.284 62.5425 139.308C57.453 141.349 52.6193 144.104 48.1706 147.269C31.0398 159.457 18.6414 177.909 10.8172 197.013C8.69242 202.201 6.89205 207.518 5.43372 212.925C5.0791 214.241 4.74547 215.561 4.42914 216.886C4.33629 217.274 3.93158 218.269 4.15348 218.667C4.34967 219.018 5.11241 219.235 5.46676 219.418L6.6631 220.028C8.99667 221.211 12.8838 223.157 13.2736 223.346L13.8815 223.641C23.8251 228.437 34.4498 232.505 45.6395 232.786L45.7271 231.846C46.2259 226.648 46.8806 221.422 48.3096 216.384C48.3864 216.113 48.7366 216.204 48.7686 216.445C49.5646 222.41 49.3102 228.421 49.0325 234.413C48.5407 245.026 47.8876 255.634 47.3071 266.243C47.0165 271.55 46.6409 276.854 46.3018 282.158C45.9621 287.473 45.8522 292.915 45.0766 298.186C44.9037 299.361 43.5052 300 42.4461 299.876C41.2742 299.739 40.3727 298.723 40.3672 297.559C40.353 294.488 40.7451 291.382 40.9631 288.319C41.17 285.408 41.3922 282.5 41.6199 279.591C42.4518 268.975 43.4089 258.372 44.2942 247.761C44.6079 243.998 44.9468 240.238 45.2956 236.478C33.4419 236.102 22.3677 231.781 11.8032 226.734C11.6503 230.15 11.281 233.56 10.9235 236.962C9.92544 246.457 9.04546 255.947 8.38685 265.471C8.05426 270.281 7.81217 275.097 7.60129 279.913C7.49768 282.28 7.41322 284.648 7.34844 287.017C7.32676 287.806 7.30717 288.596 7.28984 289.385L7.2538 291.194C7.22432 292.34 7.10592 293.402 6.1259 294.236C5.13051 295.083 3.78601 295.129 2.80084 294.236C1.48205 293.041 1.71522 291.413 1.7543 289.808C1.78683 288.455 1.82591 287.101 1.87128 285.748C1.9623 283.041 2.07849 280.335 2.21987 277.631C2.71458 268.176 3.70304 258.758 4.99482 249.378L5.49908 245.757C6.44078 239.026 7.47463 232.142 9.57975 225.658C8.76009 225.257 7.94279 224.853 7.12864 224.447C5.68447 223.728 4.19125 223.053 2.78747 222.258C1.67378 221.628 0.713271 220.764 0.403244 219.489C0.0574846 218.068 0.586202 216.514 0.93745 215.128L0.967955 215.007C1.31234 213.611 1.68322 212.221 2.07456 210.838C3.66142 205.227 5.62361 199.726 7.91997 194.359C12.5179 183.614 18.4528 173.406 25.7022 164.176C32.2278 155.868 39.9365 148.334 48.9713 142.684C53.3883 139.921 58.0954 137.653 63.0734 136.049C65.4002 135.299 67.9318 134.647 70.368 134.379C71.682 134.234 72.998 134.152 74.3183 134.095ZM97.9543 117.069C99.5396 115.394 102.689 117.127 101.928 119.345C100.138 124.564 97.2865 129.323 92.837 132.753C88.6545 135.976 83.667 138.069 78.2959 137.623C78.2544 137.619 78.2185 137.609 78.1867 137.594L78.6496 138.212C82.2836 143.049 86.1173 147.819 90.7379 151.772C100.152 159.828 112.97 164.172 125.348 161.082C135.086 158.65 143.666 151.073 146.189 141.416C145.827 141.576 145.397 141.63 144.926 141.529C142.907 141.098 140.908 139.009 139.606 137.511C138.198 135.89 137.097 134.14 136.291 132.162C134.816 128.542 134.342 123.881 136.357 120.375C136.606 119.942 137.179 120.185 137.228 120.607L137.305 121.265C137.693 124.552 138.177 127.731 139.752 130.727C140.522 132.193 141.446 133.624 142.571 134.851C143.172 135.508 143.825 136.136 144.529 136.687C145.215 137.223 146.046 137.611 146.661 138.227L146.774 138.345L146.777 138.324C146.932 137.023 147.86 136.45 148.767 136.486C149.645 136.52 150.676 136.901 151.075 137.083L151.113 137.1C157.238 139.993 162.879 143.764 168.188 147.948C179.167 156.6 187.392 167.911 191.378 181.231C193.334 187.768 194.456 194.504 195.641 201.209L196.371 205.316C197.477 211.506 198.712 217.817 201.208 223.575C201.854 225.064 201.356 226.461 199.773 227.047C197.796 227.778 195.811 228.486 193.824 229.186C194.8 233.306 195.395 237.568 196.126 241.709C197.68 250.509 199.585 259.254 201.218 268.043C202.053 272.537 202.806 277.045 203.64 281.54C204.042 283.704 204.461 285.865 204.868 288.029C205.088 289.195 205.287 290.366 205.497 291.534L205.533 291.728C205.653 292.344 205.804 292.981 205.632 293.598C205.435 294.301 204.877 294.798 204.379 295.302C203.969 295.718 203.377 295.72 202.874 295.494L202.709 295.418C201.812 295.005 201.109 294.594 200.791 293.598C200.59 292.967 200.517 292.257 200.385 291.607C200.133 290.362 199.893 289.115 199.667 287.865C199.215 285.363 198.773 282.86 198.342 280.354L197.939 278.008C196.557 269.922 195.244 261.787 194.581 253.616C194.286 249.991 193.974 246.369 193.659 242.747L193.423 240.029C193.124 236.59 192.758 233.064 192.707 229.579L191.518 229.994L185.719 232.011C184.281 232.511 182.45 233.536 180.903 233.349C180.145 233.258 179.568 233.023 179.122 232.597C179.656 240.013 180.379 247.416 181.342 254.781C182.219 261.482 183.19 268.175 184.338 274.837C184.907 278.136 185.491 281.432 186.125 284.719C186.442 286.363 186.77 288.004 187.107 289.644C187.275 290.462 187.475 291.281 187.606 292.106C187.756 293.051 187.492 293.632 186.956 294.409C186.515 295.047 185.634 295.375 184.92 294.935C183.974 294.35 183.481 293.845 183.202 292.781C182.95 291.815 182.796 290.806 182.6 289.828C182.239 288.022 181.89 286.214 181.553 284.403C180.848 280.616 180.198 276.82 179.618 273.013C177.574 259.6 176.276 246.075 175.621 232.528C175.298 225.844 175.198 219.154 175.255 212.464C175.285 209.034 175.398 205.595 175.645 202.174C175.895 198.711 176.414 195.317 176.878 191.888C176.894 191.767 177.067 191.76 177.075 191.888C177.294 195.733 177.638 199.573 177.807 203.429C177.968 207.107 178.038 210.791 178.166 214.471C178.335 219.308 178.568 224.148 178.876 228.985C179.435 228.383 180.278 228.037 181.121 228.172C182.342 227.92 183.657 227.289 184.821 226.907L189.21 225.464C191.518 224.706 193.825 223.953 196.14 223.222C194.07 216.369 192.652 209.414 191.441 202.357L190.901 199.183C189.832 192.936 188.679 186.687 186.743 180.637C184.707 174.277 181.661 168.365 177.62 163.01C173.637 157.733 168.79 153.086 163.8 148.74C159.529 145.019 154.959 141.66 150.602 138.041C150.647 138.281 150.657 138.545 150.617 138.835C149.69 145.507 146.153 151.72 141.224 156.341C131.321 165.625 116.663 167.551 103.988 163.198C91.728 158.986 80.8883 149.013 77.0586 136.672C76.9931 136.461 77.2805 136.377 77.3959 136.532C77.6084 136.819 77.8219 137.105 78.0357 137.392C78.0212 137.278 78.0813 137.154 78.224 137.1C82.6924 135.402 87.0802 132.994 90.4297 129.588C92.0622 127.928 93.4869 126.047 94.6116 124.018C95.1504 123.047 95.6343 122.04 96.0204 121.001L96.1185 120.732C96.5864 119.429 96.9775 118.101 97.9543 117.069Z" fill="black"/>
<path fill-rule="evenodd" clip-rule="evenodd" d="M162.506 63.8085C162.206 58.1607 161.943 52.3249 160.843 46.7636C160.303 44.0374 159.224 41.5204 157.479 39.3321C155.882 37.3296 153.872 35.7764 151.834 34.2337C147.737 31.1333 143.797 27.7007 139.211 25.3025C134.811 23.0013 130.054 21.6123 125.124 20.9885C115.63 19.7871 105.657 21.7868 97.4125 26.5844C89.4153 31.2383 82.9863 38.4605 79.0081 46.6944C77.031 50.7862 75.5459 55.1046 74.7459 59.5704C73.7925 64.8938 73.8787 70.2321 73.9131 75.6151C73.9249 77.4244 73.9084 79.2326 73.8168 81.0374C73.6676 81.9134 73.5852 82.8004 73.5863 83.7512C71.7762 86.095 71.0397 89.2274 72.1741 92.1126C73.9837 96.7165 79.118 98.8101 83.7794 98.0069C83.988 99.2037 84.4908 100.383 85.1169 101.531C86.1873 103.492 87.3838 105.413 88.6538 107.255C91.2812 111.067 94.2794 114.522 97.8568 117.502C104.948 123.411 113.932 127.283 123.248 127.843C131.73 128.353 140.675 125.98 147.592 121.084C151.182 118.543 154.289 115.429 156.597 111.7C159.294 107.344 160.757 102.329 161.516 97.3165C163.183 86.3112 163.094 74.8953 162.506 63.8085Z" fill="white"/>
<path fill-rule="evenodd" clip-rule="evenodd" d="M95.6244 5.44341C95.3039 1.88897 98.6331 -0.78538 101.722 0.21008C102.289 0.279507 102.841 0.455526 103.333 0.751557C104.755 1.6061 105.066 2.98431 104.694 4.17566C105.362 4.67146 105.888 5.34353 106.152 6.15419C106.425 6.98938 106.396 7.79953 106.14 8.50541C107.109 9.13541 107.842 10.086 108.012 11.2636C108.093 11.8229 108.06 12.3776 107.925 12.8873C109.393 13.3774 110.59 14.4753 110.572 16.1367C111.424 16.1903 112.277 16.2022 113.146 16.1547C113.269 15.8107 113.421 15.4752 113.647 15.1662C114.102 14.5439 114.748 14.1163 115.463 13.8497L115.561 13.8144L115.56 13.6254C115.012 13.028 114.755 12.2743 115.339 11.4536C115.439 11.3129 115.561 11.1968 115.697 11.0972C115.745 10.741 115.824 10.3884 115.92 10.0418C115.436 9.37853 115.488 8.27803 116.3 7.9487C116.187 7.30193 116.18 6.63115 116.302 5.9552C116.803 3.18588 119.519 1.29974 122.318 1.40556C122.668 1.41872 123.009 1.4706 123.339 1.55319C124.02 1.62339 124.698 1.77334 125.365 1.99633C126.135 2.25391 126.333 2.88623 126.163 3.42074C127.208 4.7956 127.505 6.66341 126.452 8.34204C126.412 8.40579 126.368 8.46644 126.325 8.52761C126.536 8.68375 126.72 8.88971 126.856 9.15425C127.199 9.82013 127.114 10.6651 126.591 11.2208C126.452 11.3689 126.273 11.4802 126.076 11.5517L126.072 11.6064C126.004 12.4981 125.86 13.3921 125.588 14.2343C126.696 15.2468 127.432 16.6247 127.562 18.1095C127.975 18.1472 128.387 18.1913 128.799 18.2373C128.86 17.8303 129.111 17.4638 129.492 17.1799C129.811 16.9424 130.151 16.7525 130.5 16.6103C130.669 15.7568 131.081 14.9391 131.776 14.2903C132.035 14.0497 132.316 13.8376 132.617 13.6551C132.6 12.7299 132.81 11.8054 133.331 10.9299C133.764 10.2018 134.395 9.67379 135.114 9.33776C135.638 8.30023 136.61 7.45369 138.023 6.9726C139.079 6.61329 140.197 7.04032 141 7.71181L141.18 7.86663C141.917 8.50644 142.183 9.68205 141.911 10.589C141.783 11.0151 141.57 11.513 141.261 11.9174C141.588 13.3361 140.937 14.5197 139.94 15.1848C140.281 15.6618 140.567 16.1909 140.809 16.7558C141.227 17.7327 140.757 18.9491 140.003 19.7187C140.333 20.2365 140.547 20.8404 140.626 21.4469C140.962 21.4663 141.297 21.5251 141.626 21.6172C141.805 21.0205 142.141 20.4659 142.655 20.0129C142.88 19.5801 143.148 19.1772 143.447 18.825C143.918 18.269 144.53 17.8685 145.197 17.7053C145.285 17.4991 145.411 17.3017 145.569 17.1213C145.41 15.3126 146.628 13.445 148.504 13.4435C148.637 13.0218 148.799 12.6047 148.992 12.1956C149.372 11.3932 150.178 10.9126 151.052 10.7547C151.565 9.52461 152.573 8.63007 154.302 8.48089C158.167 8.14795 160.598 12.7585 159.654 16.0688C159.373 17.0521 158.716 17.957 157.844 18.5127C157.616 18.658 157.386 18.7635 157.153 18.8508C156.921 19.1705 156.607 19.4547 156.205 19.6862C156.116 19.7376 156.024 19.7838 155.929 19.8251C155.939 21.3024 154.902 22.5038 153.616 22.886C153.699 23.8175 153.457 24.7513 152.738 25.4729L152.687 25.5213L152.582 25.6135L152.573 25.6543C152.829 26.3026 152.802 27.0168 152.435 27.6045C152.467 28.1444 152.565 28.6722 152.749 29.1739C153.459 29.7394 154.086 30.389 154.647 31.0941C155.021 30.7607 155.586 30.6102 156.075 30.7924C156.21 30.747 156.35 30.7176 156.484 30.7044C156.707 30.6822 156.925 30.683 157.14 30.6985C157.239 30.5568 157.352 30.422 157.482 30.2958C158.395 29.4083 159.719 29.4266 160.77 29.9779C160.958 29.8429 161.171 29.7237 161.411 29.6238C164.091 28.5122 165.847 31.8583 166.108 33.944C166.251 35.0819 165.256 35.7836 164.234 35.8428C164.027 36.5326 163.361 37.0292 162.617 37.1977C162.749 38.05 162.174 38.9197 161.392 39.2439C161.043 39.3887 160.705 39.4282 160.387 39.3861L160.403 39.5879C160.464 40.3883 160.053 40.8977 159.49 41.1236C159.391 41.52 159.116 41.8075 158.771 41.9549C160.087 44.9549 161.126 48.098 161.964 51.1979C163.348 56.3154 164.278 61.526 164.901 66.7838C165.999 76.0269 166.042 85.4599 164.943 94.7068C164.384 99.4123 163.455 104.012 161.555 108.382C159.97 112.027 157.766 115.19 155.229 118.251C150.188 124.331 142.973 128.81 135.021 129.922C130.847 130.506 126.566 130.316 122.492 129.197C118.437 128.083 114.112 126.173 111.557 122.779C110.865 121.861 111.202 120.371 111.972 119.613C112.851 118.748 114.117 118.692 115.19 119.204C117.095 120.113 118.807 121.355 120.743 122.222C122.49 123.005 124.38 123.506 126.261 123.86C129.987 124.562 134.039 124.383 137.754 123.404C144.491 121.63 150.427 117.349 154.195 111.576C158.647 104.756 160.236 96.7633 160.964 88.7983C161.76 80.0805 161.677 71.2429 160.621 62.5498C160.097 58.2389 159.292 53.9667 158.338 49.7296C157.658 46.7128 156.892 43.7161 156.171 40.7096C155.517 40.0956 154.885 39.4615 154.276 38.8044L154.258 38.8031C154.181 38.8219 154.1 38.8361 154.014 38.8425C150.396 39.1141 146.474 38.7566 143.388 36.7048C142.133 35.8709 141.072 34.8153 140.282 33.5999C139.173 32.8435 138.162 31.889 137.403 30.7862C136.865 30.205 136.355 29.5977 135.87 28.9682C134.662 27.3995 134.021 25.7532 133.301 23.9432C133.284 23.9016 133.273 23.8608 133.265 23.8208C133.127 23.5991 133.029 23.3563 132.982 23.1111C131.376 22.9234 129.763 22.799 128.166 22.7242C127.6 22.6979 127.033 22.677 126.466 22.6589C126.615 23.2043 126.705 23.77 126.724 24.351C127.182 24.3711 127.649 24.4235 128.127 24.4986C130.368 24.8498 131.806 25.9793 133.167 27.749C134.492 29.4715 135.548 31.5432 136.333 33.5581C136.814 34.7918 136.172 36.1556 135.117 36.9497C132.379 37.1786 129.688 37.7578 127.167 38.9053C127.078 38.9458 127.014 39.0168 126.972 39.1004C124.959 39.6904 122.931 40.2301 120.904 40.6882C118.948 41.1305 116.972 41.3146 115.005 40.8265C114.16 40.6167 113.333 40.3059 112.519 39.9575C112.082 40.0096 111.609 39.9276 111.128 39.6561C110.399 39.2454 109.666 38.7964 108.944 38.3132C107.669 37.7113 106.414 37.0648 105.216 36.3259L105.21 36.3169C104.254 35.1764 102.891 34.0144 101.365 33.1346C101.196 32.8809 101.047 32.614 100.928 32.3288C100.272 30.7573 100.546 28.8565 101.931 27.7756C101.951 27.4026 102.116 27.0374 102.482 26.7445C102.771 26.5125 103.07 26.2921 103.375 26.082C103.311 26.0353 103.247 25.9901 103.183 25.9423C103.057 25.8487 102.936 25.7477 102.818 25.6437C101.894 26.1424 100.961 26.6304 100.007 27.065C99.9829 27.0823 99.9601 27.1007 99.9346 27.1169C98.1408 28.2755 96.443 29.6062 94.6269 30.7227C94.192 30.9899 93.759 31.249 93.3291 31.5089C93.1678 31.7254 93.0101 31.945 92.858 32.1688C92.793 32.5131 92.6941 32.8569 92.5713 33.1916C92.809 33.3777 93.0023 33.6229 93.1337 33.9135C93.6981 34.1249 94.2293 34.393 94.7247 34.7128L95.1641 34.9046C95.7288 34.4591 96.3255 34.0565 96.9665 33.7218C98.9786 33.8503 101.153 35.253 102.682 36.6831C102.789 36.8018 102.893 36.9216 102.993 37.0431C103.09 37.12 103.188 37.2019 103.285 37.2821C103.443 37.4496 103.591 37.6153 103.726 37.7766C103.878 37.9581 104.049 38.058 104.224 38.0998C105.16 38.9649 106.037 39.9384 106.637 40.9499C107.601 42.5738 106.926 44.598 106.22 46.1915C106.105 46.4516 105.984 46.7076 105.856 46.9608C104.507 48.7486 103.229 50.5865 101.951 52.4249C101.09 53.2438 100.235 54.0679 99.4166 54.9248C99.2826 55.013 99.1417 55.0977 98.987 55.1762C96.6063 56.3818 94.3038 55.0246 92.0356 54.1794L91.7823 54.0872C89.4449 53.2556 86.5354 52.709 86.3878 49.7142C86.3676 49.3061 86.3836 48.888 86.4248 48.4652C87.0003 46.9647 87.6597 45.4918 88.3949 44.057C88.2467 43.8993 88.1137 43.7246 88.0017 43.5298C87.7648 43.2345 87.5668 42.916 87.416 42.58C86.3304 44.6256 85.2964 46.8197 83.901 48.6144C83.132 49.6037 82.1741 49.9601 81.1575 49.9578C80.7286 50.1707 80.2486 50.2422 79.7865 50.1885L79.8353 50.736C79.8778 51.1926 79.9269 51.6487 79.9987 52.0963C80.9815 52.0806 82.0086 52.3457 82.9243 52.7021C85.6117 53.7476 88.2013 55.1955 90.7938 56.4506C92.0457 57.0566 93.7658 57.5645 94.7885 58.511C95.5722 59.237 95.4825 60.1362 95.1848 61.0715C95.1336 61.231 95.078 61.3892 95.0251 61.5479L95.0216 61.5998C94.1857 62.636 93.6131 63.8726 93.1977 65.1491C92.5189 66.2847 92.0454 67.5591 91.7228 68.808C91.4612 69.8228 91.2754 70.8583 91.1546 71.9035L91.1232 72.1888L91.1059 72.2223L91.097 72.4688C90.9249 74.3093 90.9454 76.173 91.1012 77.9984C91.1447 78.5066 91.1988 79.0156 91.2662 79.5227C90.974 80.4222 89.5867 80.5473 88.8678 79.9956C88.0762 79.3883 87.245 78.8362 86.3818 78.3381C85.2052 78.8656 83.8444 78.9557 82.5295 78.5234C82.4356 78.4927 82.3464 78.4555 82.2562 78.4204C81.2708 78.5407 80.2951 78.7668 79.3613 79.0344L79.0812 79.1159C77.5916 79.557 76.1718 80.1087 75.0503 81.229C73.0577 83.2191 72.4159 86.4357 72.8224 89.1286C73.2177 91.7485 74.7626 94.7427 77.5463 95.5043C78.6854 95.8161 79.9132 95.807 81.0208 95.3714C81.4415 95.2059 81.8022 94.9662 82.1573 94.7032C82.5933 94.38 82.9377 94.0164 83.4549 93.812C83.9273 93.6254 84.7433 93.6398 84.9738 93.629C85.6938 93.5947 86.3031 94.1493 86.515 94.7837C87.1613 96.7196 86.1908 98.1417 84.6315 99.0933C85.2875 100.07 85.9023 101.091 86.5518 102.014C87.7651 103.739 89.0464 105.407 90.3744 107.047C91.7375 108.732 93.1906 110.335 94.7746 111.822C95.4896 112.493 96.2269 113.142 96.9852 113.765L97.4041 114.106C98.1119 114.688 98.7312 115.28 98.7066 116.295C98.6932 116.864 98.3095 117.392 97.7411 117.543C95.7305 118.079 93.6231 115.485 92.3135 114.154L92.2104 114.051C90.6254 112.473 89.1511 110.778 87.8178 108.988C86.4437 107.144 85.3182 105.106 84.4109 103.004C83.9897 102.028 83.532 100.912 83.2081 99.7819C81.461 100.449 79.4321 100.687 78.0433 100.53C76.7615 100.386 75.5914 100.023 74.5346 99.4952C74.3185 99.9716 74.0279 100.415 73.6749 100.783C72.3655 102.15 70.46 102.541 68.6142 102.524C66.2505 102.503 64.1293 101.036 64.0435 98.5614C63.9879 96.9573 64.8325 95.5807 66.065 94.6423C66.5222 93.5319 67.3901 92.617 68.6478 92.3199C67.8155 89.7883 67.6689 86.9989 68.2942 84.443C68.9134 81.9126 70.3264 79.5158 72.4159 77.9367L72.5349 77.8482L72.4846 77.8746C71.991 78.1422 71.5094 78.431 71.021 78.7077L70.8016 78.8307C68.6325 80.0359 66.1203 81.0711 63.5945 80.4266C59.5859 79.4035 59.2392 74.484 62.688 72.5424C63.8799 71.8713 65.2572 71.6181 66.6169 71.4504C66.8317 71.1747 67.0872 70.9285 67.3691 70.7293C67.4111 69.8252 67.8733 68.9213 68.6908 68.3535C69.5244 67.7744 70.4607 67.7171 71.3326 67.9829C71.6576 67.7429 72.0098 67.5328 72.3972 67.3687C72.7335 67.2257 73.0745 67.1219 73.4162 67.0502C73.4102 66.7802 73.4071 66.5103 73.4029 66.24C73.348 65.9884 73.315 65.7246 73.2806 65.4503C73.219 65.4399 73.1566 65.4301 73.096 65.4172C72.2079 65.2262 71.4055 64.8342 70.707 64.3056C69.5899 65.0002 68.2339 65.2629 66.6216 64.7932C65.1247 64.357 63.7138 62.9865 63.0164 61.4119C62.0604 61.2227 61.1321 60.9479 60.3193 60.4265C58.8143 60.7785 57.1923 60.2092 56.5822 58.6761C56.1297 57.5395 56.6737 56.1654 57.6437 55.4608C57.9261 55.2556 58.2317 55.2941 58.4746 55.4528C58.532 55.2683 58.5994 55.0856 58.6823 54.907C58.7156 54.835 58.7518 54.7648 58.7886 54.6948C58.7524 53.1891 59.3076 51.7335 60.6967 50.9256C61.7278 50.3261 62.9574 50.2608 64.0656 50.6072C64.6744 50.0489 65.4455 49.6225 66.4031 49.3884C68.087 48.9765 69.8598 49.4463 71.0585 50.689C71.3179 50.6139 71.5865 50.5604 71.8614 50.5266C71.9613 49.8334 72.201 49.1667 72.701 48.6464C73.0598 48.273 73.4899 47.9757 73.9552 47.7671C74.1674 46.9817 74.5155 46.2787 75.0983 45.6902C74.8135 45.4536 74.5546 45.1872 74.3337 44.8909C74.0888 44.8507 73.8456 44.7988 73.6085 44.724C72.3416 44.3237 71.4682 43.538 70.8757 42.5588C69.7785 42.8352 68.6168 42.7341 67.4751 42.0292C66.6494 41.5195 66.027 40.7044 65.6986 39.7939L64.7609 39.4705C63.8773 39.1628 63.243 38.5883 62.8811 37.9046C62.4208 38.0675 61.9135 38.0616 61.5004 37.7477C59.0797 35.9091 60.7329 32.8626 63.3241 32.2576C64.3782 32.0116 65.2986 32.1518 66.117 32.5268C66.6992 31.9747 67.4297 31.5602 68.2656 31.3734C69.2406 31.1555 70.268 31.3153 71.1676 31.7386L71.4 31.7355C72.306 31.0735 73.4687 30.7769 74.8895 31.0967C76.4982 31.4588 77.5948 32.3448 78.3381 33.4988C78.5771 33.2864 78.8462 33.0992 79.1394 32.9421C79.9714 32.4966 80.86 32.3866 81.7112 32.526C81.9976 32.1244 82.2914 31.7283 82.594 31.3391C81.8751 30.7865 81.3836 29.9294 81.3576 28.9783C81.1404 28.8451 80.9301 28.6936 80.7289 28.5542C79.7445 27.8721 78.9099 27.0168 78.5304 25.867C78.341 25.2935 78.272 24.6958 78.2941 24.0965C78.1881 24.0738 78.0827 24.0495 77.978 24.0201C73.7945 22.836 72.0602 17.1623 75.3666 14.1174C77.103 12.5182 79.7424 13.4239 81.4599 14.6046C82.631 15.4099 83.5614 16.411 84.4044 17.5172C84.444 17.5252 84.4825 17.5278 84.5224 17.5373C85.7331 17.8189 86.696 18.5831 87.4073 19.5603C88.6637 19.3455 90.0011 19.5843 91.193 20.4424C92.062 21.068 92.6078 21.8423 92.8911 22.6837C94.02 22.104 95.1819 21.5958 96.369 21.147C96.4469 20.963 96.5282 20.7787 96.6224 20.5957C96.8055 20.2403 97.0442 19.9314 97.3217 19.6702C97.0195 19.3378 96.752 18.9664 96.5366 18.5532C95.5145 16.5932 95.8838 14.6095 97.0135 13.1087C96.5196 12.0144 96.3675 10.7735 96.6599 9.59301C96.7142 9.37389 96.7827 9.16329 96.8627 8.96068C96.1773 7.90948 95.738 6.69954 95.6244 5.44341ZM77.2804 84.7267C78.0057 84.553 78.1764 84.3253 78.9919 84.3909C79.6232 84.4417 80.2687 84.5481 80.8812 84.704C82.3419 85.0761 83.705 85.8282 84.9052 86.7137C86.6076 87.9698 84.5696 90.3043 83.2137 88.9647L83.1728 88.923C82.2616 87.9619 81.2389 87.2111 80.0938 86.5416C79.5133 86.2025 78.9142 85.9575 78.3076 85.6723C77.8882 85.4754 77.6458 85.153 77.2513 84.9479C77.1582 84.8993 77.18 84.7509 77.2804 84.7267ZM81.1842 65.8093C80.7835 65.6702 80.3234 65.9672 80.2161 66.35C80.101 66.7624 80.3452 67.1354 80.7233 67.2865L80.7659 67.3023C81.2792 67.4806 81.748 67.7769 82.1471 68.1396L82.2316 68.2183C82.9584 68.9131 84.0723 67.8193 83.3445 67.1232C82.727 66.533 81.9952 66.0906 81.1842 65.8093ZM100.011 37.6223C99.5967 36.7308 98.2749 37.4793 98.6337 38.3623L98.6517 38.4038C99.0248 39.2066 98.872 40.1383 98.4653 40.8945L98.4251 40.9672C97.9304 41.838 99.2894 42.6197 99.7841 41.7487C100.518 40.4561 100.64 38.9762 100.011 37.6223ZM111.439 26.524L111.421 26.4348C111.235 25.4564 109.718 25.8706 109.903 26.8462C110.212 28.4683 111.41 29.534 112.946 30.063C113.904 30.3929 114.315 28.8975 113.364 28.5697C112.346 28.2192 111.666 27.5549 111.439 26.524ZM136.239 24.9572L135.971 24.9459L136.175 25.2101C136.194 25.1252 136.215 25.0408 136.239 24.9572Z" fill="black"/>
<path fill-rule="evenodd" clip-rule="evenodd" d="M134.475 109.412C132.712 108.704 131.138 107.524 129.988 106.015C129.588 105.491 129.485 104.938 129.569 104.431C129.663 103.862 130.005 103.346 130.472 103C130.94 102.652 131.526 102.481 132.093 102.568C132.585 102.644 133.075 102.909 133.462 103.459L133.543 103.569C134.227 104.479 135.118 105.226 136.134 105.708C137.112 106.172 138.207 106.388 139.339 106.262C141.496 106.023 142.983 104.875 144.563 103.316C144.759 103.119 144.955 102.916 145.152 102.71C145.276 102.523 145.449 102.403 145.641 102.34C145.853 102.27 146.094 102.274 146.315 102.349C146.527 102.422 146.717 102.561 146.845 102.745C146.966 102.92 147.035 103.136 147.012 103.385C146.868 105 146.009 106.442 144.79 107.574C143.436 108.831 141.641 109.701 139.951 110.006C138.09 110.342 136.193 110.102 134.475 109.412ZM140.83 84.4909C142.81 85.6755 145.828 88.4379 143.697 91.3748C141.189 93.9644 137.578 90.9953 135.799 89.6524C134.149 88.6118 132.295 91.2883 133.826 92.5035C146.684 101.871 151.902 84.8006 141.831 83.098C140.722 82.9104 140.311 84.1244 140.83 84.4909ZM117.787 73.594C118.006 70.9212 122.143 70.3142 122.554 72.9591C122.923 75.3284 122.489 77.5049 121.405 79.638C120.368 81.6759 117.764 80.7252 117.567 78.8695C117.303 76.382 117.651 75.2567 117.787 73.594ZM149.279 72.4107C149.855 71.6674 150.688 71.16 151.686 71.4467C154.803 72.3431 153.884 76.6979 152.79 78.8176C152.195 79.9687 150.272 80.2606 149.403 79.247C147.987 77.5942 147.308 74.2935 149.109 72.6654C149.158 72.5813 149.212 72.4964 149.279 72.4107ZM121.361 61.8984L121.853 61.8136C123.376 61.5543 125.27 61.3052 126.348 62.5103C126.92 63.1493 127.116 64.3371 126.348 64.9488C124.997 66.025 123.503 65.6079 121.883 65.699C120.549 65.7744 119.266 65.9917 117.981 66.3533C115.161 67.1464 112.863 68.5943 110.454 70.1842C110.138 70.3927 109.815 69.995 109.966 69.7041C111.357 67.0243 114.051 64.8231 116.75 63.4813C118.191 62.765 119.767 62.1709 121.361 61.8984ZM146.437 60.698L146.814 60.7739C150.915 61.6175 156.244 63.3026 158.186 67.2668C158.26 67.8273 158.182 67.9475 158.119 68.0259L158.097 68.0521C158.045 68.1191 158.003 68.2115 157.756 68.2878C157.688 68.2717 157.619 68.2547 157.549 68.2367C156.658 68.0071 155.954 67.6908 155.272 67.3626L154.533 67.0042C153.675 66.5903 152.809 66.1915 151.892 65.8971C149.935 65.2689 147.922 64.8264 145.877 64.5901C145.434 64.5389 145.008 64.3918 144.671 64.1396C144.352 63.9002 144.107 63.5687 143.996 63.1282C143.852 62.558 143.893 62.1264 144.204 61.612C144.438 61.2258 144.772 60.958 145.157 60.8043C145.548 60.6476 145.994 60.6106 146.437 60.698Z" fill="black"/>
<path fill-rule="evenodd" clip-rule="evenodd" d="M163.8 94.9062C163.451 93.8784 161.652 93.968 161.762 95.1777C161.889 96.5598 161.408 98.1011 160.063 98.7721C158.654 99.4746 157.068 98.8431 156.209 97.6378C155.462 96.5902 154.946 95.4507 154.006 94.5371C153.132 93.6875 152.068 93.0322 150.905 92.6432C149.999 92.3405 149.059 92.2599 148.148 92.3593C145.877 91.8542 143.245 93.003 141.829 94.7456C141.738 94.8579 141.653 94.9733 141.571 95.0897C141.431 94.9018 141.284 94.7157 141.129 94.5322C140.727 94.0594 140.23 93.9579 139.78 94.0867C137.22 92.2132 133.632 91.9649 130.724 93.6557C128.395 95.0104 126.468 97.007 123.603 97.1624C121.334 97.2855 118.862 96.0116 118.702 93.5579C118.618 92.2767 116.844 91.2087 115.849 92.3949C113.756 94.8891 113.338 98.2023 114.495 101.218C115.717 104.4 118.206 106.642 121.358 107.96C124.761 109.384 128.75 109.879 132.431 109.766C136.102 109.653 139.439 108.264 141.652 105.31C141.916 104.958 142.148 104.599 142.352 104.237C144.5 106.928 147.867 108.06 151.297 108.141C154.885 108.226 159.127 107.606 161.664 104.864C164.108 102.221 164.952 98.2908 163.8 94.9062Z" fill="black"/>
</svg>
