<svg width="164" height="238" viewBox="0 0 164 238" fill="none" xmlns="http://www.w3.org/2000/svg">
<path fill-rule="evenodd" clip-rule="evenodd" d="M162.088 220.307C161.751 214.044 161.337 207.786 160.841 201.533C159.853 189.078 158.56 176.614 156.408 164.302C154.285 152.154 151.314 140.342 147.033 128.767C145.047 123.396 142.897 118.815 139.777 113.987C136.826 109.423 133.062 106.33 128.372 103.574C124.146 101.092 119.237 96.7846 115.184 94.0045C113.492 92.844 110.01 92.9214 108.85 91.2046C107.331 88.9564 108.316 85.5154 106.784 83.2747C105.033 80.7127 102.581 78.7224 99.8147 77.2766C96.7959 75.2316 93.2403 74.3058 89.6751 74.4333C84.418 74.1144 79.1232 75.7887 75.748 80.0694C74.0637 82.2057 73.0803 84.6705 72.9442 87.3996C72.9087 88.1096 73.1367 88.6692 73.5119 89.0733C73.2894 89.3709 73.068 89.6687 72.8481 89.9682C72.1577 88.9452 70.544 88.4016 69.4687 89.1737C65.9506 91.7 62.1484 93.7086 58.1354 95.1811C57.1965 94.7367 56.0599 94.9425 55.2556 95.6681C54.9292 95.9623 54.583 96.214 54.2211 96.4277C52.7331 96.8311 51.2221 97.1682 49.6887 97.4288C49.2087 97.5102 48.802 97.7828 48.4936 98.1504C48.0366 97.723 47.4085 97.5178 46.7071 97.7854C38.6082 100.874 30.9599 105.672 25.1464 112.172C18.7057 119.373 15.3229 128.331 12.7475 137.509C9.95965 147.444 8.17803 157.626 6.68162 167.826C5.16536 178.16 3.67191 188.535 2.62867 198.929C2.04155 204.778 1.81761 210.681 2.08338 216.556C2.21585 219.492 2.48395 222.419 2.91092 225.327C3.01043 226.007 3.11458 226.791 3.28233 227.573C2.77254 227.474 2.16536 227.905 2.26867 228.595C2.98824 233.401 8.79684 234.801 12.8029 235.355C19.3558 236.26 25.9427 236.762 32.5585 236.801C39.0599 236.838 45.5601 236.421 52.048 236.047C58.6995 235.664 65.3509 235.279 72.0022 234.889C98.6513 233.326 125.302 231.78 151.951 230.216C154.386 230.073 157.166 229.88 159.251 228.467C162.11 226.53 162.257 223.453 162.088 220.307Z" fill="white"/>
<path fill-rule="evenodd" clip-rule="evenodd" d="M32.1743 166.549C32.0818 166.376 32.2964 166.22 32.4388 166.345C35.674 169.185 37.3677 173.746 37.7229 177.962C38.0991 182.433 37.5657 187.062 37.3618 191.531C37.1349 196.508 36.931 201.488 36.6541 206.463C36.3729 211.511 36.0699 216.557 35.8102 221.606L35.2261 232.964C35.164 234.174 35.2986 235.663 34.8342 236.793C34.1146 238.544 31.9772 238.273 31.528 236.809L31.5139 236.761L31.4729 236.793C31.0766 235.474 31.3732 233.907 31.4404 232.543L32.0524 220.134C32.4848 211.363 32.8705 202.592 33.3349 193.823L33.4929 190.9C33.71 186.965 33.8765 183.04 34.0102 179.106L34.0536 177.794C34.1805 173.844 34.0798 170.116 32.1743 166.549ZM110.599 93.7362C112.401 93.565 113.762 94.1629 115.399 94.7927C116.111 95.0668 116.786 95.3836 117.47 95.7116C118.326 96.1223 118.877 96.8484 119.404 97.6161L119.686 98.0297C121.881 101.247 123.358 104.959 125.024 108.463C126.973 112.56 128.942 116.649 130.85 120.767L131.791 122.795C132.262 123.81 132.731 124.825 133.193 125.843L133.992 127.615C134.794 129.412 135.513 131.313 134.37 133.167C133.306 134.891 131.421 136.225 129.929 137.558C128.683 138.67 127.438 139.782 126.192 140.893C128.767 143.473 130.496 146.721 131.512 150.205C132.956 149.603 134.718 149.488 136.211 149.227C138.301 148.863 138.557 152.028 136.585 151.989C135.128 151.961 133.419 152.109 131.925 151.803C132.185 152.947 132.373 154.109 132.493 155.274C133.121 161.381 131.749 167.524 130.318 173.433L130.201 173.918C128.647 180.313 127.173 186.725 125.855 193.174C124.534 199.636 123.346 206.126 122.291 212.637C121.217 219.264 120.458 225.928 119.641 232.59C119.517 233.599 118.883 234.463 117.769 234.463C116.841 234.463 115.781 233.597 115.898 232.59C116.74 225.335 117.935 218.118 119.122 210.912C121.167 198.503 123.74 186.202 126.701 173.982L127.218 171.854C128.55 166.335 129.758 160.648 129.09 154.954C128.546 150.319 126.609 145.376 122.779 142.496L122.663 142.41C121.768 141.753 121.424 140.498 122.305 139.634C122.865 139.084 123.427 138.535 123.988 137.986L127.359 134.694L128.039 134.029C128.606 133.475 129.175 132.925 129.762 132.392C130.116 132.069 131.079 131.454 131.149 130.924C131.195 130.577 130.785 129.969 130.619 129.65L129.858 128.114C129.426 127.238 129.007 126.356 128.585 125.474C127.711 123.649 126.824 121.829 125.969 119.995L120.831 108.981C119.381 105.874 118.09 102.594 116.195 99.721L115.821 99.1611C115.509 98.6896 115.234 98.2357 115.037 97.659C114.847 97.1042 114.609 96.4951 114.259 96.0217C113.438 94.9106 111.87 94.2804 110.557 94.0477C110.367 94.0139 110.436 93.7518 110.599 93.7362ZM71.0806 90.8433C71.1947 90.8433 71.212 91.0063 71.1068 91.038C69.5231 91.5144 68.0098 92.2831 66.7752 93.3926C66.1845 93.9236 65.5898 94.5261 65.2251 95.2409C65.0855 95.5144 65.0083 95.8034 64.9517 96.1029L64.9336 96.2032C64.8395 96.7444 64.7048 97.0457 64.4299 97.4789L64.3828 97.5524C62.8137 99.9764 61.714 102.669 60.7086 105.365L58.5191 111.243L56.3309 117.121C55.6259 119.015 54.9205 120.91 54.2153 122.804C53.8257 123.849 53.4252 124.891 53.0248 125.932C52.8516 126.384 52.6652 126.831 52.5068 127.288C52.485 127.351 52.4157 127.727 52.3638 127.818L52.3815 127.849C52.8228 128.592 53.9998 129.212 54.667 129.752L56.9643 131.61C58.6023 132.935 60.2823 134.222 61.871 135.606C62.869 136.476 62.2481 138.032 61.1352 138.395C59.2701 139.003 57.4428 139.73 55.6057 140.418C54.8635 140.696 54.0908 140.937 53.3573 141.244L52.9108 141.437C52.7365 141.515 52.8203 141.514 52.8273 141.836C52.8343 142.174 52.93 142.526 52.9849 142.858C53.6037 146.601 54.2597 150.337 54.952 154.068C57.401 167.258 60.3269 180.352 63.6638 193.346C65.3493 199.908 67.1569 206.437 68.8794 212.989C70.5976 219.524 72.8584 225.965 75.0172 232.365C75.6262 234.169 72.7655 234.946 72.1714 233.149C69.6835 225.622 67.4075 218.03 65.0571 210.46C60.8812 197.009 57.5905 183.267 54.6801 169.491C53.2376 162.664 51.9182 155.81 50.7233 148.935C50.497 147.634 50.2751 146.331 50.0578 145.028L49.7411 143.111C49.524 141.745 49.4004 140.322 50.4619 139.241C51.4985 138.185 53.2779 137.811 54.6419 137.316L54.7409 137.28C55.6088 136.956 56.4831 136.644 57.3539 136.322C56.0711 135.312 54.8041 134.279 53.5245 133.269C52.4922 132.455 51.4437 131.657 50.4262 130.824C49.5873 130.136 48.9032 129.254 48.8157 128.136C48.7265 126.994 49.2158 125.934 49.6105 124.886L49.6483 124.785C50.0358 123.739 50.4243 122.694 50.8228 121.652L53.2883 115.202C54.855 111.103 56.3557 106.971 58.0036 102.904C58.6555 101.295 59.366 99.7108 60.2056 98.1895C60.6104 97.4559 61.0445 96.7379 61.5163 96.0455C62.0449 95.269 62.5247 94.8905 63.3438 94.4621C64.6534 93.7771 65.6812 92.6286 66.9964 91.9225C68.2872 91.2293 69.6152 90.8594 71.0806 90.8433ZM75.3322 83.5309C75.3823 83.4449 75.515 83.4832 75.5167 83.581C75.5509 85.618 75.0671 87.6996 74.7694 89.7138C74.4705 91.7351 74.3746 93.8687 73.9421 95.8685C73.9331 95.9617 73.9151 96.0535 73.8897 96.1436L73.869 96.2122C73.6865 96.7725 73.2117 97.2474 72.6293 97.3957C72.8124 98.4111 72.985 99.4281 73.1302 100.451C73.3795 102.208 73.607 103.968 73.8308 105.729L74.0986 107.842C74.3515 109.833 74.5974 111.825 74.8406 113.818C75.459 114.077 76.09 114.29 76.7363 114.475C78.2247 114.901 79.7492 115.074 81.2851 115.225C84.413 115.532 87.5649 115.674 90.7039 115.848L91.3763 115.886C94.9053 116.089 98.4536 116.125 101.974 115.762C103.719 115.583 105.451 115.281 107.153 114.854C108.018 114.637 108.859 114.313 109.722 114.101C110.008 114.03 110.264 113.868 110.551 113.695C110.678 113.534 110.857 113.412 111.09 113.365L111.153 113.354L111.215 113.344L111.237 113.335L111.235 113.341C111.412 113.318 111.58 113.318 111.738 113.339C111.801 111.786 111.869 110.233 111.955 108.68C112.184 104.508 112.818 100.157 111.972 96.0222C111.944 95.8831 112.133 95.8341 112.182 95.9643C113.843 100.342 113.656 105.128 113.74 109.735C113.822 114.24 113.772 118.749 113.75 123.255C114.072 123.393 114.36 123.579 114.588 123.84C115.043 124.362 115.174 125.27 114.588 125.774C114.328 125.997 114.041 126.152 113.736 126.26C113.719 130.174 113.692 134.09 113.652 138.005C114.397 138.58 114.466 139.945 113.624 140.513C113.484 153.191 113.254 165.87 113.063 178.547L112.663 205.143C112.61 208.686 112.521 212.23 112.49 215.773L112.515 215.783L112.603 215.824C112.752 215.894 112.974 216.007 113.02 216.123C113.032 216.153 113.035 216.174 113.034 216.19C113.278 216.224 113.52 216.339 113.729 216.538C114.246 217.029 114.141 217.769 113.729 218.27L113.619 218.404C113.363 218.715 112.875 218.835 112.477 218.772C112.481 220.983 112.495 223.195 112.489 225.406C112.486 226.082 112.476 226.757 112.464 227.433L112.437 229.052C112.418 229.976 112.336 231.151 111.39 231.566C110.322 232.035 109.365 231.651 108.933 230.566C108.816 230.273 108.841 229.999 108.884 229.708C108.87 229.272 108.802 228.766 108.811 228.361L108.846 226.673C108.851 226.412 108.862 226.152 108.869 225.892L108.838 225.895C105.045 226.079 101.225 225.989 97.426 225.987L95.7363 225.99C94.3264 225.991 92.9135 225.983 91.5056 225.929L90.9779 225.907C89.9239 225.857 88.8153 225.842 87.7227 225.747C87.8619 226.869 87.992 227.992 88.108 229.116C88.2179 230.182 87.1182 231.088 86.1373 231.088C84.9724 231.088 84.306 230.172 84.1666 229.116C83.5083 224.138 83.2389 219.113 82.61 214.131C82.0466 209.669 81.5582 205.197 81.0617 200.726L80.8958 199.236C79.0788 182.967 77.3147 166.692 75.6274 150.409L74.8417 142.797C74.0483 135.125 73.2502 127.453 72.5771 119.769C72.1922 115.377 71.8374 110.983 71.5036 106.586C71.2588 103.356 71.105 100.144 71.0048 96.9198C70.61 96.5133 70.412 95.9199 70.587 95.307C70.6892 94.9493 70.8081 94.5936 70.9336 94.2386C70.9258 93.8896 70.9176 93.5409 70.9108 93.1915C70.9045 92.861 71.24 92.6909 71.5085 92.7456C71.9965 91.5635 72.534 90.3916 72.9825 89.2209C73.7084 87.3259 74.3067 85.2841 75.3322 83.5309ZM34.791 104.011C42.3795 99.2536 51.4125 95.8301 60.4596 96.1987C60.6654 96.2072 60.7233 96.5208 60.5097 96.5684C55.6839 97.6462 50.8051 98.9592 46.2364 100.87C41.6545 102.786 37.2977 105.367 33.4173 108.468C26.2579 114.19 20.6931 121.632 17.0289 130.021C14.8826 134.936 13.3782 140.124 12.0645 145.314C10.6744 150.807 9.52869 156.359 8.57608 161.944C6.69453 172.977 5.59911 184.131 5.01622 195.304C4.42319 206.67 4.66763 218.044 4.24467 229.412C4.17157 231.382 1.35749 231.343 1.21446 229.412C0.25615 216.488 0.787066 203.357 1.67333 190.442C2.47023 178.832 3.86185 167.246 6.10277 155.822L6.29797 154.832C8.39287 144.263 10.9197 133.438 15.9842 123.867C20.308 115.696 26.9832 108.906 34.791 104.011ZM140.169 154.523C140.209 154.41 140.358 154.411 140.398 154.523C141.263 156.946 141.294 159.679 141.524 162.233L141.542 162.429C141.763 164.758 141.929 167.09 142.083 169.424L142.141 170.299C142.76 179.821 143.535 189.332 144.702 198.803C145.865 208.238 147.437 217.608 149.138 226.959C149.327 228 148.867 229.061 147.775 229.361C146.813 229.625 145.578 229.032 145.374 227.997C144.319 222.63 143.465 217.255 142.703 211.841C141.363 202.308 140.362 192.731 139.719 183.125C139.396 178.3 139.197 173.478 139.118 168.643C139.082 166.4 139.14 164.151 139.259 161.91L139.288 161.393C139.42 159.103 139.406 156.707 140.169 154.523ZM58.1704 215.169C58.2718 215.114 58.3973 215.226 58.333 215.331C56.8637 217.72 54.8759 219.78 52.9546 221.81C50.9461 223.932 48.9872 226.119 46.9381 228.199C45.4576 229.702 43.0759 227.278 44.6385 225.899C46.8354 223.96 49.1317 222.118 51.3678 220.223L52.3456 219.393C54.179 217.844 56.0668 216.308 58.1704 215.169ZM127.961 213.972C127.851 213.763 128.102 213.594 128.272 213.732C129.457 214.696 130.519 215.846 131.664 216.864C132.797 217.872 133.973 218.812 135.181 219.729C136.394 220.649 137.633 221.533 138.906 222.37C139.961 223.063 141.049 223.619 142.155 224.195C142.667 224.261 143.141 224.512 143.52 224.989C144.12 225.742 144.184 227.163 143.352 227.818L143.203 227.935C142.231 228.699 141.079 228.792 140.123 227.935C139.055 226.979 138.046 225.926 137.021 224.916L136.713 224.614C135.611 223.543 134.537 222.437 133.523 221.282L132.606 220.238C130.905 218.297 129.133 216.204 127.961 213.972ZM122.501 102.055C122.304 101.924 122.426 101.573 122.669 101.657L123.115 101.811C124.98 102.459 126.9 103.178 128.593 104.177C130.413 105.249 132.093 106.527 133.698 107.898C137.021 110.735 139.848 114.224 142.25 117.861C147.07 125.159 150.051 133.516 152.458 141.879C155.024 150.795 157 159.904 158.613 169.038C160.253 178.321 161.517 187.687 162.348 197.077C162.758 201.703 163.033 206.331 163.171 210.973C163.242 213.361 163.24 215.747 163.22 218.135C163.215 218.75 163.219 219.364 163.226 219.978L163.249 221.82C163.262 222.985 163.401 224.208 163.124 225.346C162.679 227.178 159.652 226.836 159.751 224.964C159.66 224.341 159.656 223.698 159.68 223.053C159.665 222.969 159.65 222.885 159.632 222.798C159.583 222.551 159.625 222.322 159.722 222.125C159.738 221.815 159.752 221.508 159.757 221.206C159.777 219.976 159.776 218.751 159.742 217.521C159.67 214.929 159.567 212.337 159.463 209.745C159.255 204.567 158.965 199.387 158.546 194.221C157.086 176.242 154.003 158.16 148.825 140.862C146.42 132.83 143.105 124.944 138.35 118.003C136.24 114.922 133.859 112.076 131.219 109.434C128.562 106.776 125.635 104.131 122.501 102.055ZM86.6729 217.959L87.0317 220.556C87.211 221.854 87.3886 223.153 87.5572 224.453C88.7025 224.296 89.8742 224.23 90.9779 224.132C92.9099 223.961 94.8553 223.878 96.793 223.798C100.8 223.633 104.827 223.346 108.838 223.366C108.88 223.366 108.919 223.369 108.957 223.372L109.156 218.249L106.338 218.245C103.95 218.241 101.563 218.221 99.1753 218.2C97.0248 218.182 94.8735 218.179 92.7234 218.134L91.802 218.112C90.1715 218.068 88.371 218.159 86.6729 217.959ZM109.393 210.524C109.278 210.537 109.161 210.548 109.036 210.554C108.478 210.577 107.916 210.561 107.357 210.566C106.168 210.576 104.978 210.584 103.789 210.584C101.41 210.584 99.0312 210.598 96.6527 210.627C94.2041 210.656 91.7572 210.699 89.3084 210.704C88.1219 210.706 86.9393 210.674 85.7532 210.641C85.9451 212.327 86.1455 214.012 86.367 215.693C88.2088 215.444 90.1897 215.57 91.9898 215.552L92.2235 215.549C94.6803 215.507 97.1393 215.538 99.5967 215.541C102.125 215.544 104.653 215.552 107.181 215.573L109.258 215.59L109.262 215.486C109.323 213.833 109.362 212.179 109.393 210.524ZM84.8395 202.457C85.0698 204.447 85.2859 206.441 85.5062 208.434C85.6527 208.411 85.801 208.392 85.952 208.376C87.1402 208.252 88.3258 208.145 89.5182 208.071C91.8952 207.924 94.2719 207.846 96.6527 207.783C99.1009 207.717 101.549 207.666 103.998 207.632C105.188 207.615 106.377 207.617 107.567 207.625C108.125 207.629 108.689 207.611 109.246 207.649C109.313 207.653 109.376 207.66 109.439 207.667L109.481 204.675C109.488 204.176 109.496 203.678 109.504 203.179C107.665 203.293 105.795 203.249 103.958 203.25L103.534 203.251C101.225 203.262 98.9154 203.23 96.6069 203.182C94.2253 203.132 91.8485 203.054 89.4711 202.902C88.5079 202.84 87.5517 202.758 86.5938 202.652L86.1147 202.598C85.6979 202.548 85.2686 202.509 84.8395 202.457ZM109.693 194.013C105.265 194.364 100.859 194.511 96.4189 194.555L95.7525 194.561C91.8284 194.591 87.872 194.753 83.9386 194.649C84.1738 196.688 84.4083 198.728 84.6447 200.767C85.2079 200.741 85.7739 200.741 86.3245 200.721C87.4444 200.681 88.5605 200.671 89.6811 200.668C91.9896 200.663 94.2981 200.683 96.6069 200.678C98.9862 200.673 101.365 200.633 103.744 200.588C105.673 200.552 107.622 200.407 109.556 200.412L109.693 194.013ZM109.881 185.311C109.368 185.481 108.762 185.492 108.097 185.523L106.383 185.608C105.588 185.647 104.794 185.684 103.998 185.713C101.349 185.81 98.6995 185.9 96.0496 185.985C93.3341 186.071 90.6056 186.121 87.8898 186.035C86.5594 185.993 85.2403 185.924 83.9139 185.813C83.586 185.785 83.2518 185.767 82.9169 185.744C83.2256 188.446 83.5355 191.148 83.8465 193.85C87.7611 193.37 91.7059 193.07 95.6156 192.573L99.1508 192.122C102.684 191.671 106.215 191.228 109.761 190.855L109.881 185.311ZM110.069 176.512C109.316 176.698 108.458 176.689 107.735 176.735L107.601 176.744C106.231 176.848 104.858 176.9 103.484 176.934C100.793 177 98.0995 177.033 95.4071 177.05L93.7881 177.06C91.6297 177.073 89.4726 177.078 87.3136 177.028C85.9288 176.996 84.5471 176.928 83.1633 176.858C82.7488 176.837 82.325 176.824 81.8999 176.802C82.1891 179.361 82.4813 181.919 82.7729 184.477C83.2275 184.405 83.6843 184.35 84.1197 184.276C85.235 184.088 86.3482 183.937 87.4715 183.803C89.9044 183.511 92.3501 183.301 94.7944 183.124C97.3039 182.942 99.8154 182.788 102.325 182.612L104.103 182.487C104.695 182.446 105.288 182.406 105.881 182.37C106.893 182.307 108.07 182.378 109.074 182.157C109.346 182.044 109.648 182.018 109.95 182.083L110.069 176.512ZM110.297 166.214C110.037 166.545 109.648 166.718 109.184 166.778C106.767 167.092 104.288 167.142 101.851 167.29L101.421 167.317C98.905 167.483 96.3872 167.613 93.8689 167.747C91.2819 167.885 88.6953 167.997 86.1062 168.087C85.0071 168.125 83.9024 168.13 82.8016 168.116L82.33 168.108C81.8779 168.101 81.4045 168.102 80.93 168.086C81.1926 170.479 81.4577 172.871 81.7267 175.263C82.2105 175.21 82.6941 175.17 83.1633 175.12C84.5462 174.974 85.9275 174.83 87.3136 174.72C89.9401 174.513 92.5685 174.389 95.1998 174.259C97.892 174.125 100.586 174.036 103.278 173.911C104.584 173.85 105.889 173.774 107.19 173.654C108.103 173.57 109.186 173.259 110.138 173.373C110.19 170.987 110.244 168.6 110.297 166.214ZM110.51 156.988C110.469 157.052 110.42 157.114 110.362 157.172C109.298 158.223 107.987 158.142 106.577 158.252L106.49 158.259C105.108 158.376 103.726 158.486 102.342 158.586C99.5771 158.786 96.8063 158.925 94.037 159.05C91.2029 159.177 88.3505 159.265 85.5136 159.207C83.697 159.17 81.7943 159.176 79.9412 158.999C80.2258 161.634 80.5121 164.269 80.8005 166.903C81.3215 166.805 81.8458 166.73 82.3425 166.652C83.5943 166.455 84.8473 166.257 86.1062 166.112C88.622 165.822 91.1384 165.551 93.6591 165.306C95.8147 165.097 97.9696 164.885 100.127 164.694L101.421 164.582C103.995 164.365 106.602 164.008 109.184 163.955C109.609 163.947 110.091 164.178 110.334 164.544C110.391 162.025 110.451 159.507 110.51 156.988ZM110.688 149.52C110.031 149.6 109.323 149.554 108.717 149.574C107.183 149.624 105.649 149.671 104.115 149.716L94.9123 149.988C91.779 150.08 88.6347 150.15 85.5001 150.105C84.1212 150.086 82.7363 150.084 81.3579 150.009L80.8987 149.981C80.3315 149.943 79.6353 149.938 78.9555 149.869L79.7581 157.305C81.6021 157.039 83.5025 156.939 85.3309 156.783L85.7215 156.748C88.4181 156.503 91.1277 156.34 93.8291 156.157C96.6003 155.969 99.3675 155.742 102.135 155.508C103.518 155.392 104.901 155.276 106.283 155.149L106.454 155.132C107.759 154.996 108.987 154.706 110.143 155.476C110.313 155.588 110.445 155.739 110.536 155.907C110.586 153.778 110.636 151.649 110.688 149.52ZM110.903 140.841C105.298 141.067 99.6927 141.238 94.0837 141.313C90.9265 141.355 87.7734 141.326 84.6166 141.26C83.2478 141.231 81.8676 141.165 80.4998 141.06L79.9875 141.019C79.3372 140.965 78.654 140.925 77.9737 140.859C78.2549 143.416 78.5338 145.974 78.8105 148.531C79.4797 148.407 80.1791 148.35 80.7655 148.274L80.8987 148.257C82.3558 148.056 83.8267 147.939 85.291 147.81C88.1422 147.559 91.0077 147.397 93.8665 147.26C96.7941 147.119 99.7231 146.999 102.651 146.869L105.579 146.738C106.067 146.716 106.555 146.695 107.043 146.674C107.741 146.645 108.438 146.617 109.135 146.588C109.479 146.574 109.836 146.527 110.181 146.545L110.279 146.532C110.324 146.526 110.364 146.521 110.401 146.517C110.494 146.446 110.595 146.387 110.702 146.342L110.767 146.317L110.903 140.841ZM77.0547 132.616C77.315 134.918 77.5723 137.22 77.8262 139.523C78.6257 139.432 79.4346 139.381 80.1979 139.312C81.737 139.174 83.2833 139.054 84.827 138.982L87.9123 138.839C89.969 138.744 92.0255 138.652 94.0837 138.577C99.7165 138.371 105.349 138.136 110.979 137.848C111.018 136.286 111.059 134.725 111.101 133.163C110.831 133.453 110.44 133.643 109.928 133.642C104.018 133.626 98.1029 133.66 92.1935 133.563C89.2355 133.514 86.281 133.442 83.3264 133.291C81.8807 133.216 80.4269 133.065 78.9922 132.866C78.3804 132.781 77.7109 132.721 77.0547 132.616ZM76.1088 124.414C76.3867 126.772 76.6592 129.13 76.9273 131.489C77.6612 131.358 78.4195 131.288 79.1042 131.195C80.5755 130.995 82.0558 130.836 83.5377 130.752C86.421 130.589 89.3061 130.507 92.1935 130.445C98.1024 130.32 104.017 130.321 109.928 130.274C110.483 130.27 110.895 130.489 111.166 130.817C111.207 129.345 111.25 127.872 111.294 126.4C110.724 126.34 110.158 126.254 109.634 126.218C108.024 126.105 106.414 126.002 104.803 125.91C101.441 125.717 98.0765 125.552 94.7124 125.406C91.3476 125.26 87.9817 125.116 84.6158 124.992L83.1437 124.938C80.803 124.851 78.4225 124.741 76.1088 124.414ZM75.0504 115.533C75.3396 117.921 75.6244 120.31 75.9086 122.699L75.995 123.438C78.8101 122.891 81.7769 122.73 84.6158 122.61C87.9823 122.466 91.3429 122.393 94.7124 122.403C98.0786 122.413 101.44 122.493 104.803 122.632C106.484 122.701 108.164 122.781 109.844 122.873C110.305 122.898 110.847 122.884 111.404 122.892C111.416 122.517 111.427 122.142 111.44 121.767C111.491 120.246 111.541 118.726 111.593 117.205C110.457 117.789 108.98 118.025 107.838 118.273L107.708 118.302C105.823 118.726 103.898 119 101.974 119.168C98.195 119.498 94.3769 119.374 90.6018 119.055L89.9405 118.999C86.6254 118.711 83.1886 118.346 79.9748 117.526C78.444 117.135 76.8614 116.588 75.4896 115.795C75.347 115.713 75.1998 115.626 75.0504 115.533ZM106.97 87.1542C107.003 87.025 107.196 86.9956 107.26 87.1163C107.706 87.9647 107.872 88.983 108.182 89.892C108.516 90.8693 108.827 91.8537 109.195 92.8192C109.964 94.8363 110.871 96.7746 111.952 98.6432C113.023 100.493 110.025 101.814 109.237 99.7885C108.423 97.6982 107.754 95.5369 107.35 93.3281C107.152 92.2504 106.976 91.158 106.919 90.063C106.87 89.1225 106.738 88.0716 106.97 87.1542Z" fill="black"/>
<path fill-rule="evenodd" clip-rule="evenodd" d="M125.367 33.6513C123.455 25.5875 119.274 18.0833 112.582 12.0185C92.4419 -7.90041 55.4567 2.91121 55.6242 32.9276C54.9019 36.4335 54.6087 40.0383 54.8478 43.6137C54.9467 45.1392 55.6067 47.2682 54.72 48.6411C52.72 51.2096 51.5576 53.1029 52.2383 56.5196C52.807 59.5028 54.8364 61.6163 57.5753 62.7398C59.2179 63.2114 60.7764 64.2385 61.3849 65.8042C65.0411 72.5006 67.7497 78.0705 73.5138 82.6342C75.0011 83.8091 90.2558 90.856 95.2821 90.856C109.997 90.856 128.543 85.5236 128.851 69.0806C128.905 65.469 128.271 61.8154 127.874 58.2324C126.906 50.0556 127.247 41.5828 125.367 33.6513Z" fill="white"/>
<path fill-rule="evenodd" clip-rule="evenodd" d="M125.036 29.6179C125.04 29.5182 125.183 29.4958 125.211 29.5943C125.758 31.5355 126.068 33.5131 126.496 35.4846C126.907 37.3836 127.296 39.2881 127.62 41.2037C128.231 44.8192 128.746 48.444 129.224 52.0784L129.343 52.9872C130.175 59.382 131.549 66.044 130.348 72.4762C129.322 77.9647 125.885 82.3883 121.455 85.6315C117.26 88.7022 112.174 90.6728 107.125 91.7932C101.705 92.996 95.2805 93.3549 90.8707 89.3789C89.1054 87.7868 91.5119 84.628 93.4271 86.0647C97.9241 89.4376 103.645 88.4433 108.719 87.1012L108.873 87.0604C113.327 85.8737 117.81 84.0749 121.346 81.0403C125.255 77.6851 127.188 73.0287 127.411 67.9216C127.536 65.0523 127.269 62.1863 126.98 59.3339L126.948 59.017C126.617 55.755 126.27 52.4945 125.949 49.2313C125.657 46.2556 125.405 43.2626 125.271 40.2736L125.209 38.7661C125.08 35.7266 124.905 32.6428 125.036 29.6179ZM72.2943 4.3633C79.6122 0.552017 88.0223 -0.812037 96.1662 0.467055C103.995 1.69669 111.181 5.73813 116.551 11.5331C119.173 14.3625 121.501 17.6353 122.988 21.2107C123.727 22.9869 124.305 24.8398 124.613 26.7428C124.772 27.7211 124.927 28.7347 124.957 29.7266C124.985 30.6449 124.715 31.5062 124.747 32.4397C124.752 32.5857 124.528 32.6139 124.494 32.4739C124.24 31.433 123.627 30.646 123.242 29.6573C122.955 28.919 122.629 28.1983 122.297 27.4798L122.012 26.8641C121.184 25.0746 120.195 23.3586 119.216 21.6488C117.245 18.2051 114.716 15.0754 111.755 12.4346C106.556 7.79795 99.886 4.80502 92.9246 4.26608C85.699 3.70642 78.3701 5.42935 72.1994 9.24591C66.0291 13.0623 61.3635 18.9949 58.9411 25.8255C57.7189 29.2724 57.0439 32.8639 56.887 36.5156C56.8075 38.3641 56.8817 40.228 57.0112 42.0728L57.0755 42.9526C57.1509 44.0076 57.2025 45.0586 57.045 46.0881C58.1579 45.7408 59.3246 45.5969 60.4954 45.7687C62.2352 46.024 63.2746 46.7376 64.055 48.2927C64.0958 48.3738 64.0141 48.455 63.9331 48.4146C62.9214 47.9095 61.2845 48.1754 60.2129 48.4402C59.0979 48.7158 58.0935 49.1951 57.146 49.8431C55.3931 51.0413 54.019 52.898 53.6818 55.0282C53.3558 57.0859 54.2003 59.1694 55.6187 60.6442C56.3489 61.4038 57.2216 62.0604 58.1987 62.4696C59.3846 62.9665 60.5584 62.9511 61.6075 63.7713C62.2561 64.2784 62.0993 65.146 61.6595 65.709C63.8729 68.137 65.8358 70.7932 68.0491 73.2307C69.075 74.3606 70.0927 75.4917 71.0757 76.6579L71.4427 77.097C72.4242 78.282 73.9859 79.5338 74.4344 81.0243C74.7135 81.9515 73.721 83.1642 72.7177 82.7417C71.1786 82.0934 70.08 80.4068 69.04 79.1131L68.9723 79.0293C67.8817 77.6887 66.9135 76.2735 66.0283 74.7905L65.7372 74.3019C64.1365 71.6088 62.5496 68.8158 61.5289 65.8571C61.4615 65.9265 61.3901 65.9897 61.3149 66.0431C59.8445 67.0891 57.7069 66.2849 56.2384 65.6056C54.852 64.9646 53.581 64 52.5904 62.8374C50.4359 60.3092 49.4427 57.035 50.1623 53.7537C50.7718 50.9743 52.6975 48.2707 55.2222 46.8648C54.0568 45.5227 53.5743 43.7136 53.2531 41.9448C52.8433 39.6869 52.7615 37.373 52.8729 35.0835C53.0949 30.5232 54.2681 26.028 56.0816 21.8521C59.3262 14.3802 65.0626 8.13019 72.2943 4.3633ZM56.8926 54.2232C58.4285 53.9353 59.8598 53.8658 61.3413 54.5159C62.9482 55.2216 64.0791 56.3865 65.1303 57.7514C66.3265 59.304 63.2609 61.0001 62.4879 58.939L62.4652 58.8754C62.2582 58.2652 61.8874 57.6754 61.4177 57.1324C61.2768 57.3484 61.0884 57.5386 60.867 57.6475C60.5989 57.7793 60.1894 57.688 60.125 57.3454C60.0536 56.9652 60.1326 56.5045 60.3519 56.1826L60.3819 56.1386C59.3163 55.2808 58.0345 54.6541 56.8926 54.4525C56.7785 54.4322 56.7798 54.2443 56.8926 54.2232Z" fill="black"/>
<path fill-rule="evenodd" clip-rule="evenodd" d="M93.9436 65.5377C93.9879 65.4967 94.0581 65.4824 94.1115 65.516C95.0257 66.0942 95.1338 68.0389 95.1442 69.162C95.5224 69.2605 95.8959 69.3725 96.2491 69.4507C96.9992 69.6167 97.7535 69.7615 98.5062 69.9142L99.0704 70.0306C100.956 70.4282 102.877 70.7224 104.799 70.8697C106.664 71.0126 108.583 71.0648 110.443 70.8245C111.242 70.7211 112.035 70.5486 112.807 70.3185C113.719 70.0463 114.446 69.595 115.294 69.1998C117.419 68.2101 119.199 71.1104 117.154 72.3832C115.4 73.4752 113.006 73.869 110.98 74.038C108.91 74.2107 106.847 74.0211 104.802 73.6935C102.59 73.3391 100.424 72.7949 98.3271 72.0057C97.4404 71.6721 96.5822 71.2676 95.7443 70.8253L95.5162 70.7038C95.377 70.629 95.2319 70.5531 95.0859 70.4762C94.9289 71.8768 94.4766 73.2296 93.93 74.5301L93.9171 74.5072C93.6182 75.5331 92.5382 76.1678 91.4637 75.7147C90.2025 75.1832 90.1067 73.7879 90.8405 72.7975L90.8755 72.7513C91.7383 71.6409 92.279 70.2633 92.7488 68.9502C92.9899 68.2771 93.213 67.5876 93.4065 66.899C93.5466 66.4009 93.5517 65.8998 93.9436 65.5377ZM126.443 54.3843C125.696 56.6443 124.065 58.3848 121.794 59.15C119.543 59.9085 117.04 59.632 114.739 59.2219C114.236 59.1322 113.726 59.0332 113.216 58.9176C113.633 59.1759 114.001 59.5394 114.354 59.9237C114.874 60.492 115.347 61.0908 115.49 61.8021C115.632 62.5078 115.408 63.0448 115 63.45C114.371 64.0734 113.358 64.4091 112.499 64.5947C110.576 65.0105 108.65 64.9458 106.736 64.5196C106.248 64.4108 105.916 64.1487 105.73 63.8069C105.505 63.3916 105.486 62.8753 105.616 62.405C105.745 61.935 106.025 61.5016 106.431 61.2618C106.766 61.0643 107.184 61.0102 107.659 61.1682C108.612 61.4853 109.558 61.6955 110.564 61.7198C110.99 61.7296 111.419 61.717 111.844 61.6779C112.085 61.6558 112.325 61.6252 112.564 61.5869C112.423 61.3997 112.287 61.209 112.153 61.0163C111.995 60.7886 111.842 60.5579 111.695 60.3234C111.272 59.6444 110.919 58.9463 110.608 58.2095C110.509 57.9735 110.417 57.7364 110.328 57.4986C110.315 57.4643 110.303 57.43 110.29 57.3956C110.263 57.3728 110.236 57.3497 110.209 57.3264C109.602 56.8015 109.094 56.1547 108.734 55.3537C107.76 53.184 107.918 50.4908 108.509 48.2379C108.983 46.4321 110.028 44.7618 111.409 43.6271C111.651 43.2302 111.81 42.9894 112.005 42.7867C112.799 41.9606 113.906 41.4034 114.987 41.0645C117.401 40.3072 120.03 40.8505 122.077 42.2924C123.966 43.6237 125.445 45.6203 126.244 47.841C127.001 49.944 127.149 52.2507 126.443 54.3843ZM93.5616 40.6492C96.4325 40.6247 99.3535 41.4726 101.683 43.1696C103.912 44.7934 105.662 47.1907 105.66 50.0463C105.657 52.8266 104.172 55.5602 102.524 57.7128C100.675 60.1294 98.2579 61.2945 95.219 61.3214C93.6394 61.3355 92.0482 61.1955 90.4799 61.0034L89.6385 60.8972C88.4799 60.7477 87.3092 60.5708 86.2109 60.1725C80.9833 58.2756 80.8215 51.4304 82.7576 47.0548C84.2525 43.6766 88.0361 40.3821 91.8089 40.7775C92.3774 40.6978 92.9612 40.6545 93.5616 40.6492ZM98.4104 43.8683C94.8152 42.254 90.4471 42.7374 86.9597 44.4601C85.5782 45.9678 84.5686 47.8681 84.16 49.6126C83.7237 51.4748 83.7875 53.4807 84.4435 55.2856C85.2444 57.489 87.2166 58.0347 89.344 58.3733L90.17 58.503L90.5165 58.5555C92.607 58.8675 94.8924 59.1101 96.9013 58.7197C99.1402 58.2841 100.562 56.4747 101.681 54.6196L101.733 54.5326C102.896 52.5888 103.868 50.2249 102.894 47.9977C102.065 46.1046 100.255 44.6964 98.4104 43.8683ZM119.63 44.4308C118.396 43.7468 116.989 43.6226 115.657 44.0804C115.084 44.2773 114.588 44.5965 114.108 44.9543L113.917 45.0993C113.326 45.5528 112.775 45.7825 112.332 46.395L112.274 46.4771C112.051 46.811 111.66 46.9446 111.304 46.9002C110.888 48.0451 110.717 49.2832 110.714 50.502L110.714 50.6635L110.716 50.8283C110.743 52.269 110.994 54.0315 112.127 54.997C113.161 55.8776 114.726 56.089 116.123 56.2116L117.2 56.3014L117.486 56.323C118.958 56.4255 120.572 56.3906 121.806 55.5184C122.881 54.7588 123.388 53.4696 123.52 52.1966C123.83 49.1893 122.309 45.9155 119.63 44.4308ZM92.7742 44.7086C94.754 43.6975 97.1323 43.9509 98.8093 45.2182C98.6604 45.2473 98.5137 45.2845 98.3675 45.3579C97.987 45.5487 97.7509 45.9308 97.6609 46.3375C97.5594 46.7972 97.7975 47.2323 98.2511 47.3773C98.6458 47.5033 99.1137 47.561 99.4803 47.3211C99.6723 47.1956 99.8065 47.0301 99.8946 46.8217L99.907 46.791L99.9225 46.7685L99.9284 46.758C99.9298 46.754 99.9228 46.7616 99.9119 46.7788C99.9231 46.7528 99.9335 46.7268 99.9438 46.7004C99.9592 46.6689 99.974 46.6372 99.9861 46.6044C100.007 46.586 100.027 46.5655 100.046 46.545C100.351 47.014 100.59 47.5436 100.742 48.1329C101.717 51.915 97.7198 55.84 94.1487 56.2327C92.7992 56.3811 91.5685 56.0596 90.5473 55.426C90.5566 55.4135 90.5669 55.4023 90.5754 55.3892C90.9856 55.4629 91.4754 55.2793 91.6243 54.8215C92.0044 53.6538 91.6146 52.2878 90.3428 51.9063C89.5243 51.6608 88.6868 51.9321 88.1018 52.4918C87.6594 51.4086 87.5012 50.1891 87.7106 48.9677C88.0059 47.2446 89.0449 45.6918 90.662 44.9749C91.4494 44.6255 92.128 44.5522 92.7742 44.7086ZM113.624 47.0421L113.684 46.9471C114.296 46.0053 115.465 44.8499 116.677 45.1676C116.847 45.2122 117.014 45.2841 117.165 45.3773C117.831 45.2868 118.528 45.4381 119.1 45.7905L119.085 45.83C119.082 45.8366 119.08 45.8433 119.078 45.8503C119.026 46.0794 119.057 46.2911 119.163 46.5016C119.279 46.7297 119.445 46.9459 119.669 47.0767C119.822 47.1663 120.003 47.2135 120.18 47.2099C120.44 47.2052 120.668 47.0909 120.856 46.9163C120.958 46.8216 121.029 46.6828 121.068 46.5399C121.161 46.6287 121.251 46.7276 121.336 46.8398C122.741 48.6883 122.547 51.6586 120.899 53.3063C120.832 53.3726 120.761 53.4327 120.692 53.494C120.022 54.4157 118.991 55.0413 117.752 55.1679C116.604 55.2852 115.457 54.9457 114.577 54.25C114.648 54.2123 114.714 54.1635 114.771 54.0988C114.922 53.9287 115.045 53.7609 115.136 53.5531C115.159 53.5009 115.182 53.4482 115.202 53.3951L115.233 53.3149C115.238 53.3002 115.285 53.1651 115.273 53.1888L115.27 53.1943L115.286 53.1553C115.444 52.7622 115.38 52.3127 115.007 52.0661L114.965 52.0405C114.843 51.9693 114.692 51.9357 114.539 51.9353C114.157 51.468 113.589 51.3608 113.056 51.4973L113.038 51.3465C113.035 51.3213 113.032 51.2961 113.031 51.2708C112.618 49.901 112.817 48.3444 113.624 47.0421ZM95.2862 33.2515L95.4234 33.2301C96.4603 33.0802 97.1654 33.2528 97.8396 34.1393C98.1609 34.5618 98.0619 35.1999 97.8396 35.6317C97.1217 37.0268 95.1468 36.7383 93.8166 37.0154C92.518 37.2857 91.2225 37.6537 90.0073 38.1892C88.7674 38.7358 87.6035 39.3823 86.4685 40.1206C85.442 40.7886 84.5109 41.7928 83.3382 42.1814C83.2854 42.199 83.2218 42.1516 83.225 42.0956C83.3086 40.7614 84.4226 39.5366 85.2854 38.5864C86.2835 37.4876 87.4972 36.512 88.7612 35.7363C90.0656 34.9361 91.4756 34.2774 92.9354 33.8179C93.7043 33.5759 94.4908 33.3836 95.2862 33.2515ZM111.084 35.0631C112.39 33.1531 115.635 33.5194 117.551 34.0298C119.952 34.6694 122.554 35.963 124.238 37.8356C125.746 39.5131 123.489 41.6925 121.793 40.2809L121.341 39.9054L121.051 39.6674C119.749 38.6036 118.459 37.6408 116.873 36.9315C115.012 36.1002 113.127 35.6953 111.161 35.2523C111.084 35.2349 111.038 35.1301 111.084 35.0631Z" fill="black"/>
<path fill-rule="evenodd" clip-rule="evenodd" d="M91.2805 77.8176C92.991 73.8089 96.7242 70.8627 101.022 69.7856C104.179 68.9966 107.491 69.0218 110.709 69.3349C112.395 69.4978 114.203 69.6313 115.792 70.2576C117.148 70.7927 118.254 71.804 119.085 72.9911C120.075 74.3979 120.748 76.008 121.22 77.6583C121.287 77.8929 121.35 78.1293 121.409 78.3669C121.204 79.612 120.767 80.6718 119.615 81.4546C118.49 82.219 117.147 82.5318 115.809 82.6428C115.678 82.5798 115.551 82.515 115.435 82.4486C113.35 81.2545 111.882 78.4325 109.25 78.8144C106.902 79.1554 105.355 82.1118 103.959 83.8454C99.4752 84.368 94.9951 83.0203 91.3472 80.4556C91.1619 79.5777 91.1511 78.6925 91.2805 77.8176ZM124.457 74.7766C124.098 73.7697 123.646 72.7946 123.111 71.8759C121.34 68.8379 118.623 66.4173 115.397 65.0335C107.766 61.7647 97.8913 64.069 91.7284 69.4301C89.6232 71.2628 87.4945 73.9559 86.8508 76.8528C86.6586 76.8909 86.4771 76.991 86.3278 77.1319C81.8751 74.3275 77.2897 71.6292 73.7017 67.7417C71.096 64.9172 69.2836 61.5745 68.1738 57.9013C68.0831 57.599 67.5957 57.6432 67.6105 57.9777C67.6147 58.056 67.6189 58.134 67.6231 58.2123C67.5767 58.0685 67.3573 58.1425 67.3404 58.2821C66.7433 62.7443 65.9964 67.4751 66.6842 71.9606C67.0956 74.637 68.3109 76.5964 69.9355 78.7122C71.6762 80.9801 73.6468 83.0895 75.6617 85.1124C76.9403 86.3964 78.2759 87.8774 79.8414 88.819C81.6622 89.9128 83.7278 90.7445 85.671 91.5885C87.6479 92.4496 89.6544 93.2451 91.6989 93.9349C95.7857 95.3186 100.01 96.2749 104.307 96.6938C107.749 97.0281 111.681 97.3922 114.979 96.0972C117.507 95.1049 119.547 93.3109 121.165 91.1526C122.927 88.802 124.32 86.1245 125.09 83.301C125.89 80.3682 124.625 75.2495 124.457 74.7766Z" fill="black"/>
</svg>
