<svg width="166" height="238" viewBox="0 0 166 238" fill="none" xmlns="http://www.w3.org/2000/svg">
<path fill-rule="evenodd" clip-rule="evenodd" d="M78.4144 89.8605C83.6295 85.8878 96.7224 84.1012 102.288 87.9265C107.786 91.7678 108.385 97.9796 110.947 103.694C113.364 102.554 117.356 104.187 118.057 106.431C118.926 107.489 118.965 110.462 119.564 111.885C145.644 116.037 149.603 136.377 152.742 159.469C156.895 182.901 166.322 206.282 162.229 230.395C162.762 231.166 163.183 231.917 163.572 232.808C164.503 234.393 163.303 236.638 161.424 236.551C158.992 236.337 156.585 236.045 154.141 235.954C147.368 235.719 140.589 235.747 133.813 235.833L132.889 235.845C98.7413 236.27 64.5954 237.108 30.4461 237.331C29.2072 237.333 28.6006 236.221 28.7661 235.125C29.0992 232.917 29.4083 230.708 29.7309 228.5C21.6537 230.634 13.067 231.171 5.01262 228.724C4.44917 228.15 6.32543 228.461 6.62311 228.374C-0.789425 223.307 1.42424 212.632 2.08086 204.944C6.16381 178.599 7.60318 149.45 23.3783 126.969C30.2029 117.795 40.2083 110.531 51.7053 108.897L52.0243 108.853C55.386 108.405 59.1325 108.26 62.0718 106.431C65.3775 103.791 66.7862 98.9125 70.264 98.8668C71.4124 98.8517 72.9746 100.305 74.6557 101.292C74.7812 99.1211 75.9506 97.2893 76.2087 95.6062L76.2297 95.4623C76.4991 93.5 76.1301 91.7347 78.4144 89.8605ZM134.461 160.165C127.132 155.072 108.2 157.631 107.766 157.916C106.812 158.544 106.401 158.6 105.885 159.415C105.376 159.483 104.866 159.553 104.358 159.625C103.337 159.959 104.093 161.214 105.272 160.766C104.563 163.826 106.65 166.001 107.481 169.025C107.75 170.007 107.49 171.774 107.481 172.777C107.561 174.056 108.975 175.567 108.739 176.851C107.902 181.414 103.356 185.865 105.272 190.29C106.542 192.789 110.361 194.063 112.9 194.913C118.16 196.932 127.326 194.837 130.382 190.29C132.012 187.864 133.901 181.746 134.873 179.848L135.089 176.838C135.62 169.355 136.093 161.299 134.461 160.165Z" fill="white"/>
<path fill-rule="evenodd" clip-rule="evenodd" d="M68.9871 98.4255C69.4931 97.9773 70.2418 98.5405 69.9203 99.146C69.1978 100.507 68.4566 101.796 67.4869 102.999C66.899 103.729 66.2692 104.419 65.6309 105.101C67.2689 106.518 68.6736 108.278 70.0002 109.928C71.6964 112.037 73.3002 114.236 75.2043 116.166C77.0822 118.07 79.1587 119.401 81.6693 120.288L82.1764 120.464C84.6985 121.35 87.3942 122.546 88.8159 124.935C89.0962 125.406 88.5317 125.988 88.0572 125.694C85.5868 124.164 82.6842 123.856 79.9952 122.845C77.3977 121.869 75.1333 120.366 73.1326 118.447C71.1353 116.532 69.4583 114.353 67.709 112.22C65.9791 110.111 64.1166 108.31 62.0704 106.525C58.9129 108.65 55.3087 109.575 51.6438 110.483L51.2438 110.582C47.5745 111.491 43.9249 112.546 40.4825 114.129C37.4474 115.524 34.4622 117.19 31.9899 119.46C29.3656 121.87 27.323 124.947 25.4535 127.956C21.2717 134.689 18.3317 142.065 15.7435 149.531C13.0515 157.297 10.7998 165.218 8.98205 173.233C8.05754 177.31 7.3067 181.415 6.68959 185.55C6.39254 187.541 6.12867 189.537 5.89691 191.537C5.64952 193.673 5.59269 195.87 4.93776 197.923C4.65698 198.803 3.99402 199.169 3.33043 199.138L3.19565 200.824C3.01692 203.072 2.8503 205.321 2.79402 207.584C2.70066 211.345 2.74299 215.096 3.01346 218.85L3.05177 219.361C3.2643 222.101 3.73923 225.179 5.79846 227.185C7.93099 229.263 11.2105 229.916 14.0848 229.953C20.7792 230.041 27.2233 226.876 33.1473 224.1C39.2482 221.241 45.1825 218.068 50.9747 214.626C53.9244 212.873 56.8422 211.062 59.7228 209.198C61.1364 208.284 62.5401 207.353 63.9332 206.408C64.7311 205.866 65.4873 205.273 66.2996 204.792C65.9016 204.422 65.7239 203.839 66.0573 203.33C63.709 201.291 62.7317 197.652 62.6174 194.707C62.5251 192.331 62.8747 189.961 63.1506 187.607C63.2899 186.42 63.4618 185.235 63.6404 184.053C63.7109 183.586 63.7648 183.086 63.8472 182.593C57.5064 186.079 50.988 189.184 44.2969 191.941C40.8672 193.355 37.3935 194.626 33.8719 195.791L33.1581 196.026C29.8214 197.119 26.4048 198.151 22.9553 198.776C22.7709 198.809 22.6211 198.536 22.818 198.45C26.1797 196.966 29.6578 195.714 33.0699 194.348L33.6306 194.119C33.5662 194.115 33.4994 194.107 33.4297 194.09C31.4286 193.607 29.4431 192.862 27.4804 192.235C25.6589 191.653 23.6123 191.288 21.9097 190.41C21.7787 190.342 21.8521 190.16 21.9797 190.151C23.8933 190.018 25.9707 190.576 27.847 190.905L28.5518 191.028C29.7326 191.236 30.9396 191.46 32.1146 191.752C32.1571 191.359 32.377 190.963 32.6899 190.731C36.1329 188.181 35.7832 183.029 36.1515 179.23L36.4245 176.409C36.9049 171.473 37.413 166.538 38.1849 161.638C38.2261 161.377 38.6307 161.452 38.6324 161.699C38.6722 167.772 38.2139 173.817 37.9842 179.881L37.9487 180.875C37.8217 184.617 37.7222 188.502 35.3666 191.381C35.696 191.188 36.1413 191.188 36.4082 191.506C36.7361 191.896 36.9254 192.334 36.9194 192.764C39.048 191.872 41.1672 190.956 43.2761 190.021C50.0563 187.016 56.6943 183.653 63.1568 180.015C63.8523 179.623 64.5133 179.931 64.8573 180.447L64.9069 180.44C64.9152 180.439 64.9236 180.438 64.9323 180.438L64.9815 180.436L64.987 180.436C65.8967 179.936 67.136 180.292 67.9166 181.021C67.9397 181.043 67.9593 181.067 67.9798 181.09C68.9681 180.647 69.8909 180.047 70.7284 179.288C72.4422 177.734 73.8938 175.813 75.1593 173.886C77.4898 170.337 79.4694 166.391 82.6175 163.47C85.1753 161.097 88.3464 159.619 91.6732 158.692C91.6593 158.595 91.6965 158.491 91.7637 158.422C91.9346 158.247 92.0565 158.186 92.2773 158.293C92.2948 158.301 92.3054 158.313 92.3125 158.326L92.6372 157.771C92.8144 157.47 92.9963 157.167 93.0594 157.087C93.4371 156.611 93.8259 156.139 94.2205 155.677C94.8896 154.894 95.6521 154.122 96.5349 153.579C98.468 152.391 100.5 153.063 102.488 153.713C103.688 154.105 104.885 154.51 106.084 154.909L106.208 154.949C107.102 155.236 108.147 155.488 108.547 156.435C108.705 156.81 108.73 157.199 108.656 157.577C117.146 155.417 126.575 156.409 134.86 158.944C135.177 159.042 135.495 159.303 135.562 159.647C136.511 164.517 136.934 169.511 136.504 174.463C136.134 178.739 135.187 182.928 133.403 186.842L133.301 187.063C131.624 190.691 128.966 195.162 124.907 196.299C122.456 196.985 119.746 196.581 117.246 196.455C114.817 196.333 112.333 196.315 109.927 195.933C107.784 195.592 105.906 194.631 104.582 192.888C103.439 191.384 102.837 189.567 102.345 187.758C102.119 187.83 101.895 187.907 101.674 187.993C100.743 188.357 99.9543 188.944 99.2411 189.635C97.7349 191.094 96.5666 192.866 94.9908 194.259C93.5643 195.519 91.9388 196.499 90.1952 197.253C86.5823 198.815 82.7064 199.439 78.8847 200.266L78.6182 200.324C75.7411 200.956 72.8045 201.731 70.2651 203.23C70.2154 203.671 70.0145 204.086 69.6926 204.358C70.1404 204.779 70.3302 205.445 69.9366 206.07C68.8372 207.816 66.9434 208.809 65.2433 209.925L65.1328 209.998C63.4604 211.107 61.7734 212.194 60.0727 213.259C56.6153 215.425 53.0856 217.471 49.5061 219.427C43.7489 222.574 37.868 225.542 31.8807 228.234C32.2401 230.003 32.1088 231.826 32.3789 233.607L32.4203 233.861C32.5357 234.522 32.3798 235.075 31.9248 235.506L31.8767 235.55L31.8775 235.545L31.8349 235.584L31.8206 235.596L31.8254 235.592C31.7729 235.64 31.7188 235.685 31.6637 235.723L31.5934 235.768C31.1552 236.035 30.591 236.031 30.1423 235.796L30.0911 235.768L30.0049 235.719C29.4121 235.378 29.0033 234.532 29.2492 233.861C29.8536 232.211 30.082 230.45 30.6402 228.788L30.1973 228.986L29.6137 229.241C23.3015 231.971 16.2898 234.271 9.41219 232.409C6.37332 231.587 3.53304 229.846 2.01254 227.01C0.516347 224.219 0.304868 220.978 0.225431 217.873C0.127403 214.041 0.332756 210.151 0.837896 206.352C1.17698 203.801 1.58705 201.203 2.21959 198.679C1.89423 198.392 1.65508 197.98 1.59191 197.47C1.29339 195.06 1.81585 192.554 2.13571 190.156C2.44818 187.814 2.79339 185.478 3.18381 183.148C3.97205 178.444 4.8879 173.749 5.95416 169.1C7.85177 160.825 10.3576 152.698 13.3745 144.765L13.6387 144.073C16.4265 136.822 19.6543 129.726 24.149 123.356C26.299 120.308 28.5718 117.545 31.6099 115.349C34.4561 113.291 37.6665 111.809 40.9796 110.677C44.2963 109.544 47.7053 108.784 51.1745 108.312C54.6978 107.832 58.4168 107.538 61.7035 106.092C61.2877 105.347 61.6445 104.34 62.3442 103.878C64.699 102.321 66.8766 100.296 68.9871 98.4255ZM144.369 166.104C144.467 165.955 144.702 166.049 144.658 166.227C143.513 170.92 142.438 175.624 141.736 180.407C140.468 189.041 140.702 197.787 140.805 206.485L140.81 206.935C140.864 211.619 140.938 216.305 141.092 220.987C141.171 223.354 141.325 225.744 141.241 228.112C141.195 229.397 140.853 230.612 140.732 231.881C140.626 232.991 140.72 234.118 140.773 235.229C140.809 235.968 139.719 235.936 139.644 235.229L139.55 234.314C139.426 233.156 139.274 232.005 138.895 230.897C138.439 229.564 138.22 228.255 138.062 226.855C137.819 224.711 137.711 222.544 137.618 220.385L137.554 218.891C137.163 209.865 137.177 200.797 137.809 191.781L137.856 191.137C138.482 182.615 139.568 173.407 144.369 166.104ZM119.956 112.39C119.656 112.267 119.761 111.815 120.093 111.894L120.695 112.038C125.109 113.095 129.444 114.241 133.564 116.21C137.687 118.179 141.177 121.119 143.951 124.734C149.342 131.762 151.583 140.303 153.352 148.835C155.317 158.317 157.107 167.833 159.09 177.311L159.458 179.077C161.292 187.905 163.025 196.738 164.301 205.67L164.393 206.318C165.68 215.504 166.454 225.007 165.049 234.217C164.772 236.039 161.741 235.585 161.859 233.785C162.202 228.581 162.447 223.404 162.21 218.189C161.973 212.972 161.484 207.778 160.755 202.607C160.141 198.255 159.226 193.957 158.417 189.64L158.29 188.958C157.612 185.286 156.914 181.618 156.216 177.95L155.175 172.457C153.613 164.233 152.021 156.001 150.222 147.829L150.115 147.348C148.355 139.485 145.76 131.249 140.479 125.005C135.12 118.669 127.449 115.478 119.956 112.39ZM100.484 195.789C100.613 195.502 101.063 195.533 101.202 195.789C101.745 196.791 101.805 198.07 101.908 199.202L101.919 199.319C102.049 200.699 102.165 202.085 102.236 203.47C102.37 206.099 102.434 208.724 102.426 211.357C102.417 214.055 102.363 216.749 102.218 219.443L102.178 220.164C102.046 222.505 101.823 225.116 100.711 227.163C100.307 227.907 99.2079 227.688 98.9738 226.936C98.2069 224.472 98.6007 221.551 98.7974 219.028L98.9501 217.059C99.1013 215.09 99.2456 213.121 99.36 211.149C99.5167 208.452 99.646 205.753 99.7705 203.055C99.8109 202.178 99.8546 201.302 99.9008 200.425L99.9718 199.111C100.032 198.012 100.027 196.805 100.484 195.789ZM14.2553 199.28L14.5948 198.952C15.637 197.932 16.954 196.36 18.4947 196.458C19.109 196.497 19.5005 197.007 19.3731 197.612C19.101 198.904 17.7829 199.575 16.8341 200.364C15.7947 201.228 14.815 202.152 13.8373 203.085C12.9698 203.912 12.1356 204.763 11.3215 205.64L11.017 205.97C10.7252 206.288 8.64693 208.169 8.87164 208.657L8.88387 208.679C8.94641 208.772 8.84226 208.9 8.73852 208.868C7.84106 208.584 7.89704 207.815 8.23634 207.035C8.88831 205.537 10.03 204.151 11.027 202.872C12.0213 201.596 13.0974 200.407 14.2553 199.28ZM103.736 161.712C103.042 160.071 100.485 160.106 99.0338 160.204C95.3789 160.451 91.4244 161.376 88.1723 163.085C84.8008 164.857 82.5297 167.695 80.4976 170.835L80.4025 170.982C78.4219 174.062 76.5144 177.708 73.413 179.826C71.8333 180.905 69.9887 181.89 68.0721 182.316C67.9405 182.548 67.7273 182.731 67.4478 182.798L67.3179 182.827C66.772 182.948 65.924 183.081 65.1915 183.002C65.1964 183.36 65.1925 183.716 65.2016 184.055C65.2274 185.029 65.2384 186.006 65.2384 186.98C65.2388 189.021 65.1292 191.065 65.2143 193.106C65.2897 194.91 65.5445 196.796 66.4107 198.409C67.046 199.593 67.8845 200.376 68.8967 201.124C71.3867 199.606 74.2023 198.68 77.0599 197.985C80.5158 197.143 84.0543 196.582 87.4316 195.441C89.0571 194.892 90.6199 194.173 92.0358 193.196C93.5385 192.16 94.6863 190.757 95.8673 189.385L96.0519 189.172C97.2572 187.789 98.5723 186.466 100.276 185.717C101.742 185.071 103.676 184.956 104.958 183.956C105.629 183.434 105.685 182.675 105.756 181.898C104.934 182.015 104.065 181.827 103.246 181.731L102.822 181.681C102.048 181.589 101.291 181.488 100.529 181.291C100.388 181.255 100.388 181.041 100.529 181.005C101.43 180.772 102.323 180.673 103.246 180.565L103.463 180.537C104.298 180.428 105.176 180.262 105.996 180.446C106.143 179.887 106.355 179.352 106.653 178.817C107.071 178.066 107.862 177.213 107.969 176.335C108.001 176.073 107.94 175.763 107.817 175.532L107.774 175.453C107.722 175.359 107.661 175.265 107.571 175.207C107.561 175.219 107.539 175.232 107.494 175.247C106.863 175.445 106.313 175.136 106.021 174.66C104.781 174.814 103.429 174.763 102.266 174.814L101.091 174.871C99.8351 174.928 98.5223 174.954 97.3422 174.7C97.1774 174.664 97.1275 174.39 97.2925 174.32C98.7433 173.699 100.503 173.501 102.056 173.262C102.924 173.129 103.798 173.028 104.668 172.91C105.247 172.832 105.862 172.703 106.462 172.672C107.967 170.798 107.156 167.841 105.062 167.035C104.299 167.37 103.613 167.175 102.779 167.103C101.947 167.032 101.113 166.983 100.278 166.987C98.6041 166.994 96.8303 167.435 95.1727 167.245C94.9031 167.214 94.6525 166.855 94.9206 166.636C96.1895 165.6 98.008 165.263 99.6186 165.042L99.9524 164.997C100.492 164.926 101.149 164.823 101.83 164.762C101.984 164.461 102.261 164.234 102.676 164.177C102.799 164.161 102.923 164.151 103.047 164.14L103.045 164.128C104.057 164.079 104.013 162.369 103.736 161.712ZM34.4254 193.716C34.4075 193.743 34.388 193.77 34.3671 193.795L34.335 193.832L34.5015 193.765L34.4254 193.716ZM121.402 158.045C117.141 157.587 112.874 157.684 108.6 157.807C108.258 158.925 107.068 159.879 105.915 159.915C106.818 161.289 106.911 163.15 106.278 164.608C107.622 165.144 108.781 166.105 109.484 167.475C110.459 169.373 110.331 171.486 109.368 173.241C110.19 173.985 110.675 175.195 110.627 176.335C110.572 177.606 109.815 178.692 109.186 179.745C108.506 180.883 108.483 181.885 108.274 183.16C107.968 185.026 106.71 186.157 105.092 186.864L105.178 187.203C105.595 188.828 106.114 190.542 107.307 191.73C108.841 193.259 111.221 193.245 113.248 193.342L113.346 193.346C115.202 193.439 117.057 193.548 118.913 193.653L120.304 193.731C122.441 193.849 124.492 193.863 126.236 192.45C129.084 190.144 131.036 186.327 132.271 182.948C134.864 175.856 134.895 168.073 133.705 160.687C129.713 159.399 125.571 158.493 121.402 158.045ZM85.9646 169.812L85.996 169.814C86.8734 169.914 87.4761 170.625 87.6908 171.468C88.0026 172.693 87.8496 173.801 88.5998 174.907C89.3716 176.045 89.8461 176.956 89.9583 178.361C90.0043 178.939 89.9832 179.516 90.1119 180.082L90.2052 180.478C90.3042 180.901 90.3853 181.308 90.336 181.762C90.291 182.177 90.0895 182.499 89.6743 182.632C88.3216 183.065 87.2771 182.067 86.9277 180.806C86.6257 179.717 87.0289 178.419 86.6029 177.396C86.367 176.829 85.9317 176.355 85.6858 175.784C85.4422 175.218 85.3199 174.627 85.2808 174.012C85.2067 172.849 86.2351 171.451 85.6613 170.397C85.5391 170.172 85.6775 169.805 85.9646 169.812ZM67.9958 157.807C68.9118 157.621 69.951 157.194 70.8544 157.549C71.3188 157.732 71.5482 158.298 71.1559 158.692C70.4747 159.375 69.4847 159.413 68.5673 159.574L68.4865 159.588C67.4017 159.789 66.3149 159.98 65.2267 160.16C63.1793 160.499 61.127 160.799 59.0676 161.054C56.9524 161.316 54.8312 161.549 52.7072 161.725L51.8849 161.792C50.0906 161.936 48.2236 162.044 46.4631 161.769C46.2073 161.729 46.2485 161.356 46.4631 161.291C48.3918 160.707 50.5074 160.551 52.5014 160.303C54.6212 160.04 56.7375 159.762 58.8483 159.433C60.9557 159.103 63.0603 158.75 65.1572 158.359C66.1049 158.183 67.0512 157.999 67.9958 157.807ZM101.05 155.932C100.246 155.648 99.3613 155.226 98.4902 155.367C96.9881 155.61 95.6512 157.074 94.4622 158.039L95.0592 157.922C98.114 157.335 102.159 156.702 104.724 158.645C104.73 158.634 104.735 158.623 104.743 158.612C104.95 158.297 105.19 158.052 105.451 157.783C105.476 157.759 105.5 157.735 105.524 157.71L105.666 157.56L105.342 157.448C104.651 157.203 103.831 156.887 103.701 156.841L103.692 156.838C102.81 156.539 101.927 156.244 101.05 155.932ZM75.9506 91.8774C75.8249 90.26 78.3413 90.2733 78.4659 91.8774C78.7378 95.3795 77.95 98.8484 76.2544 101.919C76.2419 101.941 76.2282 101.961 76.2151 101.982C77.2756 102.534 78.3482 103.064 79.4447 103.537C80.8473 104.143 82.2763 104.695 83.7309 105.162C85.0467 105.586 86.6678 105.753 87.7739 106.635C90.1066 108.493 89.2302 112.349 88.7815 114.849L88.7115 115.243C88.488 116.53 88.3264 117.849 88.8685 119.084C89.4474 120.402 90.618 121.38 91.6623 122.324L91.8733 122.515C92.7984 123.358 93.8555 124.383 94.5341 125.526C95.1535 124.245 95.998 123.198 96.8908 122.019C97.5277 121.178 97.0744 120.9 96.6168 120.079C96.1763 119.288 95.9612 118.445 96.0989 117.543C96.3531 115.876 97.6843 114.673 99.0094 113.768C100.574 112.701 102.321 111.91 103.938 110.917C107.263 108.876 110.5 106.543 113.416 103.952C113.497 103.881 113.636 103.975 113.572 104.073C111.268 107.578 108.566 110.607 105.246 113.179C103.9 114.221 102.486 115.086 101.062 115.995L100.653 116.258C100.081 116.629 99.3684 117.124 99.1099 117.754C98.8499 118.389 99.4044 118.867 99.703 119.393C100.651 121.061 100.194 122.618 99.0697 124.033L99.0174 124.098C97.9006 125.475 97.0543 126.756 96.6495 128.514C95.7798 132.293 96.9912 136.228 98.2594 139.775L98.3094 139.915C98.9954 141.827 99.7245 143.725 100.32 145.667L100.484 146.204C101.024 147.992 101.467 149.755 100.861 151.592C100.655 152.217 99.8029 152.365 99.449 151.776C98.2006 149.702 97.8894 147.206 97.1069 144.926C96.3442 142.703 95.4685 140.521 94.7318 138.289C93.7832 135.416 93.1484 132.323 93.493 129.309C93.4828 129.291 93.4716 129.275 93.4632 129.256L93.2217 128.728C92.5632 127.297 91.9273 126.048 90.7298 124.907C89.4808 123.718 88.1251 122.664 87.1423 121.224C85.0075 118.096 86.3277 114.616 86.5856 111.196L86.6151 110.776C86.6619 110.066 86.6876 109.101 86.2239 108.609C85.7023 108.056 84.479 107.915 83.7869 107.67C81.9983 107.037 80.2357 106.299 78.557 105.413C76.9589 104.57 75.411 103.638 73.9697 102.547L73.2392 101.997C72.0866 101.127 70.8914 100.177 70.1189 98.9925C70.0298 98.8562 70.1813 98.6362 70.3427 98.7015C71.6323 99.225 72.8105 100.058 74.017 100.782C74.0359 100.738 74.0576 100.693 74.0823 100.649C75.5751 97.9459 76.1891 94.9515 75.9506 91.8774ZM117.144 110.395C117.658 108.985 120 109.094 119.906 110.769C119.835 112.056 119.289 113.217 118.789 114.385L118.736 114.51C118.221 115.727 117.625 116.87 116.913 117.986C115.552 120.118 113.957 122.097 112.254 123.965C110.71 125.658 108.684 126.694 106.349 126.522C105.365 126.449 104.372 126.199 103.509 125.707C102.485 125.123 101.373 123.369 100.067 123.794C99.9405 123.835 99.8226 123.65 99.9318 123.562C101.44 122.347 103.152 124.231 104.596 124.685C106.772 125.369 109.005 124.613 110.405 122.853C111.867 121.016 113.213 118.959 114.442 116.958C115.066 115.942 115.636 114.888 116.127 113.802C116.624 112.705 116.736 111.513 117.144 110.395ZM113.637 101.721C113.574 101.526 113.815 101.341 113.986 101.452C114.977 102.097 115.836 102.95 116.75 103.698C117.764 104.527 118.786 105.34 119.824 106.14C121.336 107.306 119.582 109.453 118.251 108.179C116.429 106.436 114.433 104.157 113.637 101.721ZM108.196 94.8983C108.598 93.3452 110.98 93.9856 110.633 95.5207L110.621 95.5675C109.964 98.103 110.9 100.684 112.898 102.328L112.972 102.388C114.236 103.4 112.445 105.169 111.193 104.167C108.461 101.979 107.324 98.2624 108.196 94.8983Z" fill="black"/>
<path fill-rule="evenodd" clip-rule="evenodd" d="M97.6555 14.4086C129.454 15.4157 131.372 30.5255 131.372 55.8653C131.372 81.2051 114.876 97.1728 108.802 99.9611C102.728 102.749 86.7347 114.725 72.3014 109.207C57.8681 103.688 62.0478 80.3707 62.0478 70.3522C62.0478 60.3337 65.8571 13.4015 97.6555 14.4086Z" fill="white"/>
<path fill-rule="evenodd" clip-rule="evenodd" d="M110.556 91.6388C104.716 94.8999 98.0297 95.0268 91.7485 92.9745C87.9816 91.7468 84.5276 89.8487 81.295 87.5788C78.4831 85.6026 75.9732 83.4109 73.4866 81.0838C71.4394 76.5674 69.6164 72.0593 68.7626 67.1454C67.9978 62.7345 67.8964 58.1546 68.7838 53.7522C75.3459 48.3521 81.8678 42.9078 88.3809 37.4467C91.6978 34.6651 95.0232 31.8987 98.3887 29.1763C100.098 27.7941 101.79 26.3907 103.493 25.0022C103.774 24.7739 104.053 24.5457 104.334 24.3174C107.849 26.8916 111.618 29.0984 115.109 31.7147C116.936 33.0863 118.713 34.5467 120.405 36.0831C121.292 36.8885 122.159 37.7191 123.004 38.5709C123.777 39.3488 124.522 40.4646 125.619 40.7585C125.769 40.7985 125.911 40.8069 126.044 40.7879C127.51 53.6296 128.551 67.4963 122.27 79.1586C119.53 84.2458 115.645 88.794 110.556 91.6388ZM72.5678 96.3585C71.7637 95.6215 72.962 94.4288 73.7627 95.1627C78.7921 99.7714 85.3672 102.214 92.0086 103.345C93.0802 103.528 92.6232 105.157 91.5593 104.975C84.6252 103.795 77.8102 101.162 72.5678 96.3585ZM66.5327 103.43C65.5727 102.914 66.4273 101.455 67.3856 101.97C71.304 104.072 75.6018 105.164 79.9611 105.902C81.0333 106.083 80.5759 107.712 79.5119 107.532C75.0045 106.77 70.5816 105.602 66.5327 103.43ZM82.4802 32.1989C85.7316 29.2799 89.226 26.5025 92.9171 24.1589C96.6521 21.7875 100.732 20.3694 105.141 20.3356C104.832 20.5828 104.539 20.8576 104.241 21.1131C103.409 21.8256 102.578 22.5421 101.748 23.2564C100.087 24.6873 98.4225 26.1158 96.7831 27.5701C93.5549 30.436 90.3162 33.2871 87.0943 36.1594C80.9021 41.6798 74.8431 47.3205 68.9147 53.1244C68.9466 52.9828 68.9804 52.8412 69.014 52.6998C70.9767 44.4992 76.3155 37.7339 82.4802 32.1989ZM107.968 20.6927C107.989 20.6293 108.004 20.5678 108.012 20.5089C116.473 21.6121 123.54 27.8404 125.877 36.041C125.674 36.3242 125.562 36.6603 125.604 37.0172C125.625 37.1971 125.646 37.3788 125.668 37.5585C125.378 37.2713 125.08 37.0026 124.827 36.7469C123.984 35.8931 123.12 35.0622 122.232 34.2528C120.418 32.5981 118.533 31.051 116.547 29.6075C113.093 27.0967 109.353 24.7887 105.236 23.584C105.506 23.3621 105.777 23.1402 106.049 22.9204C106.863 22.2586 107.617 21.7136 107.968 20.6927ZM123.137 11.9238C117.942 6.24483 110.748 2.08546 103.172 0.639822C95.938 -0.742409 88.4486 0.168512 81.6143 2.85477C67.3133 8.47669 56.0295 20.8388 50.7457 35.1639C47.6654 43.5101 46.6556 52.6595 47.5812 61.4939C48.5021 70.288 51.1493 79.3699 55.9662 86.8517C56.4077 87.5367 56.8915 88.1938 57.3985 88.83C57.1725 91.4127 56.3105 93.9446 54.9542 96.1469C54.8813 96.2648 54.8044 96.3807 54.7283 96.4967C53.3395 97.5372 51.8988 98.5136 50.4924 99.5215C49.2736 100.395 48.0673 101.291 46.9212 102.258C45.8393 103.171 44.5828 104.188 43.8504 105.421C43.2502 106.431 43.0051 107.803 43.8244 108.766C44.8116 109.926 46.4845 109.517 47.8218 109.517C47.9363 109.517 48.0506 109.52 48.1649 109.521C48.5665 109.774 48.9802 110.002 49.3809 110.214C53.4309 112.362 57.4957 114.486 61.5647 116.599C69.6692 120.811 77.7396 125.193 86.0105 129.071C89.8431 130.87 93.9459 132.442 98.2387 132.436C102.266 132.429 105.906 130.829 109.049 128.397C112.632 125.626 115.628 122.107 118.535 118.658C119.697 117.277 120.836 115.881 121.953 114.465C124.1 113.748 126.23 113.539 128.144 114.921C129.68 116.031 131.703 114.522 131.739 112.856C131.752 112.265 131.727 111.681 131.663 111.106C131.279 107.555 129.542 104.343 127.586 101.363C126.517 99.7335 125.391 98.1334 124.258 96.5483C123.992 96.1744 123.73 95.8003 123.477 95.4196C128.025 88.7201 131.634 81.2911 133.852 73.528C136.183 65.3595 136.975 56.8886 136.455 48.424C135.656 35.4513 132.099 21.722 123.137 11.9238Z" fill="black"/>
<path fill-rule="evenodd" clip-rule="evenodd" d="M107.227 82.4112C105.807 81.8316 104.54 80.8648 103.613 79.6298C103.291 79.2004 103.208 78.747 103.275 78.3323C103.351 77.8661 103.627 77.4435 104.003 77.16C104.38 76.8757 104.852 76.7354 105.308 76.8069C105.705 76.869 106.099 77.0862 106.412 77.5365L106.477 77.6265C107.028 78.3719 107.745 78.9836 108.563 79.3778C109.351 79.7577 110.233 79.9351 111.145 79.832C112.883 79.6356 114.08 78.6956 115.353 77.4191C115.511 77.258 115.669 77.0918 115.827 76.9229C115.927 76.7698 116.066 76.6714 116.221 76.6198C116.392 76.5624 116.586 76.5657 116.764 76.6277C116.935 76.6875 117.088 76.8008 117.191 76.9516C117.288 77.0949 117.344 77.272 117.326 77.4757C117.209 78.7985 116.518 79.9791 115.536 80.9062C114.445 81.9357 112.999 82.648 111.638 82.8978C110.139 83.173 108.611 82.9759 107.227 82.4112ZM112.346 62.0033C113.941 62.9734 116.372 65.2355 114.656 67.6406C112.635 69.7611 109.727 67.3297 108.294 66.2301C106.964 65.3779 105.471 67.5697 106.704 68.5648C117.061 76.2359 121.265 62.257 113.153 60.8627C112.259 60.7091 111.928 61.7032 112.346 62.0033ZM93.7856 53.08C93.9619 50.8912 97.2941 50.3941 97.6256 52.56C97.9224 54.5002 97.573 56.2826 96.6994 58.0294C95.8647 59.6982 93.7667 58.9196 93.608 57.4C93.3953 55.363 93.6759 54.4415 93.7856 53.08ZM119.151 52.1109C119.616 51.5023 120.287 51.0867 121.09 51.3216C123.601 52.0556 122.861 55.6217 121.979 57.3575C121.5 58.3001 119.951 58.5392 119.251 57.7092C118.11 56.3557 117.564 53.6527 119.014 52.3195C119.054 52.2506 119.097 52.1811 119.151 52.1109ZM96.664 43.5024L97.0607 43.433C98.2877 43.2207 99.8133 43.0167 100.681 44.0035C101.142 44.5269 101.3 45.4995 100.681 46.0004C99.5928 46.8817 98.3894 46.5402 97.0851 46.6148C96.0101 46.6765 94.9771 46.8545 93.9416 47.1506C91.6701 47.8 89.8192 48.9857 87.8791 50.2876C87.6245 50.4584 87.3647 50.1327 87.4861 49.8945C88.6061 47.7001 90.7764 45.8975 92.9504 44.7986C94.1106 44.2122 95.3804 43.7256 96.664 43.5024ZM116.862 42.5194L117.166 42.5816C120.469 43.2724 124.762 44.6524 126.326 47.8986C126.386 48.3576 126.323 48.456 126.272 48.5203L126.254 48.5417C126.212 48.5966 126.179 48.6722 125.98 48.7347C125.925 48.7215 125.869 48.7076 125.812 48.6928C125.095 48.5048 124.528 48.2458 123.979 47.9771L123.383 47.6836C122.692 47.3446 121.995 47.0181 121.256 46.777C119.68 46.2625 118.058 45.9002 116.412 45.7067C116.055 45.6648 115.711 45.5443 115.44 45.3377C115.183 45.1417 114.986 44.8703 114.896 44.5095C114.78 44.0426 114.813 43.6892 115.064 43.268C115.252 42.9517 115.522 42.7324 115.831 42.6065C116.146 42.4782 116.505 42.4479 116.862 42.5194Z" fill="black"/>
<path fill-rule="evenodd" clip-rule="evenodd" d="M131.253 63.2906C128.688 65.942 124.406 66.7028 120.994 65.2809C112.231 61.6184 116.52 50.1949 123.278 47.1272C124.122 46.9166 125.25 46.4172 126.278 46.3039C126.371 46.2583 126.573 46.3904 126.819 46.2655C134.27 47.0978 135.967 58.6696 131.253 63.2906ZM102.99 63.9692C100.114 67.7864 94.7651 68.9641 90.3952 67.1896C81.7624 63.7885 84.8243 53.6587 90.7307 49.6875C103.208 44.9974 108.36 56.9311 102.99 63.9692ZM84.2763 55.5114C84.2682 55.5076 84.2602 55.5057 84.252 55.5019C84.2976 55.4818 84.3432 55.4618 84.3887 55.4413C84.3739 55.4799 84.3578 55.5182 84.3434 55.5569C84.3211 55.5414 84.3014 55.5235 84.2763 55.5114ZM137.192 51.3852C136.488 51.3867 135.471 51.5025 134.888 51.9914C133.45 47.1403 128.142 42.6505 123.526 45.9244C119.892 47.0938 117.194 49.6872 115.661 53.1352C112.897 51.4905 108.551 52.1928 106.154 54.3678C104.585 49.1789 100.721 47.362 96.1231 47.0938C91.1042 46.2714 86.1018 51.1475 84.541 55.0591C83.2432 54.9114 81.3039 54.4982 80.083 55.2994C72.159 53.2206 58.3051 52.0744 56.6942 53.2295C55.5462 53.6701 54.9162 56.3809 56.5197 56.5272C57.917 56.3287 56.3566 54.5409 57.7651 54.3458C65.27 53.8804 72.5556 55.3924 79.981 56.0269C80.6439 56.919 82.786 57.2174 83.9287 56.859C82.1289 63.4945 86.0141 68.009 91.8356 69.3612C100.85 71.4326 108.692 63.3658 106.335 54.9752C109.066 53.6162 112.207 53.6746 115.181 54.3904C110.211 72.6912 139.673 71.8701 135.072 52.6185C138.134 54.1423 138.799 51.6927 137.192 51.3852Z" fill="black"/>
</svg>
