<svg width="140" height="200" viewBox="0 0 140 200" fill="none" xmlns="http://www.w3.org/2000/svg">
<path fill-rule="evenodd" clip-rule="evenodd" d="M126.877 93.6704C125.229 89.1367 126.467 83.3967 123.07 79.6452C122.065 79.0352 121.532 79.3746 121.119 80.4381C120.869 81.8376 120.284 86.6563 122.388 86.654C122.652 89.6635 122.487 92.6948 121.839 95.6482C120.287 95.3994 119.155 96.1964 118.022 96.7891C117.177 97.231 116.333 97.5594 115.313 97.2561C111.102 96.5149 109.902 100.931 109.851 104.536C109.789 106.294 109.624 110.394 108.848 112.101C105.337 104.839 97.9642 101.533 90.9389 99.9005C89.8376 99.5963 88.8979 99.1805 88.1915 98.4699C82.2723 96.1356 85.116 88.4878 82.3928 84.0924C78.1303 78.8671 73.0114 77.3636 66.5625 78.2591C60.9201 78.8822 57.0846 84.6068 57.4325 90.0103C57.5368 91.1129 56.8743 92.2726 56.4845 93.4073C52.5898 98.0619 46.5295 100.144 41.3171 102.957C23.9318 111.444 17.9068 117.929 11.1508 135.988C7.9902 142.782 4.20778 149.377 2.95161 156.86C1.47548 165.677 1.47085 174.704 1.98472 183.609C1.02534 183.724 2.06938 190.569 2.91088 192.94C3.1992 193.753 3.89007 194.339 4.75089 194.326C6.48244 195.166 10.5479 198.553 12.359 198.441C18.2107 198.081 23.8987 198.638 29.5364 198.35C35.6357 198.039 41.6762 196.902 47.8015 197.049C58.4834 197.307 50.8357 197.94 61.8871 198.441C68.8637 198.762 94.3159 194.957 101.273 195.578C106.931 196.767 109.513 194.763 108.649 188.858C108.33 186.595 107.311 181.562 110.664 181.348C112.25 181.532 113.562 183.115 114.751 184.04C125.245 191.844 135.966 186.224 136.811 173.396C138.401 162.636 140.631 160.094 135.784 149.349C120.446 109.349 143.554 114.784 127.952 96.0484C126.734 97.1079 127.043 94.28 126.877 93.6704Z" fill="white"/>
<path fill-rule="evenodd" clip-rule="evenodd" d="M121.048 79.3457C121.885 78.524 123.216 78.7284 124.032 79.4589C124.863 80.2008 125.363 81.3671 125.789 82.3723C127.703 86.8922 127.257 91.841 128.225 96.5699C129.997 97.5255 131.596 98.7731 132.728 100.452C134.449 103.001 135.265 105.97 134.402 108.992C133.957 110.555 133.199 112.004 132.66 113.534C132.083 115.163 131.73 116.856 131.561 118.576C131.394 120.264 131.372 121.961 131.42 123.655C131.446 124.533 131.492 125.409 131.538 126.285C131.58 127.07 131.719 127.889 131.531 128.658L131.508 128.747C131.581 128.735 131.653 128.721 131.725 128.705C132.342 128.568 132.885 128.354 133.529 128.438C134.03 128.504 134.29 128.922 134.078 129.394C133.985 129.6 133.862 129.772 133.714 129.919C135.008 139.476 137.268 148.879 138.755 158.405C139.429 162.727 139.84 167.062 139.608 171.438L139.584 171.872C139.348 175.89 138.768 180.318 136.723 183.832C135.768 185.477 134.455 186.936 132.864 187.988C132.135 188.469 131.355 188.846 130.506 189.034C126.11 190.783 121.462 190.354 117.317 188.042C115.453 187.003 113.593 185.792 112.071 184.289C111.331 183.559 110.618 182.629 110.18 181.612C110.181 181.84 110.14 182.074 110.186 182.299L110.278 182.743C110.969 186.046 113.6 198.251 113.635 199.275C113.654 199.828 108.995 199.815 108.489 199.832L108.475 199.832C100.93 200.146 93.3798 199.978 85.8385 199.667L85.2432 199.642C77.9296 199.333 69.971 198.917 62.6496 198.704L62.6648 198.582C62.7524 197.925 63.179 195.004 63.2265 194.781L63.2282 194.773C63.4357 193.938 63.836 191.34 63.6253 190.478C63.0826 188.258 60.637 188.765 58.9164 189L58.5539 189.048C58.2754 189.086 57.5976 189.186 57.604 189.192C57.4212 189.002 57.8561 188.462 57.9632 188.318L58.049 188.199C58.5113 187.553 58.9295 186.882 58.8838 186.049C58.7726 184.015 55.8627 184.13 54.4327 184.271C54.3319 184.281 54.2907 184.438 54.4069 184.462L54.6889 184.52C55.5962 184.715 57.6112 185.211 57.5657 185.96C57.5398 186.386 57.0857 186.7 56.8082 186.968C56.5023 187.264 56.1983 187.583 55.9726 187.946C55.5381 188.646 55.4394 189.589 55.8693 190.317C56.3651 191.157 57.2447 191.255 58.1255 191.178L58.1754 191.174C58.3692 191.156 58.5631 191.137 58.7569 191.118L59.9199 191.004C60.2079 190.977 61.1332 190.734 61.4035 190.901C61.7866 191.138 61.3259 192.187 61.2395 192.533L61.2349 192.557C61.1606 193.058 61.1161 198.301 61.1086 198.647C55.403 198.515 49.6965 197.248 43.991 197.546C39.4583 197.782 34.9379 198.191 30.4137 198.546L30.2995 197.576C29.0456 187.014 27.0795 173.076 28.0231 162.629C28.0969 161.811 26.8185 161.816 26.7452 162.629C25.7695 173.432 27.9052 187.944 29.1475 198.643C27.2215 198.789 25.2948 198.922 23.3658 199.023L22.8739 199.049C16.3099 199.376 9.53487 199.396 3.1111 197.892C2.91302 197.846 2.84593 197.648 2.88747 197.484C2.82357 197.52 2.72773 197.5 2.70057 197.41C1.95225 194.946 1.57215 188.674 1.23303 185.959L1.21022 185.781C0.861998 183.144 0.662326 180.477 0.518563 177.823C0.227841 172.515 0.262983 167.201 0.655936 161.899C1.90668 144.989 6.88728 127.906 17.3405 114.316C19.8675 111.031 22.7444 108.025 26.1963 105.7C29.5827 103.419 33.3813 101.812 37.2358 100.508C39.7836 99.6443 42.3713 98.9056 44.959 98.1685C45.057 98.1196 45.155 98.0713 45.2534 98.0239L45.4015 97.9533C46.3216 97.5175 47.2273 97.0405 48.1698 96.6528L48.378 96.5682C49.7437 96.0211 51.3349 95.5369 52.8133 95.5536C55.2078 94.349 57.2189 92.5288 57.024 89.609C56.9441 88.4093 58.829 88.4109 58.8961 89.609C59.0718 92.7967 57.1056 95.0574 54.5992 96.5747L54.6112 96.5868L54.6231 96.6002C55.0145 97.0437 55.433 97.4553 55.8851 97.8382C58.591 100.139 62.0142 102.049 65.4358 103.306C69.45 104.782 73.461 105.223 77.6125 104.03C79.7833 103.406 81.8328 102.444 83.7161 101.2C84.2911 100.82 84.8422 100.413 85.371 99.9777C84.871 99.2949 84.4716 98.5594 84.1362 97.7792C83.4623 96.2093 82.9046 94.0826 83.5931 92.425C83.7624 92.0165 84.4349 91.7645 84.6697 92.2846C85.3166 93.7077 85.5866 95.2457 86.3406 96.637C86.6281 97.1666 86.9587 97.6691 87.3293 98.143C87.3293 98.1685 90.1599 98.6519 90.1599 98.6519C93.5815 98.6503 96.8034 99.9633 99.8304 101.603C101.62 102.573 103.378 103.604 105.132 104.637L108.558 106.656C108.811 106.805 109.094 106.948 109.376 107.101C109.046 105.471 108.884 103.808 108.993 102.16C109.157 99.6746 110.125 96.9561 112.689 96.0705C113.902 95.6509 115.304 95.7801 116.481 96.246C117.024 96.4614 117.616 96.747 118.12 97.1283C118.365 96.0306 119.395 95.2074 120.43 94.8438C120.766 94.7256 121.109 94.6506 121.457 94.6139C121.447 94.4377 121.446 94.2596 121.448 94.0761L121.451 93.9374C121.467 93.1238 121.46 92.3101 121.443 91.498C121.411 89.9584 121.337 88.4508 121.181 86.916C121.05 85.6454 120.823 84.3894 120.654 83.124L120.585 82.58C120.442 81.5085 120.204 80.1739 121.048 79.3457ZM18.1224 183.238L17.8368 183.068C16.9014 182.517 15.9379 182.009 14.8047 182.264C13.7252 182.507 12.9594 183.382 12.557 184.369C12.3669 184.835 12.2677 185.305 12.1944 185.801C12.1532 186.079 12.1254 186.36 12.0765 186.636L12.0602 186.722C12.038 186.832 12.0042 186.986 11.9733 187.119C11.6788 186.989 11.3821 186.784 11.1411 186.662L10.9467 186.565C10.4905 186.338 10.0158 186.122 9.51864 186.017C8.44169 185.789 7.24701 186.118 6.63139 187.082C6.10484 187.906 6.1156 188.877 6.31704 189.801L6.3314 189.865C6.41878 190.248 6.87035 191.783 7.52719 191.559C8.16598 191.341 8.25128 190.493 8.29968 189.928L8.30328 189.874C8.32506 189.448 8.24049 188.553 8.72362 188.391C9.32727 188.189 10.4887 189.112 11.0144 189.353C11.9545 189.784 12.9872 189.911 13.7522 189.073C14.438 188.321 14.4959 187.22 14.6734 186.266L14.7192 186.025C14.8134 185.541 14.9956 184.767 15.5326 184.786C15.9714 184.803 16.4531 185.257 16.8148 185.472C17.214 185.71 17.6285 185.909 18.0617 186.078C19.0727 186.472 20.1967 186.598 21.2723 186.482C21.8954 186.415 22.3011 186.117 22.5214 185.532C22.596 185.36 22.6529 185.183 22.6922 185C23.0413 183.689 21.1334 182.754 20.43 183.926C19.6183 183.896 18.8628 183.677 18.1224 183.238ZM135.544 174.475C134.962 174.061 134.172 174.15 133.652 174.617L133.622 174.646C133.477 174.785 133.152 175.147 132.942 175.465L132.876 175.414C132.866 175.406 132.855 175.398 132.845 175.39L132.817 175.366C132.387 175.003 131.938 174.67 131.384 174.522C129.942 174.135 128.632 175.099 128.003 176.335C127.704 176.922 127.576 177.527 127.427 178.159L127.415 178.218C127.355 178.512 127.277 179.11 127.018 179.256C126.923 179.309 126.707 179.203 126.494 179.08C126.007 178.8 125.57 178.442 125.093 178.147C123.974 177.453 122.702 177.166 121.446 177.666C120.201 178.161 119.31 179.329 119.289 180.69C119.274 181.693 119.946 183.443 121.212 183.321C121.465 183.296 121.792 183.14 121.833 182.849C121.942 182.074 121.33 181.123 122.032 180.483C122.71 179.865 123.412 180.385 124.026 180.814L124.466 181.122C125.18 181.618 125.916 182.071 126.821 182.126C127.965 182.194 129.021 181.563 129.597 180.59C130.118 179.71 130.125 178.716 130.533 177.812C130.621 177.615 130.851 177.433 130.775 177.342C131.083 177.503 131.481 177.965 131.673 178.095C132.63 178.739 133.909 178.735 134.748 177.88C135.082 177.54 135.295 177.12 135.542 176.719C135.632 176.574 135.743 176.44 135.825 176.291C135.855 176.237 135.904 176.033 135.944 175.852L136.006 175.563L136.013 175.516C136.066 175.08 135.911 174.737 135.544 174.475ZM98.6905 170.667C97.5913 170.09 96.2363 170.31 95.2461 171.008C94.1357 171.791 93.5909 172.994 93.2203 174.266C92.9507 175.192 92.8214 176.468 92.0465 177.139C91.1447 177.919 89.6327 177.091 88.6807 176.783C87.5288 176.411 86.1447 176.259 85.0208 176.809C83.9194 177.349 83.3886 178.449 83.2749 179.627C83.1687 180.727 83.3265 182.176 83.9547 183.096C84.0165 183.187 84.1346 183.163 84.1737 183.067C84.5866 182.052 84.5071 180.89 84.8424 179.839C85.2004 178.717 86.0393 178.48 87.1044 178.782C88.2154 179.096 89.2328 179.685 90.3754 179.895C91.5935 180.119 92.7997 179.888 93.76 179.084C94.568 178.408 95.0573 177.422 95.3879 176.441C95.7101 175.484 95.7627 174.202 96.4489 173.408C96.6221 173.207 96.9238 172.965 97.204 172.939C97.6203 172.901 97.7707 173.21 98.107 173.447C98.994 174.072 100.41 174.085 100.953 172.985C101.131 172.625 101.219 172.114 100.953 171.761C100.487 171.144 100.104 171.149 99.4885 171.282C99.469 171.266 99.4471 171.245 99.4226 171.216L99.4037 171.193C99.2409 170.987 98.9248 170.79 98.6905 170.667ZM55.1562 164.177C55.1198 163.35 54.1235 162.557 53.3376 163.135C53.2108 163.227 53.086 163.321 52.9636 163.419L52.9135 163.473C52.7673 163.473 52.6309 163.435 52.4865 163.389L52.2339 163.308C51.5707 163.097 50.9331 162.928 50.2253 163.083C49.0073 163.35 48.2345 164.4 47.8377 165.514C47.4679 166.552 47.5893 167.611 47.4158 168.676C47.2514 169.685 46.7321 170.079 45.7571 169.863L45.7071 169.851C43.7677 169.387 41.5581 168.09 39.8578 169.869C38.021 171.79 39.2226 174.841 41.2332 176.075C41.321 176.129 41.4182 176.04 41.3982 175.948C41.1311 174.708 40.3517 173.524 40.6129 172.207C40.7939 171.294 41.429 170.862 42.3354 171.007C44.2417 171.314 46.0247 172.831 47.9798 171.73C48.9565 171.179 49.4946 170.146 49.7379 169.087C49.9571 168.134 49.8949 167.06 50.3149 166.161C50.7743 165.177 51.548 165.89 52.3819 166.025C53.5615 166.215 55.219 165.597 55.1562 164.177ZM119.111 134.784C119.115 133.963 117.837 133.962 117.833 134.784C117.786 145.19 112.912 154.808 112.037 165.11C111.968 165.928 113.246 165.924 113.315 165.11C114.191 154.805 119.064 145.206 119.111 134.784ZM13.5887 151.817C12.9159 151.056 11.9303 151.292 11.1297 151.673C9.92724 152.246 8.7765 152.89 7.67335 153.634C7.40196 153.817 7.57304 154.214 7.89251 154.153C8.70158 153.998 9.48908 153.824 10.274 153.572C10.8639 153.383 11.478 153.108 12.0931 153.01C12.0546 153.152 12.0078 153.29 11.9527 153.426C11.8518 153.705 11.7345 153.978 11.635 154.258C11.437 154.815 11.2586 155.38 11.0857 155.946L10.9996 156.228C10.64 157.414 10.2906 159.14 11.95 159.505C12.5657 159.64 13.1759 159.372 13.7486 159.162L13.8665 159.119L15.9556 158.379C16.2044 158.291 16.6654 158.23 16.8718 158.076L16.8388 158.234C16.7961 158.444 16.7541 158.65 16.6635 158.86L16.613 158.975C16.0941 160.15 15.4398 161.326 16.045 162.625C16.5635 163.738 17.7892 164.266 18.9703 163.95C20.0928 163.65 20.905 162.387 20.3239 161.289C20.1074 160.88 19.4738 160.68 19.0712 160.935L18.963 161.007C18.8362 161.09 18.6179 161.232 18.6126 161.258C18.5826 161.266 18.5511 161.274 18.5192 161.281C18.5869 161.082 18.6326 160.776 18.692 160.641L18.9107 160.145C19.3174 159.213 19.6699 158.265 19.3596 157.22C18.4709 154.228 15.4575 155.929 13.2346 156.783C13.267 156.657 13.2991 156.532 13.3263 156.409C13.4221 155.976 13.527 155.545 13.6307 155.114L13.8433 154.224C14.0347 153.404 14.1837 152.49 13.5887 151.817ZM127.32 148.477C127.322 148.406 127.234 148.352 127.173 148.393C125.752 149.347 124.801 151.34 125.335 153.037C125.595 153.861 126.146 154.584 126.92 154.984C127.883 155.482 128.945 155.292 129.956 155.08L130.386 154.988C130.689 154.924 130.987 154.878 131.295 154.963C131.401 154.992 131.524 155.084 131.624 155.104C131.583 155.174 131.539 155.296 131.516 155.342L131.443 155.489C131.37 155.638 131.298 155.793 131.253 155.95C131.102 156.476 131.139 157.04 131.384 157.531C131.84 158.445 132.796 158.96 133.791 159.047C134.384 159.1 135.879 158.581 136.232 159.21C136.933 160.457 138.93 159.618 138.542 158.237C138.28 157.303 137.535 156.7 136.613 156.447C136.121 156.313 135.612 156.331 135.112 156.386C134.917 156.407 134.722 156.438 134.526 156.458L134.378 156.472C134.417 156.469 133.972 156.458 133.794 156.446L133.832 156.344C133.837 156.33 133.842 156.317 133.847 156.307C134.046 155.883 134.193 155.46 134.181 154.986C134.159 154.13 133.605 153.384 132.876 152.972C132.205 152.592 131.406 152.441 130.642 152.526C129.803 152.619 128.611 153.282 127.786 152.933C127.165 152.669 126.954 151.75 126.944 151.148C126.93 150.241 127.294 149.381 127.32 148.477ZM69.4345 142.527C67.148 141.502 65.1845 143.253 63.8427 144.928C63.7735 145.014 63.8606 145.16 63.9697 145.092L64.1479 144.981C65.2434 144.295 66.4582 143.484 67.8157 143.718C69.0448 143.93 69.3492 144.733 69.1046 145.828L69.0327 146.135C68.7728 147.263 68.5734 148.429 69.2209 149.478C69.8322 150.467 71.025 150.9 72.142 150.926C73.4306 150.957 74.5427 150.358 75.7209 149.941L75.814 149.908C76.3143 149.736 78.1396 149.285 78.1649 150.312C78.1767 150.781 77.6735 151.332 77.4801 151.754C77.2269 152.306 77.0584 152.886 77.0614 153.499C77.0689 155.028 78.3459 156.269 79.8568 155.528C80.4442 155.239 80.5956 154.412 80.2892 153.88C79.8578 153.131 79.6831 153.17 79.9855 152.383L80.0727 152.162C80.4447 151.214 80.7409 150.238 80.3229 149.243C79.4882 147.255 76.9851 147.014 75.1968 147.673L75.1315 147.697C74.0184 148.128 70.6849 149.854 70.9147 147.413C71.0051 146.452 71.2972 145.53 71.093 144.558C70.9032 143.656 70.2728 142.903 69.4345 142.527ZM58.4169 134.365C57.9995 133.631 56.5983 133.894 56.7144 134.826L56.7516 135.116C56.7991 135.513 56.8095 135.886 56.5349 136.239C56.2017 136.667 55.6312 136.797 55.1135 136.731C54.0174 136.593 53.3184 135.578 52.1121 135.815C51.1329 136.007 50.4567 136.807 50.0652 137.68C49.6507 138.604 49.6595 139.606 49.3507 140.557C48.9951 141.652 48.2369 141.601 47.2899 141.218L47.0861 141.135C46.1802 140.758 45.2713 140.341 44.262 140.52C42.5855 140.819 41.1418 143.394 42.7125 144.637C42.996 144.861 43.4915 144.744 43.4796 144.32L43.478 144.239C43.47 143.467 43.6651 142.47 44.5512 142.288C45.491 142.095 46.5527 142.952 47.4254 143.198C49.6855 143.837 50.973 142.138 51.3568 140.128L51.3709 140.051C51.4934 139.348 51.5902 138.047 52.3268 137.717C52.7196 137.542 53.1385 137.974 53.4668 138.148C53.9768 138.418 54.5241 138.59 55.1011 138.634C57.2355 138.796 59.6608 136.554 58.4169 134.365ZM111.829 131.59C111.126 131.285 110.077 131.455 109.905 132.371L109.801 132.948C109.596 134.063 109.271 135.456 108.174 135.857C107.488 136.108 106.701 135.668 106.086 135.4C105.347 135.078 104.626 134.801 103.817 134.725C102.176 134.569 100.953 135.518 100.372 137L100.322 137.132C99.8534 138.378 99.2205 140.76 100.246 141.771C100.396 141.918 100.697 141.99 100.881 141.853C101.487 141.399 101.64 140.653 101.848 139.953L101.866 139.893C102.087 139.166 102.268 138.366 102.666 137.711C103.407 136.494 105.34 137.884 106.27 138.205C107.797 138.732 109.38 138.424 110.547 137.297C111.284 136.585 111.72 135.683 112.02 134.729C112.211 134.828 112.41 134.914 112.624 134.971C113.438 135.192 114.405 135.076 115.025 134.459C116.189 133.302 115.558 131.227 113.783 131.563C113.433 131.629 113.204 131.962 113.162 132.303L113.138 132.357C112.692 132.209 112.203 131.752 111.829 131.59ZM29.5776 121.254C27.9192 119.55 25.0413 120.474 23.907 122.281C23.6717 122.656 24.0603 123.131 24.4734 123.017C25.4607 122.746 26.854 121.676 27.8974 122.357C28.6708 122.861 28.2501 124.18 28.1793 124.918L28.1691 125.028C28.0796 126.033 28.0593 127.407 28.8425 128.159C29.2934 128.592 29.9849 128.533 30.5795 128.471L30.7685 128.452C31.4694 128.381 32.1657 128.258 32.8371 128.042C33.4543 127.845 34.0391 127.576 34.6191 127.291L34.764 127.22C35.0207 127.092 35.8767 126.588 36.1331 126.905C36.2668 127.07 35.9355 127.794 35.8666 127.956C35.6066 128.563 35.2759 129.135 35.0374 129.753C34.6172 130.842 34.582 132.07 35.1723 133.109C35.7441 134.116 36.9832 134.932 38.0814 134.158C38.7101 133.715 38.7084 132.91 38.0814 132.467C37.7496 132.232 37.4151 132.077 37.2781 131.684C37.0992 131.171 37.3294 130.627 37.5523 130.152L37.819 129.587C38.4101 128.326 39.0006 126.875 38.1749 125.585C37.3222 124.254 35.5892 124.233 34.2782 124.787C33.53 125.104 32.8473 125.529 32.0676 125.773C31.5282 125.943 30.9867 126.056 30.4341 126.118C30.311 125.454 30.4853 124.711 30.487 124.051C30.4899 123.049 30.303 121.999 29.5776 121.254ZM115.095 97.5495C112.296 97.1394 110.942 99.6395 110.748 102.047C110.574 104.233 110.929 106.425 111.483 108.55C111.691 109.338 111.924 110.117 112.168 110.882C112.561 112.113 112.988 113.341 113.507 114.525C113.665 114.882 113.825 115.241 114.004 115.586C114.617 116.088 115.141 116.764 115.618 117.413L115.931 117.842L116.015 117.958C116.825 119.065 117.516 120.214 118.082 121.463C118.62 122.653 119.021 123.893 119.333 125.16L119.41 125.476C119.649 126.45 120.003 127.613 119.575 128.52C120.414 128.778 121.248 129.013 122.139 129.137C123.369 129.31 124.649 129.321 125.89 129.276C127.089 129.232 128.287 129.139 129.481 129.012L130.341 128.917C130.431 128.907 130.52 128.896 130.609 128.885C130.575 128.844 130.546 128.797 130.525 128.747C130.219 128.013 130.258 127.162 130.224 126.372L130.22 126.285C130.176 125.409 130.148 124.533 130.137 123.655C130.117 122.009 130.161 120.358 130.342 118.719C130.498 117.285 130.743 115.851 131.124 114.458C131.509 113.046 132.097 111.72 132.64 110.364C133.177 109.024 133.62 107.647 133.572 106.185C133.541 105.257 133.337 104.354 132.99 103.5C132.974 103.513 132.954 103.523 132.93 103.521C131.842 103.481 130.811 103.167 129.76 102.902C128.645 102.62 127.503 102.388 126.363 102.251L126.12 102.223C125.17 102.116 124.134 102.064 123.256 102.471C122.305 102.913 121.706 103.896 121.345 104.839L121.305 104.948C120.664 106.735 120.811 109.121 122.794 109.967C123.409 110.23 124.813 110.391 125.13 109.558C125.272 109.179 124.979 108.617 124.869 108.258C124.74 107.83 124.655 107.409 124.665 106.962C124.672 106.571 124.972 106.275 125.353 106.243L125.388 106.241C126.082 106.211 127.511 105.413 127.65 106.562C127.677 106.785 127.506 107.02 127.326 107.129C126.962 107.344 126.582 107.488 126.185 107.575C126.24 107.814 126.316 108.049 126.392 108.282C126.436 108.26 126.486 108.245 126.538 108.24C127.125 108.193 127.705 108.285 128.291 108.291L128.611 108.294C129.066 108.298 129.463 108.323 129.904 108.558C130.311 108.775 130.24 109.319 129.904 109.552C129.024 110.161 127.534 109.804 126.617 109.185C126.657 109.499 126.637 109.82 126.503 110.156C126.107 111.155 124.971 111.653 123.956 111.696C123.053 111.734 122.19 111.45 121.47 110.953C121.323 111.478 121.087 111.982 120.984 112.526C120.85 113.24 121.01 114.076 120.761 114.748C120.512 115.425 119.548 115.878 118.991 115.214C118.175 114.244 118.429 112.708 119.146 111.725C119.528 111.205 120.221 110.608 120.927 110.514C120.436 110.053 120.044 109.483 119.796 108.855C119.778 108.863 119.758 108.864 119.735 108.858C117.44 108.231 116.191 106.154 116.114 103.973C115.945 104.094 115.769 104.203 115.585 104.3C115.146 104.536 114.582 104.328 114.446 103.839C114.322 103.382 114.684 102.819 115.194 102.857C115.485 102.881 115.777 102.883 116.066 102.835C116.106 102.829 116.144 102.821 116.184 102.813C116.21 102.645 116.243 102.478 116.285 102.312C115.418 102.411 114.51 102.269 113.672 102.084C112.95 101.926 113.117 100.779 113.844 100.806L113.961 100.811C114.914 100.857 116.322 101.01 117.14 100.407C117.283 100.199 117.443 100.003 117.616 99.8182C117.638 99.7719 117.657 99.7226 117.675 99.6714C118.114 98.4078 116.033 97.6867 115.095 97.5495ZM89.9727 115.326C88.8831 115.035 87.7365 115.431 86.9872 116.253C86.3575 116.943 86.0314 117.791 85.74 118.658L85.5736 119.157C85.3313 119.863 85.0531 120.424 84.1875 120.154C83.0779 119.809 82.1162 119.208 80.9097 119.256C79.8129 119.299 78.7396 119.77 77.9761 120.56C77.1951 121.367 76.8222 122.493 76.988 123.602L76.9988 123.67C77.0852 124.18 77.8333 126.004 78.6262 125.164C78.98 124.79 78.9102 124.376 78.9943 123.9C79.0741 123.447 79.245 123.003 79.5251 122.635C80.0215 121.984 80.82 121.73 81.6007 121.961C82.6303 122.264 83.5397 122.891 84.6489 122.906C85.8158 122.921 86.8065 122.317 87.4501 121.368C87.9697 120.602 88.155 119.706 88.5207 118.873L88.5559 118.793C88.8629 118.108 89.0721 117.861 89.7753 118.188L90.021 118.306C91.0737 118.806 92.258 119.263 93.3465 118.559C94.3578 117.904 94.7889 116.589 93.9383 115.632C93.469 115.103 92.3826 115.193 92.0777 115.871C92.0242 115.988 91.9745 116.106 91.9256 116.225C91.8325 116.196 91.7419 116.162 91.656 116.114C91.0854 115.857 90.5899 115.49 89.9727 115.326ZM58.166 107.585C56.9231 106.916 55.8856 108.231 56.0841 109.419L56.0937 109.471C56.101 109.507 56.1178 109.586 56.1387 109.675C56.0753 109.668 56.0125 109.656 55.9499 109.64L55.6612 109.605C55.2073 109.552 54.7673 109.525 54.3129 109.671C53.2406 110.014 52.7133 111.055 52.6875 112.122C52.6617 113.185 53.2125 114.043 53.3743 115.058C53.5399 116.097 52.4634 115.801 51.7607 115.725L51.7332 115.722C50.7556 115.623 49.7278 115.621 48.9154 116.258C48.0763 116.915 47.7046 118.05 47.8231 119.09C47.9302 120.029 48.5185 121.474 49.5842 121.623C49.6895 121.637 49.8093 121.614 49.8633 121.509C50.2943 120.672 49.6946 119.748 49.7623 118.865C49.8369 117.894 50.4569 117.732 51.3116 117.795C52.1411 117.856 52.9686 118.032 53.7879 117.785C54.6767 117.517 55.3217 116.755 55.5041 115.856C55.7052 114.866 55.3356 113.945 55.0958 113.004C55.0161 112.691 54.977 112.377 55.0319 112.057C55.0437 111.988 55.1038 111.924 55.1255 111.897C55.2619 111.871 55.4661 111.937 55.5828 111.949L55.7485 111.965C56.6486 112.046 57.5157 111.992 58.1589 111.249C58.4886 110.869 58.6102 110.403 58.5774 109.912L58.5608 109.714C58.5433 109.524 58.5096 109.272 58.4104 109.167L58.4091 109.162C58.4424 109.117 58.474 109.071 58.5029 109.024L58.531 108.975C58.8067 108.516 58.6468 107.843 58.166 107.585ZM121.839 95.9397C120.601 95.9397 119.432 96.3433 118.496 97.4426C118.83 97.7601 119.096 98.1286 119.243 98.561C119.702 98.3105 120.187 98.1144 120.684 97.9754C122.2 97.5527 124.273 97.559 125.548 98.5977C126.216 99.1401 125.483 100.113 124.764 99.9458C124.12 99.7958 123.561 99.5182 122.885 99.4863C122.299 99.4576 121.724 99.5342 121.162 99.7033C120.304 99.9619 119.524 100.452 118.951 101.126C118.759 101.353 118.592 101.599 118.451 101.864C117.381 103.893 118.187 106.803 119.665 108.473C119.085 106.549 119.663 104.281 120.818 102.687C122.209 100.768 124.288 100.55 126.479 100.85L126.551 100.86C128.671 101.158 131.295 101.68 132.88 103.236C132.722 102.877 132.54 102.529 132.335 102.192C131.134 100.217 129.142 98.6758 127.075 97.5766C126.729 97.3899 126.379 97.2176 126.03 97.0581C124.706 96.4502 123.23 95.9397 121.839 95.9397ZM122.516 80.8661L122.511 80.8886C122.51 80.8927 122.509 80.897 122.508 80.9012C122.435 81.55 122.608 82.2947 122.696 82.9494L122.708 83.0423C122.893 84.5324 123.138 86.0241 123.217 87.5254C123.295 88.9691 123.265 90.4666 123.092 91.9041L123.066 92.1091C122.964 92.8924 122.903 93.8114 122.638 94.6155C123.657 94.7128 124.676 95.0399 125.602 95.3878C125.935 95.5137 126.265 95.6461 126.594 95.7867C126.182 93.5992 125.962 91.38 125.515 89.199L125.426 88.765C124.94 86.3524 124.484 83.9243 123.227 81.7659C123.059 81.4788 122.879 81.2378 122.674 80.981C122.63 80.9221 122.577 80.8838 122.516 80.8661Z" fill="black"/>
<path fill-rule="evenodd" clip-rule="evenodd" d="M94.8117 54.3653C94.4322 49.4603 95.0204 44.3192 93.1268 39.6571C89.8254 31.9216 80.5676 29.3425 73.3905 26.3975C70.5152 25.5489 60.8402 25.4303 57.4735 24.3073C49.854 21.7655 48.0335 18.7369 41.9791 23.5766C40.9571 24.4034 40.3177 25.3019 39.8513 26.5296L39.8704 26.5349C39.7372 27.0467 39.88 27.5574 40.1802 27.9474C37.5551 30.6274 36.4565 34.6453 37.8034 38.2129C42.1989 47.4965 41.9922 52.5162 40.576 62.4965C38.7266 71.8138 42.9527 75.2173 49.9518 80.2869C49.6668 80.8388 49.6077 81.5722 49.9793 82.0591C58.0727 93.4184 73.3328 98.8419 86.4078 93.0764C91.7151 90.7171 94.0845 85.0719 95.4366 79.9782C97.0118 74.2747 97.4958 68.2648 96.2134 62.4549C95.6962 59.7678 95.0224 57.1003 94.8117 54.3653Z" fill="white"/>
<path fill-rule="evenodd" clip-rule="evenodd" d="M48.1271 0.0220267C49.1095 -0.125312 49.8514 0.483458 50.2043 1.34151L50.2229 1.38771C50.3363 1.67967 50.4625 1.96366 50.5982 2.24286C53.0566 1.03831 56.5644 1.34782 58.1203 3.78723C59.2304 5.52943 58.5532 7.5971 58.1346 9.4446L57.8599 10.6619C58.391 10.9995 58.7915 11.6039 58.7727 12.2299L58.7704 12.2781L58.6586 13.9756C59.0132 13.6166 59.3375 13.2258 59.6266 12.8093C59.8263 12.444 60.0419 12.085 60.2735 11.7372C61.6361 9.6903 64.695 11.4692 63.5705 13.6613C63.3549 14.0841 63.1121 14.4845 62.8517 14.8706C62.5578 15.4402 62.3166 16.0257 62.1313 16.6272C62.6632 16.8585 63.0721 17.3723 63.1152 18.1476C63.2159 19.9584 62.2638 21.4693 60.7495 22.4186C60.3039 22.6978 59.8438 22.752 59.4269 22.6483C59.3534 22.7472 59.28 22.8462 59.2097 22.9467C59.8135 23.4365 60.3582 23.9949 60.8262 24.6139C62.2351 24.4033 63.652 24.3044 65.0688 24.3012C66.8004 23.454 68.8738 23.4716 70.7347 23.7891C71.9327 23.9933 73.0828 24.3905 74.2617 24.6761C75.5045 24.9761 76.7664 24.9872 78.0235 25.1914C79.6081 25.4483 80.9978 26.179 81.8716 27.3453C82.8316 27.374 83.8411 27.7664 84.6782 28.2993C86.627 29.5406 88.5646 30.7993 90.5086 32.0486C91.2547 32.5282 91.5336 33.2938 91.3964 34.1478L91.3871 34.2024L91.3216 34.5566L91.4754 34.7746C92.0704 35.6137 92.7177 36.4926 93.1027 37.4188C93.8151 38.4446 94.4589 39.5199 95.0291 40.6288C95.7975 42.1189 96.4316 43.6983 96.8613 45.3193C96.9684 45.7293 97.0754 46.1425 97.1457 46.5605C97.2463 47.1508 97.0913 47.6087 97.0067 48.1751C96.9013 48.8931 96.8629 49.6206 96.7511 50.3401C96.676 50.8171 96.2703 51.0517 95.8454 51.0644C96.0051 52.2785 96.1201 53.5006 96.2304 54.7132C96.3853 56.4458 96.4907 58.1832 96.5818 59.9206C97.0514 60.6019 98.0114 61.1411 98.7047 61.3278C99.6647 61.5846 100.671 61.3054 101.578 60.9784C102.149 60.7726 102.617 61.4889 102.339 61.9675C101.465 63.4704 99.596 63.4641 98.1808 62.7988C97.5817 62.518 97.0562 62.1111 96.6664 61.5815C96.6904 62.0856 96.716 62.5898 96.7415 63.0955L96.7653 63.5536C97.0531 68.9034 97.6744 74.4372 96.668 79.7342C94.9253 88.9095 87.323 95.8958 78.0363 96.4383C73.163 96.723 69.1048 95.2853 67.0868 94.4834C65.0688 93.6814 65.8532 92.0462 67.2541 92.5136C69.6674 93.3189 74.1007 94.5185 78.0682 94.0005C87.4193 92.7795 95.3486 88.1115 94.534 68.0062C94.4184 65.1551 94.0627 62.3026 93.9861 59.4516C93.9126 56.6644 93.9397 53.8756 93.8167 51.09L93.7757 50.1395C93.7277 49.029 93.6763 47.9133 93.5931 46.8014C93.4925 46.3707 93.4094 45.9335 93.2864 45.5108C92.9526 44.3605 92.5165 43.2421 91.975 42.1747C91.8552 42.2657 91.721 42.3311 91.5756 42.3566C90.4718 42.5544 89.4367 42.4986 88.4032 42.0391C87.9208 41.8269 87.4959 41.5445 87.0998 41.1951C86.9113 41.0308 86.7851 40.8713 86.6861 40.7053C86.1861 40.7133 85.6861 40.5633 85.373 40.2044C85.0159 39.7952 84.9566 39.3726 85.0964 38.9814L85.1111 38.9424L85.0759 38.9296C84.6542 40.0193 83.814 40.9782 82.8923 41.6259C81.4355 42.6533 79.6129 42.9501 77.8654 42.9772C75.9358 43.0059 73.9007 42.7092 71.9966 42.4061C71.4935 42.3263 70.9935 42.2353 70.5031 42.1125C70.4839 42.1316 70.4648 42.154 70.444 42.1731C68.8099 43.735 66.5113 44.1371 64.4379 43.2453C63.2398 42.7299 62.2351 41.9003 61.347 40.9494C61.3342 41.4472 61.3086 41.945 61.2655 42.438L61.2476 42.6337C61.1592 43.5519 60.989 44.5258 60.2943 45.1885C59.1713 46.2622 57.542 45.8314 56.2465 45.1326C56.2481 45.1661 56.2481 45.2012 56.2481 45.2363C56.598 46.4233 56.9494 47.6119 57.3008 48.8005L57.3765 49.0537C57.632 49.8977 57.9123 50.7427 57.9893 51.626C58.1362 53.314 57.0117 54.9812 55.1332 54.4148C54.1478 54.1188 53.3584 53.2913 52.601 52.6285L52.1237 52.2163C53.3585 56.248 54.2147 60.4232 54.2946 64.6303C54.2994 64.8585 54.1029 65.0308 53.8856 65.0387C53.3777 65.0595 52.8314 64.959 52.3202 64.7563C52.2915 64.7548 52.2627 64.7532 52.2323 64.7484C51.3602 64.6223 50.5503 64.308 49.8363 63.8438C50.0008 64.3655 50.0743 64.9255 50.0312 65.511C50.02 65.653 49.798 65.7024 49.766 65.5461C49.3539 63.5215 46.9818 61.9915 44.9372 62.3792C42.7424 62.7956 41.1258 64.6814 40.7297 66.8272C40.3048 69.1326 41.1178 71.7985 42.6242 73.5774C43.3174 74.3975 44.2295 75.0819 45.3125 75.2542C45.8077 75.3324 46.3221 75.3053 46.8029 75.1649C47.0073 75.1043 47.199 75.0197 47.3939 74.9399C47.6782 74.8251 48.0105 74.8075 48.2789 74.6863C48.8875 74.4135 49.4992 74.9734 49.191 75.5973C48.9226 76.1413 48.6814 76.5082 48.2357 76.789C48.5967 77.2294 48.9242 77.842 49.0456 78.0063C49.6654 78.8423 50.2947 79.6321 51.0008 80.3963C51.7196 81.1717 52.5039 81.88 53.3329 82.5358L53.6814 82.8108C54.4799 83.4433 55.1753 84.0295 55.7386 84.9369C56.1827 85.6532 55.6076 86.6248 54.7754 86.6137C52.1716 86.577 50.2788 84.2923 48.9306 82.2964C48.7389 82.0109 48.5584 81.7093 48.3907 81.3998C48.33 81.4971 48.2629 81.5881 48.1878 81.671L48.3364 82.0699C48.7772 83.2441 46.878 84.0115 46.3269 82.9155C45.9259 82.1209 45.4611 81.3647 44.9435 80.65C44.6384 80.6069 44.3397 80.4218 44.1736 80.1825C43.7535 79.5746 43.2823 78.9604 42.8845 78.3127C42.6641 78.1037 42.4373 77.9026 42.2056 77.7064C42.1386 77.7654 42.0699 77.8245 42.0044 77.8867C41.7137 78.5488 41.3542 79.1535 40.9086 79.723L40.813 79.8445C39.9592 80.9192 38.8472 82.0192 37.471 82.2821C37.0509 82.3618 36.6468 81.8401 37.019 81.5067C37.9822 80.642 39.1211 80.0533 40.0093 79.088C40.4468 78.6125 40.8486 78.0888 41.1941 77.5399L41.2728 77.4128C41.3303 77.3187 41.3894 77.2246 41.4501 77.1289C41.0491 76.856 40.6482 76.5816 40.2473 76.3072C39.1435 77.249 37.7062 77.6798 36.4854 78.46L36.3641 78.5392C35.2603 79.2763 34.0974 77.6458 34.9823 76.7507C35.9578 75.7678 36.7722 74.5956 37.6364 73.5031C37.23 72.7555 37.0377 71.8715 36.9656 70.978C36.9372 70.7252 36.915 70.4721 36.8928 70.2191C36.273 70.2287 35.65 70.0165 35.1229 69.6511L34.9232 69.5091C34.2827 69.7133 33.6102 69.8122 32.9664 69.7947C31.4521 69.75 30.8324 68.0222 31.7796 66.9293C32.746 65.8125 34.4376 65.5684 35.7778 66.1109C35.821 66.0885 35.8657 66.0646 35.9088 66.0407C35.8449 65.7471 35.8591 65.4808 35.9318 65.2469L35.9107 65.1043C35.616 64.6526 35.4222 64.137 35.3488 63.5922C35.2906 63.1606 35.3024 62.7329 35.4024 62.3067C35.4357 62.1649 35.5048 62.018 35.5577 61.8701C35.4488 61.5953 35.3847 61.3114 35.3649 61.0258C35.3344 60.9896 35.304 60.9524 35.2753 60.9122C34.6103 59.9797 34.7446 58.856 35.3775 58.1014C35.3804 58.0533 35.3849 58.0053 35.3914 57.9576C35.3544 57.8743 35.3203 57.7903 35.2893 57.7052C34.671 57.0822 34.217 56.3325 34.3017 55.4035C34.3514 54.8569 34.5763 54.3649 34.9167 53.9971C34.8563 53.8188 34.8505 53.6122 34.9237 53.4397C34.3804 51.9965 34.4491 50.2583 34.8402 48.6442C34.7539 48.3985 34.7092 48.132 34.7188 47.8496C34.7635 46.6515 35.8018 45.5506 37.0318 45.565C37.1798 45.5663 37.3185 45.5856 37.4517 45.6138L37.4535 45.5853C37.5006 45.2256 37.5996 44.8933 37.7442 44.5951C37.6731 44.5695 37.6073 44.5326 37.5496 44.4836C36.7615 44.9035 35.9275 45.2245 35.0531 45.4433C34.4102 45.6041 33.7516 44.8742 34.1512 44.2714C34.3367 43.9917 34.5413 43.7406 34.7617 43.5112C34.4483 43.513 34.1301 43.5342 33.8083 43.5755C33.23 43.6505 32.5847 43.2564 32.2093 42.7235C31.7429 43.1766 31.2748 43.6282 30.8068 44.0797C29.6216 45.2268 27.8309 44.3828 27.644 42.8703C27.291 42.7762 26.9619 42.6166 26.6728 42.3885C24.8039 43.199 22.7928 43.6441 20.737 43.7287C19.261 43.7893 18.3984 42.0726 19.0885 40.8601C19.5517 40.0464 20.1268 39.3157 20.7897 38.6807C19.761 38.995 18.6987 39.2216 17.6141 39.3668C17.0279 39.445 16.1988 38.9599 15.964 38.4223C15.0663 36.3546 15.143 34.1992 16.1765 32.1874C16.2164 32.1076 16.2611 32.031 16.3043 31.9544C16.4113 31.688 16.5279 31.4248 16.6541 31.1663C15.3826 29.8421 15.2724 27.8733 15.9576 26.2253C15.6829 25.7801 15.5775 25.2441 15.7643 24.7591C16.2963 23.3631 17.063 22.074 18.031 20.9668C17.9384 20.7881 17.8569 20.5982 17.7882 20.394C17.2435 18.7427 17.8745 16.75 19.1476 15.5997C19.9479 14.8754 20.868 14.4415 21.8503 14.1639C22.2641 13.4332 22.796 12.7742 23.4158 12.219C23.4397 12.1664 23.4637 12.1137 23.4908 12.0611C24.4557 10.2455 26.2128 9.27229 28.0961 9.04734C28.1695 8.33738 28.6488 7.65932 29.3452 7.43915C29.5369 6.82491 29.8228 6.2378 30.2158 5.70493C30.834 4.86573 31.8611 4.47007 32.8291 5.02049C33.3594 5.32202 33.8674 5.66823 34.3434 6.05113C34.5572 5.95099 34.7996 5.88619 35.073 5.86552L35.1421 5.86128L36.7171 5.78151C37.3768 5.48954 38.0349 5.18322 38.6946 4.88488C39.0908 4.55782 39.5332 4.285 40.0156 4.08238C40.562 3.85424 41.121 3.72501 41.6817 3.68193C42.137 3.53355 42.5954 3.40273 43.0618 3.30062C44.1576 3.06131 45.3046 2.92729 46.4419 2.93846C46.4652 2.64445 46.4767 2.34692 46.4745 2.04587L46.4722 1.89505C46.4467 0.929823 47.2182 0.159233 48.1271 0.0220267ZM47.0233 77.2485C46.8668 77.282 46.7086 77.3091 46.5505 77.3283C46.5984 77.4464 46.6463 77.5644 46.6927 77.6825C46.8205 77.7543 46.9498 77.8229 47.0792 77.8867C47.0409 77.6697 47.0185 77.4511 47.0233 77.2485ZM38.8165 74.8128L38.7103 75.0081C38.6931 75.04 38.6761 75.0716 38.6595 75.1027C38.8847 75.0851 39.1115 75.0899 39.3352 75.1154L39.3345 75.0917C39.3058 75.0819 39.277 75.073 39.2495 75.0596C39.0952 74.9856 38.9518 74.9026 38.8165 74.8128ZM43.2519 65.9019C44.6652 65.9841 45.8625 66.2005 47.1477 66.818L47.2581 66.8719C48.3939 67.4351 50.2724 68.4753 50.1142 69.967C50.0695 70.3914 49.7612 70.8381 49.2756 70.8046C47.945 70.7137 47.1847 69.3735 46.2837 68.5375C45.3748 67.6951 44.2583 66.8288 43.1577 66.2497C43.0021 66.1681 43.0634 65.9101 43.2327 65.9018L43.2519 65.9019ZM36.8433 46.2478C36.5046 46.259 36.618 46.5877 36.7922 46.3133C36.8065 46.2909 36.8241 46.2686 36.8433 46.2478ZM55.123 24.3072C51.9158 24.3915 48.6879 26.2829 46.2853 28.1947C44.1952 29.8579 42.3903 31.8362 40.7921 33.9685C40.381 35.0304 40.0279 36.1145 39.7297 37.2066C39.5332 37.9277 39.4102 38.6568 39.2457 39.3843L39.1946 39.6074C39.0654 39.8486 38.9694 40.1082 38.8994 40.3764C39.1906 40.668 39.5684 40.8768 39.9843 40.9759C40.1184 41.0078 40.2297 41.0769 40.3177 41.1685C40.6525 40.6104 40.9452 40.0214 41.1154 39.3969L41.1217 39.368C41.7653 38.3152 42.4643 37.2951 43.2136 36.3099C45.2806 33.5897 47.5568 31.1105 50.2931 29.0476C52.3681 27.4841 54.6875 26.2588 57.1539 25.4627C56.5502 24.9762 55.8646 24.5914 55.123 24.3072Z" fill="black"/>
<path fill-rule="evenodd" clip-rule="evenodd" d="M89.1628 75.1174C89.2015 74.9965 89.3697 74.9968 89.4083 75.1174C89.7594 76.2104 89.9656 77.2808 90.4899 78.3086C90.6194 78.4418 90.7123 78.6095 90.7619 78.7906C91.0068 79.1969 91.2796 79.5827 91.5849 79.9479C91.9689 80.4074 92.2483 80.8389 92.0448 81.4661C91.9445 81.7751 91.6854 81.9728 91.3589 81.9876C90.4624 82.0282 89.9517 81.1743 89.6347 80.284C87.4162 81.0198 84.9735 81.4364 82.6484 81.2534C80.7584 81.1044 78.6995 80.6315 77.0073 79.6676C77.0174 80.0316 77.0312 80.396 77.044 80.7606C77.0677 81.4348 77.2493 82.1727 77.179 82.8348C77.1094 83.4918 76.7359 84.0001 76.0591 84.1019C75.4765 84.1893 74.7555 83.8008 74.6419 83.1777C74.5103 82.4543 74.754 81.949 74.9545 81.2662C75.1317 80.6628 75.2706 80.0463 75.4233 79.4364C75.5773 78.8206 75.7034 78.1995 75.8176 77.5755C75.9013 77.1187 75.8409 76.604 76.0029 76.1737C76.0156 76.1401 76.0485 76.116 76.0858 76.1267C76.9476 76.374 76.9965 77.7598 76.993 78.5034L76.9928 78.5401C76.9915 78.6916 76.9929 78.8432 76.9945 78.9946L77.3238 79.0666C79.1315 79.4573 80.8873 79.7541 82.788 79.6463C85.0176 79.5201 86.9782 78.706 89.0941 78.1481C88.9184 77.1444 88.8644 76.0495 89.1628 75.1174ZM81.7067 55.3391C82.6961 55.0007 83.7657 54.8409 84.8062 54.8921C87.0365 55.0022 89.1611 56.0181 90.6234 57.711C92.004 59.3092 92.7543 61.3135 92.7446 63.4281C92.734 65.6002 92.1628 68.0463 91.0871 69.9478C88.827 73.9429 83.548 73.9706 79.7542 72.3778C75.7057 70.678 74.0585 66.3912 75.0337 62.2468C75.7669 59.13 78.2679 55.3902 81.7067 55.3391ZM88.3026 58.4247C87.108 57.4669 85.6038 57.0366 84.0839 57.1454C83.3288 57.1995 82.5616 57.3975 81.8762 57.7193C81.5118 57.8903 81.1861 58.1292 80.8273 58.3072C80.5074 58.4658 80.1612 58.5583 79.8311 58.6917L79.7082 58.7439C79.1662 58.9858 78.6204 58.6397 78.5933 58.1354C77.4142 59.7876 76.855 62.0281 76.8639 64.0157C76.8708 65.4793 77.2198 66.9997 78.061 68.2183C78.996 69.5727 80.5472 70.2871 82.103 70.6665C83.593 71.0298 85.2177 71.1558 86.7113 70.7431C88.2615 70.3149 89.2629 69.1398 89.8328 67.6751C91.0692 64.4978 91.1713 60.7248 88.3026 58.4247ZM82.9791 62.3645C83.6556 61.4422 84.8691 61.3932 85.5371 62.3645C85.9576 62.9759 85.8958 63.5649 85.8624 64.2685L85.8559 64.4267C85.8362 64.9836 85.8388 65.5698 85.6299 66.0844C85.3617 66.7451 84.8405 67.1684 84.1022 67.0808C83.6676 67.0289 83.3035 66.7698 83.0924 66.4124L83.085 66.4166C82.7889 65.8261 82.7125 65.227 82.6625 64.5824L82.628 64.1097C82.5861 63.4883 82.5839 62.9034 82.9791 62.3645Z" fill="black"/>
</svg>
