<svg width="200" height="300" viewBox="0 0 200 300" fill="none" xmlns="http://www.w3.org/2000/svg">
<path fill-rule="evenodd" clip-rule="evenodd" d="M110.657 193.641C110.999 197.207 110.299 200.613 108.632 203.492L108.089 204.429L109.122 204.789C111.001 205.445 113.091 205.765 115.511 205.765C118.001 205.765 120.591 205.418 122.672 205.14L124.005 204.962L123.35 203.806C122.824 202.878 122.727 201.752 122.623 200.561C122.595 200.241 122.567 199.91 122.529 199.583C120.557 181.986 118.065 164.16 115.655 146.921C115.02 142.384 114.364 137.694 113.728 133.079L111.903 133.15C111.412 141.69 110.935 150.375 110.475 158.775C110.272 162.468 110.069 166.162 109.865 169.855C109.137 179.191 109.388 186.751 110.657 193.641ZM111.402 299.16C108.721 299.16 106.036 298.882 103.42 298.332C95.2337 296.617 87.7968 292.569 81.4686 288.91C81.1454 288.727 80.8176 288.544 80.481 288.356C78.0035 286.972 74.9203 285.25 72.9881 283.15C70.8684 280.845 70.5035 278.549 71.8402 275.923L72.0516 275.508L71.8307 275.097C70.4466 272.525 70.5496 269.343 72.0808 267.36L73.3678 265.692L71.2519 265.917C69.1184 266.143 66.9682 266.449 64.8885 266.745C62.5812 267.074 60.195 267.413 57.845 267.641L57.1919 267.704L57.0417 268.332C56.9581 268.682 56.8549 268.894 56.1299 268.894C55.5013 268.894 54.6564 268.711 53.7623 268.516C52.6526 268.275 51.3947 268.001 50.1818 268.001C49.6483 268.001 49.1685 268.052 48.7146 268.157L48.4505 268.217L48.2626 268.41C48.1424 268.532 47.9378 268.609 47.7288 268.609C47.5707 268.609 47.424 268.565 47.326 268.488L47.0297 268.257L46.6536 268.298C40.1023 269.016 34.4532 270.277 29.3841 272.151L29.3612 272.159L29.2512 272.207C27.4182 272.997 25.5232 273.813 23.7972 273.813C22.5355 273.813 21.511 273.385 20.5727 272.465L20.3076 272.205L19.9336 272.201C16.1385 272.166 14.4045 267.748 14.1647 264.787L14.1346 264.414L13.8453 264.172C7.23142 258.63 3.3269 251.02 1.90817 240.905C0.61604 231.692 1.60815 221.978 2.74904 213.691C5.38819 192.214 8.1408 172.961 15.1379 154.701L15.4648 153.847L14.5936 153.535C11.5716 152.45 9.26197 151.157 7.53266 149.58L7.41293 149.471L7.26216 149.409C4.78372 148.392 3.56988 144.64 3.25687 143.514L3.23179 143.423L3.18806 143.339C2.68237 142.371 2.5657 141.024 2.86816 139.643L2.90058 139.494L2.88177 139.343C2.71846 138.032 3.26054 136.662 3.83443 135.211C4.09668 134.548 4.36764 133.863 4.56566 133.181C5.24644 131.23 5.92645 129.246 6.58429 127.326C8.06021 123.019 9.58615 118.566 11.2118 114.234L11.4341 113.641L10.9443 113.233C10.1082 112.536 10.3874 111.715 11.5931 109.752C11.878 109.289 12.1475 108.85 12.3524 108.418C13.8979 105.752 15.5542 103.192 17.2764 100.81L17.3118 100.761L17.3401 100.708C26.1769 84.2308 41.8517 75.1565 61.4768 75.1565L61.8769 75.1573L62.098 75.0244C65.7762 72.8162 68.4019 69.0271 70.1251 63.4409L70.1801 63.2629L70.1589 63.0779C70.0998 62.563 70.0351 61.888 70.0573 61.233C70.1134 59.5741 70.7647 58.0938 71.844 57.1715C73.8917 55.4216 77.0002 55.2751 80.0088 55.2751H80.4408C84.2874 55.2869 87.003 55.9536 88.9872 57.3745C91.2925 59.0254 92.5666 61.6903 92.8824 65.5215C92.9767 66.6679 92.9735 67.8556 92.9706 69.0041L92.9698 69.3246L93.0085 69.4518C93.285 70.3624 93.6089 71.2373 93.971 72.0525L94.3435 72.8912L95.1906 72.5131C95.7385 72.2687 96.4331 72.1429 97.3145 72.1288C97.5686 72.1229 97.8165 72.1202 98.0665 72.1202C100.113 72.1202 102.302 72.3067 104.419 72.4871C106.015 72.623 107.664 72.7637 109.261 72.8261L109.283 72.827C109.283 72.827 109.503 72.8256 109.602 72.8256C113.483 72.8256 116.296 73.4349 118.456 74.7433C120.781 76.1519 122.452 78.4127 123.717 81.8581C130.497 101.607 133.285 122.879 135.744 141.647C137.138 151.461 137.563 161.523 137.973 171.253C138.406 181.523 138.854 192.143 140.439 202.524L140.565 203.344L141.407 203.29C145.112 203.051 149.116 202.537 153.355 201.993C159.796 201.166 166.456 200.31 172.894 200.31C181.896 200.31 188.722 202.079 193.757 205.716C197.268 209.019 199.084 213.491 199.009 218.651C198.904 225.943 195.041 234.005 189.168 239.189L189.146 239.209C181.722 246.211 168.171 252.284 148.87 257.259C131.121 261.834 112.762 264.321 103.398 265.396L101.081 265.662L102.962 267.019C103.723 267.569 104.418 268.053 105.086 268.499L105.517 268.786L105.989 268.57C107.334 267.954 108.189 267.825 108.669 267.825C109.095 267.825 109.609 267.917 109.638 268.358C109.656 268.646 109.451 269.074 109.017 269.128L106.713 269.415L108.594 270.755C109.851 271.649 111.725 272.727 113.896 273.976C120.997 278.061 131.728 284.234 129.883 289.655L129.761 290.012L129.933 290.347C130.429 291.318 130.471 292.219 130.062 293.102C129.186 294.993 126.445 296.429 124.117 297.014L124.077 297.024L124.038 297.037C119.988 298.446 115.736 299.16 111.402 299.16Z" fill="white"/>
<path fill-rule="evenodd" clip-rule="evenodd" d="M103.609 264.334C103.889 264.049 104.007 263.677 103.745 263.239C102.735 261.95 100.638 262.831 99.3339 263.129C98.8413 262.72 98.3522 262.31 97.8812 261.876C98.0448 260.863 96.8246 260.189 96.323 259.407C95.8306 258.831 95.3673 258.177 94.7769 257.694C93.3381 256.574 91.3441 257.332 89.6743 257.281C88.3883 255.647 87.064 254.066 85.8407 252.378C87.2506 250.013 87.35 247.241 86.8821 244.605C108.509 236.412 127.229 220.9 150.618 217.315C151.423 217.181 151.874 216.205 151.673 215.489C150.042 211.602 126.595 221.632 123.09 223.449C112.754 228.391 103.071 234.55 93.0246 239.985C90.9297 241.096 88.6253 241.694 86.3346 242.271C82.8146 230.737 76.8599 220.163 72.2941 209.042C72.5906 208.53 72.843 207.991 73.0571 207.438C72.9057 213.554 78.8633 213.468 79.6859 207.666C79.3465 210.691 81.6371 217.168 84.9431 212.918C85.7184 211.85 85.9936 210.483 86.125 209.104C86.2949 210.057 86.4876 211.006 86.7016 211.952C87.5502 213.826 89.867 211.548 90.4051 210.57C90.7156 210.515 91.0062 210.373 91.2187 210.2C97.0646 211.011 103.95 210.964 108.24 206.357C115.515 209.143 123.568 206.647 130.926 205.534C145.899 203.815 160.932 201.195 176.04 201.395C182.785 201.786 190.743 202.874 195.009 208.62C200.482 216.903 197.389 228.09 191.352 235.26C176.829 253.617 126.981 261.6 103.609 264.334ZM104.018 270.946C104.282 270.875 104.548 270.811 104.813 270.749C109.052 274.273 129.015 283.422 127.496 288.887C126.959 289.567 125.675 289.721 124.863 289.941C123.448 290.323 122.02 290.654 120.578 290.915C115.917 291.762 111.09 291.909 106.435 290.944C104.723 290.684 103.177 289.955 101.617 289.249C96.5768 287.036 91.0261 284.59 86.0103 282.395C79.6384 279.873 68.4619 274.903 73.0586 266.516C77.4136 271.406 82.9415 270.979 85.726 264.901C86.6863 263.055 87.5243 260.568 89.7798 259.822C90.9695 259.019 92.491 258.852 93.4849 259.747C93.5568 259.636 93.621 259.479 93.656 259.341C94.7769 260.934 95.7435 262.61 97.0568 264.066C96.6059 264.09 91.9114 267.559 93.2968 267.561C94.9636 266.704 96.6197 265.989 98.4195 265.528C99.7238 266.837 101.158 268.056 102.644 269.182C101.201 270.134 99.9043 271.299 98.8614 272.564C98.7712 272.675 98.8813 272.82 99.0158 272.76C100.635 272.039 102.3 271.406 104.018 270.946ZM125.505 294.577C109.292 301.848 92.1269 293.752 78.3004 285.12C75.1092 283.341 70.9117 280.819 71.557 276.631C73.9073 280.064 77.7821 282.019 81.501 283.714C87.7491 286.533 94.0383 289.263 100.302 292.048C100.893 294.007 103.722 294.082 105.432 294.517C113.043 295.991 121.224 295.259 128.386 292.32C127.972 293.546 126.615 294.108 125.505 294.577ZM60.8162 266.265C60.4157 266.316 60.0149 266.362 59.6144 266.408C59.6557 265.878 59.3361 265.349 58.8223 265.185C59.0532 264.063 59.1388 262.903 59.015 261.765C59.6847 263.493 61.847 262.968 63.2201 262.47C65.182 261.938 67.1317 261.365 69.0706 260.754C69.8352 262.173 70.6456 263.57 71.6411 264.854C68.0169 265.176 64.4266 265.815 60.8162 266.265ZM59.2214 260.83C59.1251 261.033 58.9875 261.248 58.9844 261.491C58.8865 260.651 58.6954 259.821 58.4049 259.025C58.6769 259.627 58.9492 260.228 59.2214 260.83ZM56.9338 256.323C55.1508 254.002 51.8555 252.106 48.8095 252.753C48.6137 252.795 48.609 253.109 48.8095 253.148C52.9015 253.703 56.495 256.944 56.637 261.134C56.9598 263.03 55.6386 264.892 56.0836 266.711C55.9949 266.717 55.9062 266.722 55.8191 266.728C55.787 266.849 55.7578 266.958 55.7195 267.053C56.1616 267.126 56.2916 267.836 55.77 267.962C55.4613 268.038 55.1386 268.077 54.8098 268.093C53.1415 267.644 51.3815 267.54 49.7866 266.875C48.2085 266.179 48.603 264.222 48.0464 262.867C47.6382 261.305 47.1686 259.749 46.5769 258.249C46.5341 258.129 46.3705 258.156 46.3567 258.278C45.9393 261.269 45.953 264.311 46.054 267.326C45.5065 267.382 44.9622 267.444 44.4161 267.511C44.4514 266.669 41.9207 256.409 40.5873 259.042C41.2586 261.937 41.3396 264.961 41.4115 267.94C37.4525 268.591 33.5517 269.561 29.7564 270.881C27.0819 271.69 23.9011 274.085 21.3048 271.92C19.294 270.26 18.6166 267.364 18.8062 264.899C21.421 250.317 42.0736 248.613 54.2655 249.691C55.4169 252.344 56.5898 254.987 57.7779 257.625C57.5317 257.171 57.2503 256.735 56.9338 256.323ZM15.3518 264.615C15.1286 261.303 15.6867 257.181 18.144 254.714C23.7682 249.966 31.6433 248.473 38.6713 246.754C41.945 246.109 45.2634 245.68 48.5954 245.467C49.7774 245.373 51.279 245.641 52.1138 244.676C52.5436 245.692 52.9793 246.707 53.4153 247.722C39.4236 245.892 10.2323 252.25 18.4071 271.387C16.6759 269.514 15.5291 267.235 15.3518 264.615ZM84.8651 253.669C85.5089 255.275 86.2964 256.804 87.3255 258.202C86.1557 258.967 85.2015 260.096 84.5287 261.31C80.2165 272.573 75.6046 266.54 69.8749 260.496C74.7239 258.669 81.1463 257.3 84.8651 253.669ZM13.0887 262.323C1.87549 251.264 -0.300477 232.84 3.84197 218.359C4.21049 212.988 6.09134 207.871 7.77646 202.786C13.1422 187.363 20.1992 172.525 28.663 158.515C39.1636 161.395 49.6459 164.351 60.171 167.137C61.6205 167.451 63.0716 168.072 64.5596 168.162C65.0918 168.501 65.6255 168.873 66.179 169.201C65.3732 173.143 66.1163 177.167 66.3044 181.133C66.4755 184.255 66.1377 187.312 65.7232 190.401C65.26 194.894 63.353 209.51 67.1745 212.185C68.4697 212.809 69.6272 210.961 70.1854 211.47C70.6885 211.119 71.1579 210.663 71.5402 210.161C73.0158 214.925 75.4273 219.345 76.9167 224.114C78.8983 231.121 85.4064 242.465 83.9614 249.149C82.8436 253.277 77.9534 254.168 74.4241 255.517C70.3459 256.933 66.2218 258.234 62.0304 259.29C59.9845 254.954 58.0287 250.578 56.1096 246.185C47.3384 225.918 39.5704 205.229 32.6281 184.292C32.4981 183.828 30.9017 178.793 30.6096 180.197C30.5852 180.053 30.4032 179.68 30.3344 179.999C31.5118 184.915 32.7059 189.829 33.9982 194.718C30.8237 194.275 27.4107 194.102 24.5053 195.655C24.3554 195.735 24.4655 195.932 24.6137 195.908C28.0543 195.312 31.3727 196.437 34.6771 197.245C39.3181 213.017 45.3062 228.389 51.6445 243.569C49.6842 242.945 47.4088 243.635 45.3628 243.684C38.919 244.349 32.5486 245.757 26.4611 247.946C18.8092 250.423 13.3991 253.653 13.0887 262.323ZM6.91539 147.227C5.03164 145.202 3.55128 142.615 3.83738 139.871C4.96895 138.364 5.34359 136.398 6.00265 134.657C8.57926 127.369 10.9708 120.026 13.7753 112.817C19.7405 114.648 25.6092 116.845 31.1448 119.731C32.1632 120.25 33.1709 120.788 34.1664 121.346C35.2093 121.93 36.347 122.943 37.5978 122.653C36.2307 124.586 33.4156 126.596 32.94 128.829C32.8376 129.536 33.3391 130.192 34.1098 130.034C46.1732 138.589 58.6312 146.964 70.034 156.494C78.5727 163.243 85.1282 168.717 88.0565 179.668C90.0306 186.762 90.0365 194.175 89.7462 201.469C89.6896 202.887 89.688 204.338 89.5734 205.765C89.7446 206.833 89.4189 209.006 88.217 209.045C88.2445 209.304 88.3302 209.543 88.4663 209.754C88.428 209.805 88.3883 209.853 88.347 209.903C88.2874 209.611 88.2293 209.321 88.1742 209.029C87.2384 204.89 87.113 200.089 87.2689 195.682C87.3345 194.419 85.3942 194.449 85.2857 195.682C84.9936 199.013 84.7015 202.344 84.4095 205.674C84.0591 207.832 84.6113 210.654 82.8834 212.295C81.1264 210.674 81.7075 207.477 81.7931 205.385C81.9306 201.973 82.079 198.562 82.206 195.15C82.2457 194.069 80.452 193.79 80.2485 194.89C79.6722 198.024 79.0483 201.149 78.3768 204.265C77.9718 205.469 77.6935 210.874 75.6689 209.936C74.4624 209.113 75.3325 204.29 75.1734 202.693C75.2484 199.532 75.2926 196.376 75.5251 193.222C75.6199 191.95 73.5449 191.679 73.2605 192.921C72.7987 194.932 72.3568 196.943 71.9561 198.967C71.0769 202.379 71.3964 207.005 68.2219 209.272C66.9788 200.409 68.7677 191.607 69.0186 182.775C68.8688 179.913 68.3764 177.08 67.9421 174.253C67.462 171.126 67.1821 167.723 68.3061 164.708C67.9987 163.357 66.7907 167.01 66.6775 167.314C65.7677 165.524 63.5519 165.386 61.7995 164.828C57.9048 163.569 53.9153 162.621 49.9747 161.502C39.5244 158.604 29.062 155.751 18.5967 152.904C14.416 151.749 10.0151 150.382 6.91539 147.227ZM111.562 194.374C110.12 186.57 110.16 178.663 110.776 170.774C111.454 158.539 112.111 146.301 112.815 134.067C115.869 156.21 119.124 178.327 121.613 200.54C121.791 202.086 121.763 203.722 122.545 205.101C118.226 205.678 113.624 206.26 109.425 204.794C111.267 201.613 111.917 197.992 111.562 194.374ZM133.382 139.41C136.646 160.396 134.784 181.751 137.951 202.713C133.558 203.204 129.198 203.932 124.851 204.732C125.326 202.143 124.424 199.469 124.268 196.861C121.907 178.262 119.3 159.675 115.846 141.238C114.998 136.825 114.142 132.431 113.16 128.043C113.309 125.386 113.439 122.728 113.524 120.069C118.318 117.06 123.724 115.113 129.314 114.131C130.825 122.534 132.334 130.932 133.382 139.41ZM95.589 73.4644C95.3979 73.1381 95.2159 72.8042 95.0416 72.4658C95.6318 72.4884 96.2068 72.5095 96.7879 72.6057C96.7619 73.5396 96.8139 74.481 96.8246 75.4224C96.5339 74.7336 95.9652 74.105 95.589 73.4644ZM194.191 204.976C180.247 194.852 157.343 201.302 141.19 202.343C138.11 182.181 139.367 161.69 136.496 141.495C133.853 121.319 131.065 100.863 124.426 81.5324C121.685 74.0583 116.945 71.8387 109.14 71.8989C105.18 71.744 100.991 71.1109 97.1426 71.201C96.2985 71.2147 95.4162 71.3259 94.6547 71.6658C93.5843 69.2567 93.0032 66.6701 92.7096 64.0639C92.6913 63.8985 92.4803 63.8684 92.4176 64.0263C91.5123 66.2956 91.416 68.7724 91.9082 71.1485C92.2647 72.8508 94.3856 79.5504 96.849 76.9292C97.0446 82.4257 95.8351 88.9899 90.4419 91.8427C81.0178 95.9452 67.9909 92.2097 62.532 83.5025C61.4769 81.7625 60.5671 79.9112 59.3988 78.2406C67.5384 75.9397 72.1073 66.2024 70.1899 58.787C69.0049 64.5542 66.844 70.9981 61.4631 74.2283C41.8685 74.1847 25.5772 83.0949 16.3718 100.257C14.5704 102.749 12.9052 105.338 11.3791 107.973C10.5578 109.735 8.15263 112.187 10.194 113.889C7.83609 120.172 5.74422 126.542 3.53308 132.875C2.92586 134.985 1.5374 137.198 1.81433 139.416C1.51462 140.783 1.52838 142.4 2.21496 143.714C2.86638 146.057 4.32808 149.209 6.75193 150.203C8.80863 152.079 11.4097 153.37 14.1224 154.343C6.88787 173.22 4.13404 193.577 1.68282 213.521C-0.719615 230.968 -1.9596 252.192 13.0933 264.801C13.3854 268.409 15.5291 273.006 19.768 273.045C22.7038 275.924 26.2821 274.345 29.5499 272.937C35.0655 270.898 40.8503 269.767 46.5983 269.137C47.2146 269.618 48.2177 269.538 48.7667 268.978C52.2485 268.176 57.0745 271.421 57.7779 268.481C62.2675 268.047 66.7081 267.232 71.1931 266.756C69.3029 269.205 69.4391 272.815 70.8628 275.46C67.2372 282.581 75.6826 286.705 80.8465 289.627C87.8178 293.657 95.0982 297.481 103.071 299.152C110.081 300.624 117.424 300.178 124.187 297.826C127.741 296.934 132.704 294.006 130.596 289.881C133.269 282.031 114.497 273.897 108.975 269.965C111.232 269.684 111.315 265.007 105.444 267.695C104.735 267.221 104.038 266.732 103.348 266.235C127.092 263.51 172.439 256.013 189.624 239.808C199.064 231.475 204.511 214.62 194.191 204.976Z" fill="black"/>
<path fill-rule="evenodd" clip-rule="evenodd" d="M77.8371 11.1477C100.497 10.0349 110.723 25.9668 111.384 33.0828C111.843 38.0224 108.921 43.7159 108.921 48.1298C108.921 50.3829 111.683 55.2199 110.397 58.5037C107.535 65.8127 101.474 73.9244 93.7504 73.9244C86.027 73.9244 75.9756 76.0572 67.4416 63.8556C66.6408 62.7107 56.5129 56.2038 55.529 50.0208C53.0781 34.6194 61.6681 11.9417 77.8371 11.1477Z" fill="white"/>
<path fill-rule="evenodd" clip-rule="evenodd" d="M76.7689 1.23283C77.5792 0.307234 78.9471 -0.0630031 80.1626 0.00865571C81.9282 0.113158 83.4638 1.20148 85.2204 1.28209C87.0622 1.36719 88.8398 0.729722 90.6861 1.02532C91.8179 1.20745 92.9391 1.73145 93.6642 2.61525C96.1759 1.89716 98.9028 2.84814 100.503 4.92475C102.476 4.61871 104.623 5.92364 105.227 7.82245C107.734 7.90307 110.101 9.91399 110.38 12.434C111.382 12.6982 112.252 13.3881 112.786 14.3001C113.406 15.3571 113.509 16.5693 113.397 17.7606C114.577 18.3623 115.176 19.6551 115.333 21.0226C116.411 21.8258 116.879 23.2694 116.659 24.6324C117.485 25.0967 117.911 26.1776 117.906 27.142C117.902 28.0422 117.663 28.8395 117.999 29.7082C118.299 30.482 118.406 31.1268 118.241 31.9373L118.225 32.0163C118.195 32.1484 118.171 32.2751 118.149 32.4001C118.372 32.5956 118.561 32.8408 118.703 33.1259C119.22 34.168 119.143 35.3565 118.748 36.4133C118.921 37.0863 118.899 37.7972 118.644 38.4441C119.122 39.1315 119.373 39.9747 119.299 40.8496C119.217 41.829 118.769 42.7061 118.089 43.3546C118.27 44.6926 117.726 46.1381 116.74 47.0801C116.88 47.8811 116.76 48.7205 116.321 49.4798C116.008 50.021 115.587 50.4241 115.101 50.705C115.117 51.1518 115.057 51.6088 114.908 52.0667C114.701 52.7021 114.351 53.2874 113.89 53.7589C114.165 55.5142 113.113 57.462 111.26 57.9545C111.105 57.9959 110.956 58.0148 110.814 58.0178C110.63 59.7061 110.228 61.371 109.606 62.9521C108.024 66.9783 105.148 70.4985 101.397 72.6946C99.5412 73.7799 97.4571 74.5234 95.3297 74.8339C93.7988 75.0578 92.3262 75.0026 90.7894 74.8503C88.8607 74.6577 86.9231 74.3696 85.0484 73.874L84.7468 73.7939C83.9696 73.586 83.1502 73.3461 82.4769 72.9275C81.7234 72.4587 81.3319 71.7361 81.1584 70.8852C81.0617 70.4116 81.3621 69.9022 81.8813 69.8924L81.9148 69.8924C82.0284 69.8948 82.1411 69.8905 82.2551 69.8833L82.341 69.8775H82.3453C82.3513 69.876 82.3545 69.876 82.3603 69.876C82.4111 69.8685 82.4605 69.8536 82.5098 69.8461C83.081 69.7501 83.5806 69.8453 84.117 70.0235L84.1842 70.0462C85.0872 70.3567 85.9827 70.6448 86.9156 70.8583C87.8799 71.0778 88.8562 71.2524 89.8354 71.3898L89.9326 71.4017L89.9625 71.4062L89.9775 71.4077C89.9775 71.4077 89.9835 71.4077 89.9864 71.4092L90.275 71.445C90.5024 71.4719 90.7295 71.4958 90.9567 71.5197C91.3753 71.5615 91.7939 71.5943 92.2125 71.6182C99.438 72.0243 105.506 66.3438 107.338 59.5332C108.002 57.0685 108.045 54.6097 107.849 52.1494C107.786 51.9703 107.749 51.7717 107.75 51.5537C107.75 51.4403 107.757 51.3283 107.764 51.2149C107.52 48.8352 107.097 46.454 106.832 44.0654C106.523 41.2752 106.351 38.4687 106.414 35.6604C106.445 34.2735 106.593 32.9001 106.788 31.5267L106.858 31.0333C105.98 30.8621 105.163 30.4462 104.513 29.8441C103.102 30.6577 101.276 30.7298 99.8828 29.8707C98.322 30.8481 96.1413 30.9367 94.5696 29.9811C93.6197 30.6583 92.4227 30.9505 91.2478 30.6934C90.7193 30.5779 90.1938 30.3278 89.7438 29.9816C89.4225 30.0382 89.097 30.0601 88.7734 30.0433L88.7066 30.0806C87.9605 30.4732 87.1341 30.7316 86.2836 30.7028C85.6538 30.6816 85.0051 30.5576 84.4046 30.3229C83.7631 30.7095 83.061 30.9735 82.3099 31.0681C81.213 31.2062 80.0292 30.9639 79.117 30.3426C77.4499 31.2909 75.3993 31.4369 73.5998 30.7997C73.2313 31.423 72.7214 31.9604 72.1243 32.3747C72.2311 32.7572 72.2652 33.165 72.2285 33.5572C72.1681 34.2027 72.006 34.7815 71.7409 35.3014C72.0203 35.8818 72.1044 36.5945 71.948 37.3099C71.7251 38.3301 71.1307 39.2177 70.361 39.9089C70.2931 41.537 69.399 43.0637 67.9437 43.9118C67.87 43.9546 67.7967 43.9896 67.7236 44.021C67.6593 44.1088 67.5825 44.186 67.4947 44.2511C66.5693 45.1049 65.1048 45.037 63.9448 44.5546C63.9224 44.5557 63.9001 44.5576 63.8774 44.558C63.4631 44.5685 63.1807 44.4073 63.0131 44.1699C62.8443 44.179 62.6767 44.1968 62.5079 44.2281C61.8918 44.3431 61.216 44.564 60.6584 44.8508C59.2112 45.5941 58.5414 46.9079 58.3411 48.4873C58.123 50.2101 58.6192 51.9658 59.9544 53.1317C60.6031 53.699 61.4328 54.0543 62.276 54.2036C63.2074 54.3693 64.2031 53.9618 64.8908 54.7605C65.0284 54.9187 65.1226 55.1397 65.0478 55.3531C64.8146 56.019 64.4304 56.2743 63.8294 56.3668C64.698 57.3954 65.589 58.3897 66.5757 59.3138C67.6432 60.3155 68.7465 61.2859 69.7095 62.3906C70.7274 63.5596 71.6469 64.7987 72.2853 66.2169C72.6501 67.032 72.9431 67.8725 73.2587 68.7071L73.315 68.8525C73.6669 69.7391 74.135 70.5938 73.5934 71.5197C73.3781 71.8839 72.8908 72.2363 72.4422 72.178C71.1791 72.0168 70.756 71.1644 70.3671 70.0537C70.0741 69.2147 69.8499 68.3518 69.5346 67.5202C69.4755 67.3663 69.4112 67.2139 69.3438 67.0623C68.6154 67.2651 67.8145 67.1041 67.1645 66.6894C66.4699 66.9968 65.7004 67.1501 64.9572 67.1371C63.9621 67.1197 63.053 66.8436 62.2714 66.3458C62.2092 66.3293 62.1467 66.3135 62.0847 66.2957C60.8957 66.7505 59.5032 66.6693 58.4266 65.9322C57.7295 65.4549 57.2529 64.8179 56.982 64.1087C56.0812 64.0915 55.1902 63.7726 54.5448 63.1345C53.9521 62.5487 53.6057 61.7929 53.5029 61.0075C52.7276 60.8542 52.0007 60.4799 51.4306 59.8494C50.9546 59.3229 50.6653 58.6523 50.5675 57.956C49.6233 57.687 48.7717 57.0713 48.3066 56.2129C47.8738 55.4138 47.8113 54.5468 48.023 53.7583L47.9681 53.6795C46.9955 53.1711 46.2532 52.339 46.1769 51.1504C46.1554 50.8119 46.1919 50.4733 46.2838 50.153C46.2506 49.7948 46.2719 49.4368 46.3659 49.0905C45.0577 47.82 44.5838 45.7792 45.294 44.0923C44.0157 42.7188 43.6778 40.5466 44.6152 38.9166C43.9723 38.1401 43.6419 37.1503 43.6973 36.0933C43.766 34.7738 44.3715 33.6211 45.0966 32.5537C44.5584 31.9595 44.2714 31.131 44.2924 30.3308C44.3222 29.1708 44.9396 28.1721 45.7127 27.345C45.0383 25.3027 45.7918 23.0873 47.4468 21.7944C47.1119 21.2435 46.9878 20.5613 47.0971 19.8701C47.2883 18.6623 48.1958 17.8398 49.1751 17.1889C48.9702 16.5232 49.0241 15.8049 49.35 15.1167C49.785 14.1986 50.6058 13.6164 51.4625 13.1237C51.6837 11.0874 53.9622 9.34819 55.8728 10.3992C55.3989 8.8839 56.764 7.24769 58.3338 7.07451C59.1021 4.74859 61.7528 3.28257 64.1358 3.86032C65.3543 2.19724 67.6223 1.55693 69.5479 2.27039C71.665 0.650599 74.2916 0.410243 76.7689 1.23283ZM61.6885 46.902C63.176 46.8213 64.2913 48.0336 65.0749 49.1428C65.8103 50.1833 63.9236 51.2821 63.3734 50.1356C63.176 49.7265 62.9518 49.2936 62.6513 48.9353C62.6008 49.0058 62.5563 49.0789 62.5119 49.1538L62.4674 49.2294C62.4345 49.2846 62.4001 49.3413 62.3717 49.3996C62.3747 49.41 62.3298 49.5474 62.3284 49.5533C62.2058 49.9251 61.9381 50.1639 61.5735 50.2923C61.1024 50.4565 60.6569 50.1027 60.5059 49.6877C60.2654 49.0248 60.8244 48.4471 61.4059 48.1844C60.8348 48.0918 60.2727 48.2859 59.8601 48.7248C59.8034 48.786 59.7076 48.7367 59.7047 48.6606C59.6567 47.62 60.7466 46.9527 61.6885 46.902Z" fill="black"/>
<path fill-rule="evenodd" clip-rule="evenodd" d="M97.9672 62.4268C96.8659 62.7454 95.6837 62.7738 94.5611 62.4449C93.5429 62.1465 92.4974 61.4898 91.748 60.6209C91.0823 59.849 90.6511 58.9109 90.668 57.9096C90.67 57.7953 90.7109 57.6998 90.7739 57.6257C90.8417 57.546 90.9364 57.4912 91.0379 57.4674C91.1422 57.443 91.2526 57.4517 91.3465 57.4943C91.4315 57.5328 91.5044 57.5984 91.5499 57.6941C91.6651 57.8452 91.7798 57.994 91.895 58.1387C92.821 59.2805 93.7178 60.1338 95.1102 60.4399C95.8658 60.606 96.6203 60.5323 97.3126 60.2789C98.0537 60.0077 98.7237 59.5307 99.2487 58.9204C99.4859 58.6446 99.766 58.532 100.04 58.5301C100.35 58.528 100.657 58.672 100.888 58.9022C101.115 59.1284 101.267 59.4359 101.281 59.7575C101.293 60.0398 101.201 60.3347 100.956 60.5977C100.148 61.4643 99.1004 62.0991 97.9672 62.4268ZM97.9332 48.1262C99.0622 48.8114 100.782 50.4093 99.5679 52.1081C98.1383 53.606 96.08 51.8885 95.0657 51.1118C94.1252 50.5098 93.0686 52.058 93.9411 52.7609C101.27 58.1794 104.245 48.3053 98.5042 47.3205C97.8722 47.212 97.6374 47.9142 97.9332 48.1262ZM87.3724 45.111C87.0096 44.8792 86.5827 44.7997 86.1097 45.0146C85.74 45.1825 85.0916 45.7421 84.6404 46.4777C84.3317 46.981 84.1128 47.5715 84.1584 48.1864C84.169 48.3293 84.1161 48.4346 84.0328 48.5124C83.9669 48.5739 83.8718 48.6191 83.7601 48.6333C83.6653 48.6453 83.5591 48.6344 83.4728 48.6075C83.3086 48.5564 83.2218 48.45 83.189 48.3632C82.8731 47.5254 83.0092 46.5904 83.3633 45.7469C83.8411 44.6086 84.7089 43.655 85.2775 43.3476C86.2504 42.8214 87.3981 42.7971 88.3724 43.3333C89.2018 43.7896 89.7204 44.5262 90.2362 45.2772C90.3458 45.4368 90.4546 45.5953 90.5671 45.7509C90.7925 46.0629 90.8149 46.3722 90.7277 46.6375C90.631 46.9314 90.3844 47.1794 90.0761 47.3092C89.7911 47.4292 89.4603 47.4461 89.1677 47.3228C88.9204 47.2187 88.6935 47.0157 88.55 46.6713C88.3082 46.0912 87.9053 45.4513 87.3724 45.111ZM105.801 46.4015C105.553 46.5308 105.358 46.5697 105.082 46.4873C104.93 46.4415 104.779 46.3539 104.661 46.2361C104.544 46.1194 104.46 45.9742 104.427 45.8132C104.347 45.4157 104.129 45.0437 103.819 44.8011C103.553 44.5938 103.219 44.484 102.847 44.5459C102.446 44.6127 102.065 44.8694 101.802 45.172C101.714 45.2732 101.645 45.3882 101.576 45.5024C101.446 45.716 101.32 45.9145 101.141 46.0714C101.074 46.1311 100.972 46.1724 100.873 46.1724C100.833 46.1724 100.792 46.1659 100.753 46.1538C100.354 45.754 100.277 45.4508 100.29 45.15C100.304 44.8346 100.428 44.5152 100.63 44.2172C101.102 43.5183 101.998 42.9452 102.603 42.8154C103.431 42.6376 104.254 42.851 104.913 43.313C105.592 43.7883 106.095 44.5263 106.252 45.358C106.289 45.5584 106.273 45.7746 106.197 45.962C106.122 46.1452 105.992 46.3021 105.801 46.4015ZM89.1992 37.6588C88.7021 38.1424 88.1138 38.2174 87.5186 38.284C87.1879 38.3214 86.9239 38.3515 86.6641 38.41C85.95 38.571 85.2441 38.8134 84.6002 39.1625C83.927 39.5275 83.1934 39.9677 82.6657 40.5316C82.5402 40.6657 82.4219 40.8065 82.3034 40.9476C82.1954 41.0763 82.0913 41.2002 81.9816 41.3196C81.8557 41.4568 81.7361 41.6006 81.6171 41.744C81.5436 41.865 81.529 41.8948 81.5142 41.9258C81.4919 41.9723 81.466 42.0244 81.4364 42.0803C81.3958 42.1568 81.3483 42.2406 81.2985 42.3166C81.2158 42.4555 81.1713 42.4937 81.1329 42.5108C81.0693 42.5392 81.0088 42.5531 80.9502 42.5456C80.8953 42.5385 80.8435 42.5121 80.7924 42.469C80.5372 42.2537 80.4619 41.9003 80.4696 41.5252C80.4814 40.956 80.6916 40.3258 80.8854 39.9384C81.3361 39.0382 81.9611 38.1024 82.7126 37.4306C83.5701 36.6637 84.5083 36.0831 85.586 35.6831C86.2556 35.4344 87.031 35.2061 87.7606 35.2349C88.2857 35.2557 88.7871 35.4116 89.2011 35.8008C89.4553 36.0398 89.5774 36.3797 89.5774 36.7194C89.5774 37.0658 89.4506 37.4143 89.1992 37.6588ZM106.812 42.0875C106.78 42.1392 106.737 42.1749 106.688 42.1963C106.637 42.2187 106.58 42.2252 106.525 42.216C106.471 42.2068 106.419 42.1822 106.378 42.1445C106.339 42.1084 106.309 42.0606 106.295 42.0019C105.965 40.5545 105.324 39.4776 103.957 38.7831C103.284 38.4415 102.51 38.2244 101.778 38.0514C101.565 38.0011 101.34 37.9685 101.114 37.9355C100.404 37.832 99.6888 37.7135 99.226 37.1405C98.9472 36.7954 98.8302 36.354 98.8963 35.9504C98.9586 35.5703 99.181 35.2218 99.5853 35.013C100.592 34.4933 101.843 35.0033 102.859 35.4377C102.935 35.4699 103.009 35.5015 103.081 35.532C104.075 35.951 104.982 36.504 105.727 37.2949C106.318 37.9224 106.866 38.8499 107.087 39.8041C107.27 40.598 107.227 41.4084 106.812 42.0875Z" fill="black"/>
</svg>
